G04 #@! TF.GenerationSoftware,KiCad,Pcbnew,(5.1.5)-3*
G04 #@! TF.CreationDate,2020-08-20T20:48:59-04:00*
G04 #@! TF.ProjectId,carte_v1,63617274-655f-4763-912e-6b696361645f,rev?*
G04 #@! TF.SameCoordinates,Original*
G04 #@! TF.FileFunction,Copper,L2,Bot*
G04 #@! TF.FilePolarity,Positive*
%FSLAX46Y46*%
G04 Gerber Fmt 4.6, Leading zero omitted, Abs format (unit mm)*
G04 Created by KiCad (PCBNEW (5.1.5)-3) date 2020-08-20 20:48:59*
%MOMM*%
%LPD*%
G04 APERTURE LIST*
%ADD10O,1.750000X3.300000*%
%ADD11R,1.700000X1.700000*%
%ADD12O,1.700000X1.700000*%
%ADD13C,0.800000*%
%ADD14C,1.000000*%
%ADD15C,0.200000*%
%ADD16C,0.254000*%
G04 APERTURE END LIST*
D10*
X233856001Y-73342001D03*
X233856001Y-60392001D03*
X233854000Y-91862000D03*
X233854000Y-104812000D03*
D11*
X89154000Y-89916000D03*
D12*
X89154000Y-87376000D03*
X89154000Y-84836000D03*
X89154000Y-82296000D03*
X89154000Y-79756000D03*
X119634000Y-135636000D03*
X122174000Y-135636000D03*
X124714000Y-135636000D03*
X127254000Y-135636000D03*
D11*
X129794000Y-135636000D03*
X152654000Y-135636000D03*
D12*
X150114000Y-135636000D03*
X147574000Y-135636000D03*
X145034000Y-135636000D03*
X142494000Y-135636000D03*
X203200000Y-131572000D03*
X205740000Y-131572000D03*
X208280000Y-131572000D03*
X210820000Y-131572000D03*
D11*
X213360000Y-131572000D03*
D13*
X175768000Y-127762000D03*
X187198000Y-132588000D03*
X183896000Y-126492000D03*
X179578000Y-128016000D03*
X175260000Y-119380000D03*
X175260000Y-117856000D03*
X170688000Y-131572000D03*
X172212000Y-133096000D03*
X173482000Y-95250000D03*
X173482000Y-100584000D03*
X161036000Y-90932000D03*
X157480000Y-84328000D03*
X155956000Y-82804000D03*
X155956000Y-80772000D03*
X161036000Y-70612000D03*
X157480000Y-64008000D03*
X155956000Y-62484000D03*
X155956000Y-60452000D03*
X155956000Y-58420000D03*
X161036000Y-50292000D03*
X173482000Y-54610000D03*
X175006000Y-56388000D03*
X175006000Y-58420000D03*
X173482000Y-74676000D03*
X173482000Y-80010000D03*
X157480000Y-104648000D03*
X155956000Y-103124000D03*
X155956000Y-101092000D03*
X155956000Y-99060000D03*
X161036000Y-111252000D03*
X157480000Y-125222000D03*
X155956000Y-123444000D03*
X155956000Y-121412000D03*
X155956000Y-119380000D03*
X155956000Y-78740000D03*
X173482000Y-59944000D03*
X173482000Y-121158000D03*
X173482000Y-115824000D03*
X136144000Y-125222000D03*
X142748000Y-117094000D03*
X142748000Y-115062000D03*
X135890000Y-104902000D03*
X142748000Y-97028000D03*
X142748000Y-94996000D03*
X136144000Y-84582000D03*
X142748000Y-76454000D03*
X142748000Y-74422000D03*
X136398000Y-64262000D03*
X142748000Y-55880000D03*
X142748000Y-53848000D03*
X113030000Y-55880000D03*
X114554000Y-54356000D03*
X114554000Y-52324000D03*
X113030000Y-50800000D03*
X97282000Y-59944000D03*
X95758000Y-58420000D03*
X97282000Y-80264000D03*
X95758000Y-78740000D03*
X113030000Y-76200000D03*
X114554000Y-74676000D03*
X114554000Y-72644000D03*
X113030000Y-71120000D03*
X113030000Y-96520000D03*
X114554000Y-94996000D03*
X114554000Y-92964000D03*
X113030000Y-91440000D03*
X95758000Y-97028000D03*
X95758000Y-99060000D03*
X97282000Y-100584000D03*
X97282000Y-120904000D03*
X95758000Y-119380000D03*
X95758000Y-117348000D03*
X113030000Y-116586000D03*
X113030000Y-111506000D03*
X113284000Y-133350000D03*
X114808000Y-131826000D03*
X114808000Y-129794000D03*
X97282000Y-137668000D03*
X95758000Y-136144000D03*
X95758000Y-134112000D03*
X100838000Y-125476000D03*
X99314000Y-123698000D03*
X155956000Y-50292000D03*
X155702000Y-70358000D03*
X155448000Y-90678000D03*
X155448000Y-110744000D03*
X123698000Y-58420000D03*
X123698000Y-60452000D03*
X123698000Y-78740000D03*
X123698000Y-80772000D03*
X123698000Y-99060000D03*
X123698000Y-101092000D03*
X123698000Y-119380000D03*
X123698000Y-121412000D03*
X182118000Y-124460000D03*
X184912000Y-121666000D03*
X179070000Y-133096000D03*
X181102000Y-135128000D03*
X197358000Y-127254000D03*
X201676000Y-122936000D03*
X111252000Y-117348000D03*
X133858000Y-117094000D03*
X133858000Y-56134000D03*
X133858000Y-76708000D03*
X133866001Y-97036001D03*
X133858000Y-123698000D03*
X133858000Y-103378000D03*
X133866001Y-83066001D03*
X133858000Y-62738000D03*
X171450000Y-113792000D03*
X171450000Y-110744000D03*
X171450000Y-93726000D03*
X171450000Y-90170000D03*
X171450000Y-72136000D03*
X171450000Y-68072000D03*
X110998000Y-105156000D03*
X110998000Y-100076000D03*
X110998000Y-85090000D03*
X110998000Y-79756000D03*
X110998000Y-64770000D03*
X110998000Y-59436000D03*
X111252000Y-127508000D03*
X133096000Y-137922000D03*
X133096000Y-136144000D03*
X132557999Y-119156001D03*
X132588000Y-123698000D03*
X132588000Y-121666000D03*
X128778000Y-110490000D03*
X132514001Y-98986001D03*
X132588000Y-103378000D03*
X132588000Y-101346000D03*
X129540000Y-90170000D03*
X132544001Y-78696001D03*
X132588000Y-83058000D03*
X132588000Y-81026000D03*
X129286000Y-70358000D03*
X132588000Y-58166000D03*
X132588000Y-62738000D03*
X132588000Y-60706000D03*
X165608000Y-128016000D03*
X165608000Y-125476000D03*
X165608000Y-110744000D03*
X165608000Y-108458000D03*
X165608000Y-90424000D03*
X165608000Y-88138000D03*
X165608000Y-70104000D03*
X165608000Y-67818000D03*
X102108000Y-135128000D03*
X102108000Y-123444000D03*
X102108000Y-121412000D03*
X102108000Y-118618000D03*
X102108000Y-129794000D03*
X102108000Y-113284000D03*
X102108000Y-98298000D03*
X102108000Y-92964000D03*
X102108000Y-77978000D03*
X102108000Y-72644000D03*
X116586000Y-126238000D03*
X116586000Y-123698000D03*
X116586000Y-106172000D03*
X116586000Y-103124000D03*
X116586000Y-85852000D03*
X116586000Y-82550000D03*
X115570000Y-125222000D03*
X115570000Y-122682000D03*
X115570000Y-105156000D03*
X115570000Y-102108000D03*
X114554000Y-124460000D03*
X114554000Y-121666000D03*
X130274001Y-54891999D03*
X142494000Y-50546000D03*
X151130000Y-113030000D03*
X151130000Y-110490000D03*
X151130000Y-92964000D03*
X151130000Y-90424000D03*
X151130000Y-72390000D03*
X151130000Y-69850000D03*
X130196001Y-75543999D03*
X142494000Y-71120000D03*
X150114000Y-113030000D03*
X150114000Y-110490000D03*
X150114000Y-92964000D03*
X150114000Y-90424000D03*
X130278001Y-95781999D03*
X142494000Y-91694000D03*
X147574000Y-113030000D03*
X147574000Y-110490000D03*
X130196001Y-115929999D03*
X142494000Y-111760000D03*
X93472000Y-116078000D03*
X93472000Y-111760000D03*
X93472000Y-95758000D03*
X93472000Y-91186000D03*
X93472000Y-79756000D03*
X93472000Y-71120000D03*
X93472000Y-60706000D03*
X93472000Y-55118000D03*
X108204000Y-122428000D03*
X108204000Y-114046000D03*
X108204000Y-118364000D03*
X108204000Y-102108000D03*
X108204000Y-98044000D03*
X108204000Y-93472000D03*
X108204000Y-81788000D03*
X108204000Y-77724000D03*
X108204000Y-73152000D03*
X108204000Y-61468000D03*
X108204000Y-57404000D03*
D14*
X182118000Y-124460000D02*
X184912000Y-121666000D01*
X184912000Y-121666000D02*
X184912000Y-121666000D01*
X179070000Y-133096000D02*
X181102000Y-135128000D01*
X181102000Y-135128000D02*
X181102000Y-135128000D01*
X197358000Y-127254000D02*
X201676000Y-122936000D01*
X201676000Y-122936000D02*
X201676000Y-122936000D01*
D15*
X111252000Y-127508000D02*
X111252000Y-127508000D01*
X111252000Y-127508000D02*
X111252000Y-117348000D01*
X111252000Y-117348000D02*
X111252000Y-117348000D01*
X133858000Y-123698000D02*
X133858000Y-117094000D01*
X133858000Y-97044002D02*
X133866001Y-97036001D01*
X133858000Y-103378000D02*
X133858000Y-97044002D01*
X133866001Y-76716001D02*
X133858000Y-76708000D01*
X133866001Y-83066001D02*
X133866001Y-76716001D01*
X133858000Y-62738000D02*
X133858000Y-56134000D01*
X171450000Y-113792000D02*
X171450000Y-110744000D01*
X171450000Y-110744000D02*
X171450000Y-110744000D01*
X171450000Y-93726000D02*
X171450000Y-90170000D01*
X171450000Y-90170000D02*
X171450000Y-90170000D01*
X171450000Y-72136000D02*
X171450000Y-68072000D01*
X171450000Y-68072000D02*
X171450000Y-68072000D01*
X110998000Y-105156000D02*
X110998000Y-100076000D01*
X110998000Y-100076000D02*
X110998000Y-100076000D01*
X110998000Y-85090000D02*
X110998000Y-79756000D01*
X110998000Y-79756000D02*
X110998000Y-79756000D01*
X110998000Y-64770000D02*
X110998000Y-59436000D01*
X110998000Y-59436000D02*
X110998000Y-59436000D01*
X111252000Y-127508000D02*
X111252000Y-127508000D01*
X133096000Y-137922000D02*
X133096000Y-136144000D01*
X133096000Y-136144000D02*
X133096000Y-136144000D01*
X132588000Y-123698000D02*
X132588000Y-121666000D01*
X132588000Y-121666000D02*
X132588000Y-121666000D01*
X131992314Y-119156001D02*
X128778000Y-115941687D01*
X132557999Y-119156001D02*
X131992314Y-119156001D01*
X128778000Y-115941687D02*
X128778000Y-110490000D01*
X128778000Y-110490000D02*
X128778000Y-110490000D01*
X132588000Y-103378000D02*
X132588000Y-101346000D01*
X132588000Y-101346000D02*
X132588000Y-101346000D01*
X131948316Y-98986001D02*
X129540000Y-96577685D01*
X132514001Y-98986001D02*
X131948316Y-98986001D01*
X129540000Y-96577685D02*
X129540000Y-90170000D01*
X129540000Y-90170000D02*
X129540000Y-90170000D01*
X132588000Y-83058000D02*
X132588000Y-81026000D01*
X132588000Y-81026000D02*
X132588000Y-81026000D01*
X131978316Y-78696001D02*
X129286000Y-76003685D01*
X132544001Y-78696001D02*
X131978316Y-78696001D01*
X129286000Y-76003685D02*
X129286000Y-70358000D01*
X129286000Y-70358000D02*
X129286000Y-70358000D01*
X132588000Y-62738000D02*
X132588000Y-60706000D01*
X132588000Y-60706000D02*
X132588000Y-60706000D01*
X165608000Y-128016000D02*
X165608000Y-125476000D01*
X165608000Y-125476000D02*
X165608000Y-125476000D01*
X165608000Y-110744000D02*
X165608000Y-108458000D01*
X165608000Y-108458000D02*
X165608000Y-108458000D01*
X165608000Y-90424000D02*
X165608000Y-88138000D01*
X165608000Y-88138000D02*
X165608000Y-88138000D01*
X165608000Y-70104000D02*
X165608000Y-67818000D01*
X165608000Y-67818000D02*
X165608000Y-67818000D01*
X102108000Y-123444000D02*
X102108000Y-121412000D01*
X102108000Y-121412000D02*
X102108000Y-121412000D01*
X102108000Y-135128000D02*
X102108000Y-129794000D01*
X102108000Y-129794000D02*
X102108000Y-129794000D01*
X102108000Y-118618000D02*
X102108000Y-113284000D01*
X102108000Y-113284000D02*
X102108000Y-113284000D01*
X102108000Y-98298000D02*
X102108000Y-92964000D01*
X102108000Y-92964000D02*
X102108000Y-92964000D01*
X102108000Y-77978000D02*
X102108000Y-72644000D01*
X102108000Y-72644000D02*
X102108000Y-72644000D01*
X116586000Y-126238000D02*
X116586000Y-123698000D01*
X116586000Y-123698000D02*
X116586000Y-123698000D01*
X116586000Y-106172000D02*
X116586000Y-103124000D01*
X116586000Y-103124000D02*
X116586000Y-103124000D01*
X116586000Y-85852000D02*
X116586000Y-82550000D01*
X116586000Y-82550000D02*
X116586000Y-82550000D01*
X115570000Y-125222000D02*
X115570000Y-122682000D01*
X115570000Y-122682000D02*
X115570000Y-122682000D01*
X115570000Y-105156000D02*
X115570000Y-102108000D01*
X115570000Y-102108000D02*
X115570000Y-102108000D01*
X114554000Y-124460000D02*
X114554000Y-121666000D01*
X114554000Y-121666000D02*
X114554000Y-121666000D01*
X130274001Y-54891999D02*
X138148001Y-54891999D01*
X138148001Y-54891999D02*
X142494000Y-50546000D01*
X142494000Y-50546000D02*
X142494000Y-50546000D01*
X151130000Y-113030000D02*
X151130000Y-110490000D01*
X151130000Y-110490000D02*
X151130000Y-110490000D01*
X151130000Y-92964000D02*
X151130000Y-90424000D01*
X151130000Y-90424000D02*
X151130000Y-90424000D01*
X151130000Y-72390000D02*
X151130000Y-69850000D01*
X151130000Y-69850000D02*
X151130000Y-69850000D01*
X130761686Y-75543999D02*
X130867685Y-75438000D01*
X130196001Y-75543999D02*
X130761686Y-75543999D01*
X130867685Y-75438000D02*
X138176000Y-75438000D01*
X138176000Y-75438000D02*
X142494000Y-71120000D01*
X142494000Y-71120000D02*
X142494000Y-71120000D01*
X150114000Y-113030000D02*
X150114000Y-110490000D01*
X150114000Y-110490000D02*
X150114000Y-110490000D01*
X150114000Y-92964000D02*
X150114000Y-90424000D01*
X150114000Y-90424000D02*
X150114000Y-90424000D01*
X130278001Y-95781999D02*
X130325999Y-95781999D01*
X130325999Y-95781999D02*
X130556000Y-96012000D01*
X130556000Y-96012000D02*
X138176000Y-96012000D01*
X138176000Y-96012000D02*
X142494000Y-91694000D01*
X142494000Y-91694000D02*
X142494000Y-91694000D01*
X147574000Y-113030000D02*
X147574000Y-110490000D01*
X147574000Y-110490000D02*
X147574000Y-110490000D01*
X130761686Y-115929999D02*
X130909687Y-116078000D01*
X130196001Y-115929999D02*
X130761686Y-115929999D01*
X130909687Y-116078000D02*
X138176000Y-116078000D01*
X138176000Y-116078000D02*
X142494000Y-111760000D01*
X142494000Y-111760000D02*
X142494000Y-111760000D01*
X93472000Y-116078000D02*
X93472000Y-111760000D01*
X93472000Y-111760000D02*
X93472000Y-111760000D01*
X93472000Y-95758000D02*
X93472000Y-91186000D01*
X93472000Y-91186000D02*
X93472000Y-91186000D01*
X93472000Y-79756000D02*
X93472000Y-71120000D01*
X93472000Y-71120000D02*
X93472000Y-71120000D01*
X93472000Y-60706000D02*
X93472000Y-55118000D01*
X93472000Y-55118000D02*
X93472000Y-55118000D01*
X108204000Y-122428000D02*
X108204000Y-118364000D01*
X108204000Y-118364000D02*
X108204000Y-114046000D01*
X108204000Y-114046000D02*
X108204000Y-114046000D01*
X108204000Y-118364000D02*
X108204000Y-118364000D01*
X108204000Y-102108000D02*
X108204000Y-98044000D01*
X108204000Y-98044000D02*
X108204000Y-93472000D01*
X108204000Y-93472000D02*
X108204000Y-93472000D01*
X108204000Y-81788000D02*
X108204000Y-77724000D01*
X108204000Y-77724000D02*
X108204000Y-73152000D01*
X108204000Y-73152000D02*
X108204000Y-73152000D01*
X108204000Y-61468000D02*
X108204000Y-57404000D01*
X108204000Y-57404000D02*
X108204000Y-57404000D01*
D16*
G36*
X239340000Y-139340000D02*
G01*
X85660000Y-139340000D01*
X85660000Y-129692061D01*
X101073000Y-129692061D01*
X101073000Y-129895939D01*
X101112774Y-130095898D01*
X101190795Y-130284256D01*
X101304063Y-130453774D01*
X101373001Y-130522712D01*
X101373000Y-134399289D01*
X101304063Y-134468226D01*
X101190795Y-134637744D01*
X101112774Y-134826102D01*
X101073000Y-135026061D01*
X101073000Y-135229939D01*
X101112774Y-135429898D01*
X101190795Y-135618256D01*
X101304063Y-135787774D01*
X101448226Y-135931937D01*
X101617744Y-136045205D01*
X101806102Y-136123226D01*
X102006061Y-136163000D01*
X102209939Y-136163000D01*
X102409898Y-136123226D01*
X102598256Y-136045205D01*
X102676549Y-135992891D01*
X118192519Y-135992891D01*
X118289843Y-136267252D01*
X118438822Y-136517355D01*
X118633731Y-136733588D01*
X118867080Y-136907641D01*
X119129901Y-137032825D01*
X119277110Y-137077476D01*
X119507000Y-136956155D01*
X119507000Y-135763000D01*
X118313186Y-135763000D01*
X118192519Y-135992891D01*
X102676549Y-135992891D01*
X102767774Y-135931937D01*
X102911937Y-135787774D01*
X103025205Y-135618256D01*
X103103226Y-135429898D01*
X103133219Y-135279109D01*
X118192519Y-135279109D01*
X118313186Y-135509000D01*
X119507000Y-135509000D01*
X119507000Y-134315845D01*
X119761000Y-134315845D01*
X119761000Y-135509000D01*
X119781000Y-135509000D01*
X119781000Y-135763000D01*
X119761000Y-135763000D01*
X119761000Y-136956155D01*
X119990890Y-137077476D01*
X120138099Y-137032825D01*
X120400920Y-136907641D01*
X120634269Y-136733588D01*
X120829178Y-136517355D01*
X120898805Y-136400466D01*
X121020525Y-136582632D01*
X121227368Y-136789475D01*
X121470589Y-136951990D01*
X121740842Y-137063932D01*
X122027740Y-137121000D01*
X122320260Y-137121000D01*
X122607158Y-137063932D01*
X122877411Y-136951990D01*
X123120632Y-136789475D01*
X123327475Y-136582632D01*
X123444000Y-136408240D01*
X123560525Y-136582632D01*
X123767368Y-136789475D01*
X124010589Y-136951990D01*
X124280842Y-137063932D01*
X124567740Y-137121000D01*
X124860260Y-137121000D01*
X125147158Y-137063932D01*
X125417411Y-136951990D01*
X125660632Y-136789475D01*
X125867475Y-136582632D01*
X125984000Y-136408240D01*
X126100525Y-136582632D01*
X126307368Y-136789475D01*
X126550589Y-136951990D01*
X126820842Y-137063932D01*
X127107740Y-137121000D01*
X127400260Y-137121000D01*
X127687158Y-137063932D01*
X127957411Y-136951990D01*
X128200632Y-136789475D01*
X128332487Y-136657620D01*
X128354498Y-136730180D01*
X128413463Y-136840494D01*
X128492815Y-136937185D01*
X128589506Y-137016537D01*
X128699820Y-137075502D01*
X128819518Y-137111812D01*
X128944000Y-137124072D01*
X130644000Y-137124072D01*
X130768482Y-137111812D01*
X130888180Y-137075502D01*
X130998494Y-137016537D01*
X131095185Y-136937185D01*
X131174537Y-136840494D01*
X131233502Y-136730180D01*
X131269812Y-136610482D01*
X131282072Y-136486000D01*
X131282072Y-136042061D01*
X132061000Y-136042061D01*
X132061000Y-136245939D01*
X132100774Y-136445898D01*
X132178795Y-136634256D01*
X132292063Y-136803774D01*
X132361001Y-136872712D01*
X132361000Y-137193289D01*
X132292063Y-137262226D01*
X132178795Y-137431744D01*
X132100774Y-137620102D01*
X132061000Y-137820061D01*
X132061000Y-138023939D01*
X132100774Y-138223898D01*
X132178795Y-138412256D01*
X132292063Y-138581774D01*
X132436226Y-138725937D01*
X132605744Y-138839205D01*
X132794102Y-138917226D01*
X132994061Y-138957000D01*
X133197939Y-138957000D01*
X133397898Y-138917226D01*
X133586256Y-138839205D01*
X133755774Y-138725937D01*
X133899937Y-138581774D01*
X134013205Y-138412256D01*
X134091226Y-138223898D01*
X134131000Y-138023939D01*
X134131000Y-137820061D01*
X134091226Y-137620102D01*
X134013205Y-137431744D01*
X133899937Y-137262226D01*
X133831000Y-137193289D01*
X133831000Y-136872711D01*
X133899937Y-136803774D01*
X134013205Y-136634256D01*
X134091226Y-136445898D01*
X134131000Y-136245939D01*
X134131000Y-136042061D01*
X134121220Y-135992891D01*
X141052519Y-135992891D01*
X141149843Y-136267252D01*
X141298822Y-136517355D01*
X141493731Y-136733588D01*
X141727080Y-136907641D01*
X141989901Y-137032825D01*
X142137110Y-137077476D01*
X142367000Y-136956155D01*
X142367000Y-135763000D01*
X141173186Y-135763000D01*
X141052519Y-135992891D01*
X134121220Y-135992891D01*
X134091226Y-135842102D01*
X134013205Y-135653744D01*
X133899937Y-135484226D01*
X133755774Y-135340063D01*
X133664550Y-135279109D01*
X141052519Y-135279109D01*
X141173186Y-135509000D01*
X142367000Y-135509000D01*
X142367000Y-134315845D01*
X142621000Y-134315845D01*
X142621000Y-135509000D01*
X142641000Y-135509000D01*
X142641000Y-135763000D01*
X142621000Y-135763000D01*
X142621000Y-136956155D01*
X142850890Y-137077476D01*
X142998099Y-137032825D01*
X143260920Y-136907641D01*
X143494269Y-136733588D01*
X143689178Y-136517355D01*
X143758805Y-136400466D01*
X143880525Y-136582632D01*
X144087368Y-136789475D01*
X144330589Y-136951990D01*
X144600842Y-137063932D01*
X144887740Y-137121000D01*
X145180260Y-137121000D01*
X145467158Y-137063932D01*
X145737411Y-136951990D01*
X145980632Y-136789475D01*
X146187475Y-136582632D01*
X146304000Y-136408240D01*
X146420525Y-136582632D01*
X146627368Y-136789475D01*
X146870589Y-136951990D01*
X147140842Y-137063932D01*
X147427740Y-137121000D01*
X147720260Y-137121000D01*
X148007158Y-137063932D01*
X148277411Y-136951990D01*
X148520632Y-136789475D01*
X148727475Y-136582632D01*
X148844000Y-136408240D01*
X148960525Y-136582632D01*
X149167368Y-136789475D01*
X149410589Y-136951990D01*
X149680842Y-137063932D01*
X149967740Y-137121000D01*
X150260260Y-137121000D01*
X150547158Y-137063932D01*
X150817411Y-136951990D01*
X151060632Y-136789475D01*
X151192487Y-136657620D01*
X151214498Y-136730180D01*
X151273463Y-136840494D01*
X151352815Y-136937185D01*
X151449506Y-137016537D01*
X151559820Y-137075502D01*
X151679518Y-137111812D01*
X151804000Y-137124072D01*
X153504000Y-137124072D01*
X153628482Y-137111812D01*
X153748180Y-137075502D01*
X153858494Y-137016537D01*
X153955185Y-136937185D01*
X154034537Y-136840494D01*
X154093502Y-136730180D01*
X154129812Y-136610482D01*
X154142072Y-136486000D01*
X154142072Y-134786000D01*
X154129812Y-134661518D01*
X154093502Y-134541820D01*
X154034537Y-134431506D01*
X153955185Y-134334815D01*
X153858494Y-134255463D01*
X153748180Y-134196498D01*
X153628482Y-134160188D01*
X153504000Y-134147928D01*
X151804000Y-134147928D01*
X151679518Y-134160188D01*
X151559820Y-134196498D01*
X151449506Y-134255463D01*
X151352815Y-134334815D01*
X151273463Y-134431506D01*
X151214498Y-134541820D01*
X151192487Y-134614380D01*
X151060632Y-134482525D01*
X150817411Y-134320010D01*
X150547158Y-134208068D01*
X150260260Y-134151000D01*
X149967740Y-134151000D01*
X149680842Y-134208068D01*
X149410589Y-134320010D01*
X149167368Y-134482525D01*
X148960525Y-134689368D01*
X148844000Y-134863760D01*
X148727475Y-134689368D01*
X148520632Y-134482525D01*
X148277411Y-134320010D01*
X148007158Y-134208068D01*
X147720260Y-134151000D01*
X147427740Y-134151000D01*
X147140842Y-134208068D01*
X146870589Y-134320010D01*
X146627368Y-134482525D01*
X146420525Y-134689368D01*
X146304000Y-134863760D01*
X146187475Y-134689368D01*
X145980632Y-134482525D01*
X145737411Y-134320010D01*
X145467158Y-134208068D01*
X145180260Y-134151000D01*
X144887740Y-134151000D01*
X144600842Y-134208068D01*
X144330589Y-134320010D01*
X144087368Y-134482525D01*
X143880525Y-134689368D01*
X143758805Y-134871534D01*
X143689178Y-134754645D01*
X143494269Y-134538412D01*
X143260920Y-134364359D01*
X142998099Y-134239175D01*
X142850890Y-134194524D01*
X142621000Y-134315845D01*
X142367000Y-134315845D01*
X142137110Y-134194524D01*
X141989901Y-134239175D01*
X141727080Y-134364359D01*
X141493731Y-134538412D01*
X141298822Y-134754645D01*
X141149843Y-135004748D01*
X141052519Y-135279109D01*
X133664550Y-135279109D01*
X133586256Y-135226795D01*
X133397898Y-135148774D01*
X133197939Y-135109000D01*
X132994061Y-135109000D01*
X132794102Y-135148774D01*
X132605744Y-135226795D01*
X132436226Y-135340063D01*
X132292063Y-135484226D01*
X132178795Y-135653744D01*
X132100774Y-135842102D01*
X132061000Y-136042061D01*
X131282072Y-136042061D01*
X131282072Y-134786000D01*
X131269812Y-134661518D01*
X131233502Y-134541820D01*
X131174537Y-134431506D01*
X131095185Y-134334815D01*
X130998494Y-134255463D01*
X130888180Y-134196498D01*
X130768482Y-134160188D01*
X130644000Y-134147928D01*
X128944000Y-134147928D01*
X128819518Y-134160188D01*
X128699820Y-134196498D01*
X128589506Y-134255463D01*
X128492815Y-134334815D01*
X128413463Y-134431506D01*
X128354498Y-134541820D01*
X128332487Y-134614380D01*
X128200632Y-134482525D01*
X127957411Y-134320010D01*
X127687158Y-134208068D01*
X127400260Y-134151000D01*
X127107740Y-134151000D01*
X126820842Y-134208068D01*
X126550589Y-134320010D01*
X126307368Y-134482525D01*
X126100525Y-134689368D01*
X125984000Y-134863760D01*
X125867475Y-134689368D01*
X125660632Y-134482525D01*
X125417411Y-134320010D01*
X125147158Y-134208068D01*
X124860260Y-134151000D01*
X124567740Y-134151000D01*
X124280842Y-134208068D01*
X124010589Y-134320010D01*
X123767368Y-134482525D01*
X123560525Y-134689368D01*
X123444000Y-134863760D01*
X123327475Y-134689368D01*
X123120632Y-134482525D01*
X122877411Y-134320010D01*
X122607158Y-134208068D01*
X122320260Y-134151000D01*
X122027740Y-134151000D01*
X121740842Y-134208068D01*
X121470589Y-134320010D01*
X121227368Y-134482525D01*
X121020525Y-134689368D01*
X120898805Y-134871534D01*
X120829178Y-134754645D01*
X120634269Y-134538412D01*
X120400920Y-134364359D01*
X120138099Y-134239175D01*
X119990890Y-134194524D01*
X119761000Y-134315845D01*
X119507000Y-134315845D01*
X119277110Y-134194524D01*
X119129901Y-134239175D01*
X118867080Y-134364359D01*
X118633731Y-134538412D01*
X118438822Y-134754645D01*
X118289843Y-135004748D01*
X118192519Y-135279109D01*
X103133219Y-135279109D01*
X103143000Y-135229939D01*
X103143000Y-135026061D01*
X103103226Y-134826102D01*
X103025205Y-134637744D01*
X102911937Y-134468226D01*
X102843000Y-134399289D01*
X102843000Y-133096000D01*
X177929509Y-133096000D01*
X177951423Y-133318498D01*
X178016324Y-133532446D01*
X178121717Y-133729622D01*
X178228012Y-133859143D01*
X180260009Y-135891141D01*
X180295551Y-135934449D01*
X180468377Y-136076284D01*
X180665553Y-136181676D01*
X180879501Y-136246577D01*
X181102000Y-136268491D01*
X181157751Y-136263000D01*
X181157752Y-136263000D01*
X181324499Y-136246577D01*
X181538447Y-136181676D01*
X181735623Y-136076284D01*
X181908449Y-135934449D01*
X182050284Y-135761623D01*
X182155676Y-135564447D01*
X182220577Y-135350499D01*
X182242491Y-135128000D01*
X182220577Y-134905501D01*
X182155676Y-134691553D01*
X182050284Y-134494377D01*
X181908449Y-134321551D01*
X181865141Y-134286009D01*
X179833143Y-132254012D01*
X179703622Y-132147717D01*
X179506446Y-132042324D01*
X179292498Y-131977423D01*
X179070000Y-131955509D01*
X178847502Y-131977423D01*
X178633554Y-132042324D01*
X178436378Y-132147717D01*
X178263552Y-132289552D01*
X178121717Y-132462378D01*
X178016324Y-132659554D01*
X177951423Y-132873502D01*
X177929509Y-133096000D01*
X102843000Y-133096000D01*
X102843000Y-131928891D01*
X201758519Y-131928891D01*
X201855843Y-132203252D01*
X202004822Y-132453355D01*
X202199731Y-132669588D01*
X202433080Y-132843641D01*
X202695901Y-132968825D01*
X202843110Y-133013476D01*
X203073000Y-132892155D01*
X203073000Y-131699000D01*
X201879186Y-131699000D01*
X201758519Y-131928891D01*
X102843000Y-131928891D01*
X102843000Y-131215109D01*
X201758519Y-131215109D01*
X201879186Y-131445000D01*
X203073000Y-131445000D01*
X203073000Y-130251845D01*
X203327000Y-130251845D01*
X203327000Y-131445000D01*
X203347000Y-131445000D01*
X203347000Y-131699000D01*
X203327000Y-131699000D01*
X203327000Y-132892155D01*
X203556890Y-133013476D01*
X203704099Y-132968825D01*
X203966920Y-132843641D01*
X204200269Y-132669588D01*
X204395178Y-132453355D01*
X204464805Y-132336466D01*
X204586525Y-132518632D01*
X204793368Y-132725475D01*
X205036589Y-132887990D01*
X205306842Y-132999932D01*
X205593740Y-133057000D01*
X205886260Y-133057000D01*
X206173158Y-132999932D01*
X206443411Y-132887990D01*
X206686632Y-132725475D01*
X206893475Y-132518632D01*
X207010000Y-132344240D01*
X207126525Y-132518632D01*
X207333368Y-132725475D01*
X207576589Y-132887990D01*
X207846842Y-132999932D01*
X208133740Y-133057000D01*
X208426260Y-133057000D01*
X208713158Y-132999932D01*
X208983411Y-132887990D01*
X209226632Y-132725475D01*
X209433475Y-132518632D01*
X209550000Y-132344240D01*
X209666525Y-132518632D01*
X209873368Y-132725475D01*
X210116589Y-132887990D01*
X210386842Y-132999932D01*
X210673740Y-133057000D01*
X210966260Y-133057000D01*
X211253158Y-132999932D01*
X211523411Y-132887990D01*
X211766632Y-132725475D01*
X211898487Y-132593620D01*
X211920498Y-132666180D01*
X211979463Y-132776494D01*
X212058815Y-132873185D01*
X212155506Y-132952537D01*
X212265820Y-133011502D01*
X212385518Y-133047812D01*
X212510000Y-133060072D01*
X214210000Y-133060072D01*
X214334482Y-133047812D01*
X214454180Y-133011502D01*
X214564494Y-132952537D01*
X214661185Y-132873185D01*
X214740537Y-132776494D01*
X214799502Y-132666180D01*
X214835812Y-132546482D01*
X214848072Y-132422000D01*
X214848072Y-130722000D01*
X214835812Y-130597518D01*
X214799502Y-130477820D01*
X214740537Y-130367506D01*
X214661185Y-130270815D01*
X214564494Y-130191463D01*
X214454180Y-130132498D01*
X214334482Y-130096188D01*
X214210000Y-130083928D01*
X212510000Y-130083928D01*
X212385518Y-130096188D01*
X212265820Y-130132498D01*
X212155506Y-130191463D01*
X212058815Y-130270815D01*
X211979463Y-130367506D01*
X211920498Y-130477820D01*
X211898487Y-130550380D01*
X211766632Y-130418525D01*
X211523411Y-130256010D01*
X211253158Y-130144068D01*
X210966260Y-130087000D01*
X210673740Y-130087000D01*
X210386842Y-130144068D01*
X210116589Y-130256010D01*
X209873368Y-130418525D01*
X209666525Y-130625368D01*
X209550000Y-130799760D01*
X209433475Y-130625368D01*
X209226632Y-130418525D01*
X208983411Y-130256010D01*
X208713158Y-130144068D01*
X208426260Y-130087000D01*
X208133740Y-130087000D01*
X207846842Y-130144068D01*
X207576589Y-130256010D01*
X207333368Y-130418525D01*
X207126525Y-130625368D01*
X207010000Y-130799760D01*
X206893475Y-130625368D01*
X206686632Y-130418525D01*
X206443411Y-130256010D01*
X206173158Y-130144068D01*
X205886260Y-130087000D01*
X205593740Y-130087000D01*
X205306842Y-130144068D01*
X205036589Y-130256010D01*
X204793368Y-130418525D01*
X204586525Y-130625368D01*
X204464805Y-130807534D01*
X204395178Y-130690645D01*
X204200269Y-130474412D01*
X203966920Y-130300359D01*
X203704099Y-130175175D01*
X203556890Y-130130524D01*
X203327000Y-130251845D01*
X203073000Y-130251845D01*
X202843110Y-130130524D01*
X202695901Y-130175175D01*
X202433080Y-130300359D01*
X202199731Y-130474412D01*
X202004822Y-130690645D01*
X201855843Y-130940748D01*
X201758519Y-131215109D01*
X102843000Y-131215109D01*
X102843000Y-130522711D01*
X102911937Y-130453774D01*
X103025205Y-130284256D01*
X103103226Y-130095898D01*
X103143000Y-129895939D01*
X103143000Y-129692061D01*
X103103226Y-129492102D01*
X103025205Y-129303744D01*
X102911937Y-129134226D01*
X102767774Y-128990063D01*
X102598256Y-128876795D01*
X102409898Y-128798774D01*
X102209939Y-128759000D01*
X102006061Y-128759000D01*
X101806102Y-128798774D01*
X101617744Y-128876795D01*
X101448226Y-128990063D01*
X101304063Y-129134226D01*
X101190795Y-129303744D01*
X101112774Y-129492102D01*
X101073000Y-129692061D01*
X85660000Y-129692061D01*
X85660000Y-121310061D01*
X101073000Y-121310061D01*
X101073000Y-121513939D01*
X101112774Y-121713898D01*
X101190795Y-121902256D01*
X101304063Y-122071774D01*
X101373001Y-122140712D01*
X101373000Y-122715289D01*
X101304063Y-122784226D01*
X101190795Y-122953744D01*
X101112774Y-123142102D01*
X101073000Y-123342061D01*
X101073000Y-123545939D01*
X101112774Y-123745898D01*
X101190795Y-123934256D01*
X101304063Y-124103774D01*
X101448226Y-124247937D01*
X101617744Y-124361205D01*
X101806102Y-124439226D01*
X102006061Y-124479000D01*
X102209939Y-124479000D01*
X102409898Y-124439226D01*
X102598256Y-124361205D01*
X102767774Y-124247937D01*
X102911937Y-124103774D01*
X103025205Y-123934256D01*
X103103226Y-123745898D01*
X103143000Y-123545939D01*
X103143000Y-123342061D01*
X103103226Y-123142102D01*
X103025205Y-122953744D01*
X102911937Y-122784226D01*
X102843000Y-122715289D01*
X102843000Y-122140711D01*
X102911937Y-122071774D01*
X103025205Y-121902256D01*
X103103226Y-121713898D01*
X103143000Y-121513939D01*
X103143000Y-121310061D01*
X103103226Y-121110102D01*
X103025205Y-120921744D01*
X102911937Y-120752226D01*
X102767774Y-120608063D01*
X102598256Y-120494795D01*
X102409898Y-120416774D01*
X102209939Y-120377000D01*
X102006061Y-120377000D01*
X101806102Y-120416774D01*
X101617744Y-120494795D01*
X101448226Y-120608063D01*
X101304063Y-120752226D01*
X101190795Y-120921744D01*
X101112774Y-121110102D01*
X101073000Y-121310061D01*
X85660000Y-121310061D01*
X85660000Y-111658061D01*
X92437000Y-111658061D01*
X92437000Y-111861939D01*
X92476774Y-112061898D01*
X92554795Y-112250256D01*
X92668063Y-112419774D01*
X92737001Y-112488712D01*
X92737000Y-115349289D01*
X92668063Y-115418226D01*
X92554795Y-115587744D01*
X92476774Y-115776102D01*
X92437000Y-115976061D01*
X92437000Y-116179939D01*
X92476774Y-116379898D01*
X92554795Y-116568256D01*
X92668063Y-116737774D01*
X92812226Y-116881937D01*
X92981744Y-116995205D01*
X93170102Y-117073226D01*
X93370061Y-117113000D01*
X93573939Y-117113000D01*
X93773898Y-117073226D01*
X93962256Y-116995205D01*
X94131774Y-116881937D01*
X94275937Y-116737774D01*
X94389205Y-116568256D01*
X94467226Y-116379898D01*
X94507000Y-116179939D01*
X94507000Y-115976061D01*
X94467226Y-115776102D01*
X94389205Y-115587744D01*
X94275937Y-115418226D01*
X94207000Y-115349289D01*
X94207000Y-113182061D01*
X101073000Y-113182061D01*
X101073000Y-113385939D01*
X101112774Y-113585898D01*
X101190795Y-113774256D01*
X101304063Y-113943774D01*
X101373001Y-114012712D01*
X101373000Y-117889289D01*
X101304063Y-117958226D01*
X101190795Y-118127744D01*
X101112774Y-118316102D01*
X101073000Y-118516061D01*
X101073000Y-118719939D01*
X101112774Y-118919898D01*
X101190795Y-119108256D01*
X101304063Y-119277774D01*
X101448226Y-119421937D01*
X101617744Y-119535205D01*
X101806102Y-119613226D01*
X102006061Y-119653000D01*
X102209939Y-119653000D01*
X102409898Y-119613226D01*
X102598256Y-119535205D01*
X102767774Y-119421937D01*
X102911937Y-119277774D01*
X103025205Y-119108256D01*
X103103226Y-118919898D01*
X103143000Y-118719939D01*
X103143000Y-118516061D01*
X103103226Y-118316102D01*
X103025205Y-118127744D01*
X102911937Y-117958226D01*
X102843000Y-117889289D01*
X102843000Y-114012711D01*
X102911650Y-113944061D01*
X107169000Y-113944061D01*
X107169000Y-114147939D01*
X107208774Y-114347898D01*
X107286795Y-114536256D01*
X107400063Y-114705774D01*
X107469001Y-114774712D01*
X107469000Y-117635289D01*
X107400063Y-117704226D01*
X107286795Y-117873744D01*
X107208774Y-118062102D01*
X107169000Y-118262061D01*
X107169000Y-118465939D01*
X107208774Y-118665898D01*
X107286795Y-118854256D01*
X107400063Y-119023774D01*
X107469001Y-119092712D01*
X107469000Y-121699289D01*
X107400063Y-121768226D01*
X107286795Y-121937744D01*
X107208774Y-122126102D01*
X107169000Y-122326061D01*
X107169000Y-122529939D01*
X107208774Y-122729898D01*
X107286795Y-122918256D01*
X107400063Y-123087774D01*
X107544226Y-123231937D01*
X107713744Y-123345205D01*
X107902102Y-123423226D01*
X108102061Y-123463000D01*
X108305939Y-123463000D01*
X108505898Y-123423226D01*
X108694256Y-123345205D01*
X108863774Y-123231937D01*
X109007937Y-123087774D01*
X109121205Y-122918256D01*
X109199226Y-122729898D01*
X109239000Y-122529939D01*
X109239000Y-122326061D01*
X109199226Y-122126102D01*
X109121205Y-121937744D01*
X109007937Y-121768226D01*
X108939000Y-121699289D01*
X108939000Y-119092711D01*
X109007937Y-119023774D01*
X109121205Y-118854256D01*
X109199226Y-118665898D01*
X109239000Y-118465939D01*
X109239000Y-118262061D01*
X109199226Y-118062102D01*
X109121205Y-117873744D01*
X109007937Y-117704226D01*
X108939000Y-117635289D01*
X108939000Y-117246061D01*
X110217000Y-117246061D01*
X110217000Y-117449939D01*
X110256774Y-117649898D01*
X110334795Y-117838256D01*
X110448063Y-118007774D01*
X110517001Y-118076712D01*
X110517000Y-126779289D01*
X110448063Y-126848226D01*
X110334795Y-127017744D01*
X110256774Y-127206102D01*
X110217000Y-127406061D01*
X110217000Y-127609939D01*
X110256774Y-127809898D01*
X110334795Y-127998256D01*
X110448063Y-128167774D01*
X110592226Y-128311937D01*
X110761744Y-128425205D01*
X110950102Y-128503226D01*
X111150061Y-128543000D01*
X111353939Y-128543000D01*
X111553898Y-128503226D01*
X111742256Y-128425205D01*
X111911774Y-128311937D01*
X112055937Y-128167774D01*
X112169205Y-127998256D01*
X112247226Y-127809898D01*
X112287000Y-127609939D01*
X112287000Y-127406061D01*
X112247226Y-127206102D01*
X112169205Y-127017744D01*
X112055937Y-126848226D01*
X111987000Y-126779289D01*
X111987000Y-121564061D01*
X113519000Y-121564061D01*
X113519000Y-121767939D01*
X113558774Y-121967898D01*
X113636795Y-122156256D01*
X113750063Y-122325774D01*
X113819001Y-122394712D01*
X113819000Y-123731289D01*
X113750063Y-123800226D01*
X113636795Y-123969744D01*
X113558774Y-124158102D01*
X113519000Y-124358061D01*
X113519000Y-124561939D01*
X113558774Y-124761898D01*
X113636795Y-124950256D01*
X113750063Y-125119774D01*
X113894226Y-125263937D01*
X114063744Y-125377205D01*
X114252102Y-125455226D01*
X114452061Y-125495000D01*
X114569026Y-125495000D01*
X114574774Y-125523898D01*
X114652795Y-125712256D01*
X114766063Y-125881774D01*
X114910226Y-126025937D01*
X115079744Y-126139205D01*
X115268102Y-126217226D01*
X115468061Y-126257000D01*
X115551000Y-126257000D01*
X115551000Y-126339939D01*
X115590774Y-126539898D01*
X115668795Y-126728256D01*
X115782063Y-126897774D01*
X115926226Y-127041937D01*
X116095744Y-127155205D01*
X116284102Y-127233226D01*
X116484061Y-127273000D01*
X116687939Y-127273000D01*
X116887898Y-127233226D01*
X117076256Y-127155205D01*
X117245774Y-127041937D01*
X117389937Y-126897774D01*
X117503205Y-126728256D01*
X117581226Y-126539898D01*
X117621000Y-126339939D01*
X117621000Y-126136061D01*
X117581226Y-125936102D01*
X117503205Y-125747744D01*
X117389937Y-125578226D01*
X117321000Y-125509289D01*
X117321000Y-125374061D01*
X164573000Y-125374061D01*
X164573000Y-125577939D01*
X164612774Y-125777898D01*
X164690795Y-125966256D01*
X164804063Y-126135774D01*
X164873001Y-126204712D01*
X164873000Y-127287289D01*
X164804063Y-127356226D01*
X164690795Y-127525744D01*
X164612774Y-127714102D01*
X164573000Y-127914061D01*
X164573000Y-128117939D01*
X164612774Y-128317898D01*
X164690795Y-128506256D01*
X164804063Y-128675774D01*
X164948226Y-128819937D01*
X165117744Y-128933205D01*
X165306102Y-129011226D01*
X165506061Y-129051000D01*
X165709939Y-129051000D01*
X165909898Y-129011226D01*
X166098256Y-128933205D01*
X166267774Y-128819937D01*
X166411937Y-128675774D01*
X166525205Y-128506256D01*
X166603226Y-128317898D01*
X166643000Y-128117939D01*
X166643000Y-127914061D01*
X166603226Y-127714102D01*
X166525205Y-127525744D01*
X166411937Y-127356226D01*
X166343000Y-127287289D01*
X166343000Y-127254000D01*
X196217509Y-127254000D01*
X196239423Y-127476498D01*
X196304324Y-127690446D01*
X196409717Y-127887622D01*
X196551552Y-128060448D01*
X196724378Y-128202283D01*
X196921554Y-128307676D01*
X197135502Y-128372577D01*
X197358000Y-128394491D01*
X197580498Y-128372577D01*
X197794446Y-128307676D01*
X197991622Y-128202283D01*
X198121143Y-128095988D01*
X202439141Y-123777991D01*
X202482449Y-123742449D01*
X202624284Y-123569623D01*
X202729676Y-123372447D01*
X202794577Y-123158499D01*
X202816491Y-122936000D01*
X202794577Y-122713501D01*
X202729676Y-122499553D01*
X202624284Y-122302377D01*
X202482449Y-122129551D01*
X202309623Y-121987716D01*
X202112447Y-121882324D01*
X201898499Y-121817423D01*
X201731752Y-121801000D01*
X201731743Y-121801000D01*
X201675999Y-121795510D01*
X201620255Y-121801000D01*
X201620248Y-121801000D01*
X201474493Y-121815356D01*
X201453500Y-121817423D01*
X201403705Y-121832529D01*
X201239553Y-121882324D01*
X201042377Y-121987716D01*
X200869551Y-122129551D01*
X200834009Y-122172859D01*
X196516012Y-126490857D01*
X196409717Y-126620378D01*
X196304324Y-126817554D01*
X196239423Y-127031502D01*
X196217509Y-127254000D01*
X166343000Y-127254000D01*
X166343000Y-126204711D01*
X166411937Y-126135774D01*
X166525205Y-125966256D01*
X166603226Y-125777898D01*
X166643000Y-125577939D01*
X166643000Y-125374061D01*
X166603226Y-125174102D01*
X166525205Y-124985744D01*
X166411937Y-124816226D01*
X166267774Y-124672063D01*
X166098256Y-124558795D01*
X165909898Y-124480774D01*
X165805460Y-124460000D01*
X180977509Y-124460000D01*
X180999423Y-124682498D01*
X181064324Y-124896446D01*
X181169717Y-125093622D01*
X181311552Y-125266448D01*
X181484378Y-125408283D01*
X181681554Y-125513676D01*
X181895502Y-125578577D01*
X182118000Y-125600491D01*
X182340498Y-125578577D01*
X182554446Y-125513676D01*
X182751622Y-125408283D01*
X182881143Y-125301988D01*
X185675146Y-122507987D01*
X185718449Y-122472449D01*
X185770521Y-122409000D01*
X185860284Y-122299623D01*
X185965676Y-122102447D01*
X186030577Y-121888499D01*
X186052491Y-121666000D01*
X186030577Y-121443501D01*
X185965676Y-121229553D01*
X185860284Y-121032377D01*
X185718449Y-120859551D01*
X185545623Y-120717716D01*
X185348447Y-120612324D01*
X185134499Y-120547423D01*
X184912000Y-120525509D01*
X184689501Y-120547423D01*
X184475553Y-120612324D01*
X184278377Y-120717716D01*
X184148856Y-120824011D01*
X184148854Y-120824013D01*
X184105551Y-120859551D01*
X184070013Y-120902854D01*
X181276012Y-123696857D01*
X181169717Y-123826378D01*
X181064324Y-124023554D01*
X180999423Y-124237502D01*
X180977509Y-124460000D01*
X165805460Y-124460000D01*
X165709939Y-124441000D01*
X165506061Y-124441000D01*
X165306102Y-124480774D01*
X165117744Y-124558795D01*
X164948226Y-124672063D01*
X164804063Y-124816226D01*
X164690795Y-124985744D01*
X164612774Y-125174102D01*
X164573000Y-125374061D01*
X117321000Y-125374061D01*
X117321000Y-124426711D01*
X117389937Y-124357774D01*
X117503205Y-124188256D01*
X117581226Y-123999898D01*
X117621000Y-123799939D01*
X117621000Y-123596061D01*
X117581226Y-123396102D01*
X117503205Y-123207744D01*
X117389937Y-123038226D01*
X117245774Y-122894063D01*
X117076256Y-122780795D01*
X116887898Y-122702774D01*
X116687939Y-122663000D01*
X116605000Y-122663000D01*
X116605000Y-122580061D01*
X116565226Y-122380102D01*
X116487205Y-122191744D01*
X116373937Y-122022226D01*
X116229774Y-121878063D01*
X116060256Y-121764795D01*
X115871898Y-121686774D01*
X115671939Y-121647000D01*
X115589000Y-121647000D01*
X115589000Y-121564061D01*
X115549226Y-121364102D01*
X115471205Y-121175744D01*
X115357937Y-121006226D01*
X115213774Y-120862063D01*
X115044256Y-120748795D01*
X114855898Y-120670774D01*
X114655939Y-120631000D01*
X114452061Y-120631000D01*
X114252102Y-120670774D01*
X114063744Y-120748795D01*
X113894226Y-120862063D01*
X113750063Y-121006226D01*
X113636795Y-121175744D01*
X113558774Y-121364102D01*
X113519000Y-121564061D01*
X111987000Y-121564061D01*
X111987000Y-118076711D01*
X112055937Y-118007774D01*
X112169205Y-117838256D01*
X112247226Y-117649898D01*
X112287000Y-117449939D01*
X112287000Y-117246061D01*
X112247226Y-117046102D01*
X112169205Y-116857744D01*
X112055937Y-116688226D01*
X111911774Y-116544063D01*
X111742256Y-116430795D01*
X111553898Y-116352774D01*
X111353939Y-116313000D01*
X111150061Y-116313000D01*
X110950102Y-116352774D01*
X110761744Y-116430795D01*
X110592226Y-116544063D01*
X110448063Y-116688226D01*
X110334795Y-116857744D01*
X110256774Y-117046102D01*
X110217000Y-117246061D01*
X108939000Y-117246061D01*
X108939000Y-114774711D01*
X109007937Y-114705774D01*
X109121205Y-114536256D01*
X109199226Y-114347898D01*
X109239000Y-114147939D01*
X109239000Y-113944061D01*
X109199226Y-113744102D01*
X109121205Y-113555744D01*
X109007937Y-113386226D01*
X108863774Y-113242063D01*
X108694256Y-113128795D01*
X108505898Y-113050774D01*
X108305939Y-113011000D01*
X108102061Y-113011000D01*
X107902102Y-113050774D01*
X107713744Y-113128795D01*
X107544226Y-113242063D01*
X107400063Y-113386226D01*
X107286795Y-113555744D01*
X107208774Y-113744102D01*
X107169000Y-113944061D01*
X102911650Y-113944061D01*
X102911937Y-113943774D01*
X103025205Y-113774256D01*
X103103226Y-113585898D01*
X103143000Y-113385939D01*
X103143000Y-113182061D01*
X103103226Y-112982102D01*
X103025205Y-112793744D01*
X102911937Y-112624226D01*
X102767774Y-112480063D01*
X102598256Y-112366795D01*
X102409898Y-112288774D01*
X102209939Y-112249000D01*
X102006061Y-112249000D01*
X101806102Y-112288774D01*
X101617744Y-112366795D01*
X101448226Y-112480063D01*
X101304063Y-112624226D01*
X101190795Y-112793744D01*
X101112774Y-112982102D01*
X101073000Y-113182061D01*
X94207000Y-113182061D01*
X94207000Y-112488711D01*
X94275937Y-112419774D01*
X94389205Y-112250256D01*
X94467226Y-112061898D01*
X94507000Y-111861939D01*
X94507000Y-111658061D01*
X94467226Y-111458102D01*
X94389205Y-111269744D01*
X94275937Y-111100226D01*
X94131774Y-110956063D01*
X93962256Y-110842795D01*
X93773898Y-110764774D01*
X93573939Y-110725000D01*
X93370061Y-110725000D01*
X93170102Y-110764774D01*
X92981744Y-110842795D01*
X92812226Y-110956063D01*
X92668063Y-111100226D01*
X92554795Y-111269744D01*
X92476774Y-111458102D01*
X92437000Y-111658061D01*
X85660000Y-111658061D01*
X85660000Y-110388061D01*
X127743000Y-110388061D01*
X127743000Y-110591939D01*
X127782774Y-110791898D01*
X127860795Y-110980256D01*
X127974063Y-111149774D01*
X128043001Y-111218712D01*
X128043000Y-115905582D01*
X128039444Y-115941687D01*
X128052870Y-116078000D01*
X128053635Y-116085771D01*
X128095663Y-116224319D01*
X128163913Y-116352006D01*
X128255762Y-116463924D01*
X128283808Y-116486941D01*
X131447060Y-119650194D01*
X131470076Y-119678239D01*
X131581994Y-119770088D01*
X131709681Y-119838338D01*
X131805775Y-119867488D01*
X131898225Y-119959938D01*
X132067743Y-120073206D01*
X132256101Y-120151227D01*
X132456060Y-120191001D01*
X132659938Y-120191001D01*
X132859897Y-120151227D01*
X133048255Y-120073206D01*
X133123001Y-120023263D01*
X133123000Y-120778692D01*
X133078256Y-120748795D01*
X132889898Y-120670774D01*
X132689939Y-120631000D01*
X132486061Y-120631000D01*
X132286102Y-120670774D01*
X132097744Y-120748795D01*
X131928226Y-120862063D01*
X131784063Y-121006226D01*
X131670795Y-121175744D01*
X131592774Y-121364102D01*
X131553000Y-121564061D01*
X131553000Y-121767939D01*
X131592774Y-121967898D01*
X131670795Y-122156256D01*
X131784063Y-122325774D01*
X131853001Y-122394712D01*
X131853000Y-122969289D01*
X131784063Y-123038226D01*
X131670795Y-123207744D01*
X131592774Y-123396102D01*
X131553000Y-123596061D01*
X131553000Y-123799939D01*
X131592774Y-123999898D01*
X131670795Y-124188256D01*
X131784063Y-124357774D01*
X131928226Y-124501937D01*
X132097744Y-124615205D01*
X132286102Y-124693226D01*
X132486061Y-124733000D01*
X132689939Y-124733000D01*
X132889898Y-124693226D01*
X133078256Y-124615205D01*
X133223000Y-124518490D01*
X133367744Y-124615205D01*
X133556102Y-124693226D01*
X133756061Y-124733000D01*
X133959939Y-124733000D01*
X134159898Y-124693226D01*
X134348256Y-124615205D01*
X134517774Y-124501937D01*
X134661937Y-124357774D01*
X134775205Y-124188256D01*
X134853226Y-123999898D01*
X134893000Y-123799939D01*
X134893000Y-123596061D01*
X134853226Y-123396102D01*
X134775205Y-123207744D01*
X134661937Y-123038226D01*
X134593000Y-122969289D01*
X134593000Y-117822711D01*
X134661937Y-117753774D01*
X134775205Y-117584256D01*
X134853226Y-117395898D01*
X134893000Y-117195939D01*
X134893000Y-116992061D01*
X134857383Y-116813000D01*
X138139895Y-116813000D01*
X138176000Y-116816556D01*
X138212105Y-116813000D01*
X138320085Y-116802365D01*
X138458633Y-116760337D01*
X138586320Y-116692087D01*
X138698238Y-116600238D01*
X138721259Y-116572187D01*
X142498447Y-112795000D01*
X142595939Y-112795000D01*
X142795898Y-112755226D01*
X142984256Y-112677205D01*
X143153774Y-112563937D01*
X143297937Y-112419774D01*
X143411205Y-112250256D01*
X143489226Y-112061898D01*
X143529000Y-111861939D01*
X143529000Y-111658061D01*
X143489226Y-111458102D01*
X143411205Y-111269744D01*
X143297937Y-111100226D01*
X143153774Y-110956063D01*
X142984256Y-110842795D01*
X142795898Y-110764774D01*
X142595939Y-110725000D01*
X142392061Y-110725000D01*
X142192102Y-110764774D01*
X142003744Y-110842795D01*
X141834226Y-110956063D01*
X141690063Y-111100226D01*
X141576795Y-111269744D01*
X141498774Y-111458102D01*
X141459000Y-111658061D01*
X141459000Y-111755553D01*
X137871554Y-115343000D01*
X131205013Y-115343000D01*
X131172006Y-115315912D01*
X131044319Y-115247662D01*
X130948225Y-115218512D01*
X130855775Y-115126062D01*
X130686257Y-115012794D01*
X130497899Y-114934773D01*
X130297940Y-114894999D01*
X130094062Y-114894999D01*
X129894103Y-114934773D01*
X129705745Y-115012794D01*
X129536227Y-115126062D01*
X129513000Y-115149289D01*
X129513000Y-111218711D01*
X129581937Y-111149774D01*
X129695205Y-110980256D01*
X129773226Y-110791898D01*
X129813000Y-110591939D01*
X129813000Y-110388061D01*
X146539000Y-110388061D01*
X146539000Y-110591939D01*
X146578774Y-110791898D01*
X146656795Y-110980256D01*
X146770063Y-111149774D01*
X146839001Y-111218712D01*
X146839000Y-112301289D01*
X146770063Y-112370226D01*
X146656795Y-112539744D01*
X146578774Y-112728102D01*
X146539000Y-112928061D01*
X146539000Y-113131939D01*
X146578774Y-113331898D01*
X146656795Y-113520256D01*
X146770063Y-113689774D01*
X146914226Y-113833937D01*
X147083744Y-113947205D01*
X147272102Y-114025226D01*
X147472061Y-114065000D01*
X147675939Y-114065000D01*
X147875898Y-114025226D01*
X148064256Y-113947205D01*
X148233774Y-113833937D01*
X148377937Y-113689774D01*
X148491205Y-113520256D01*
X148569226Y-113331898D01*
X148609000Y-113131939D01*
X148609000Y-112928061D01*
X148569226Y-112728102D01*
X148491205Y-112539744D01*
X148377937Y-112370226D01*
X148309000Y-112301289D01*
X148309000Y-111218711D01*
X148377937Y-111149774D01*
X148491205Y-110980256D01*
X148569226Y-110791898D01*
X148609000Y-110591939D01*
X148609000Y-110388061D01*
X149079000Y-110388061D01*
X149079000Y-110591939D01*
X149118774Y-110791898D01*
X149196795Y-110980256D01*
X149310063Y-111149774D01*
X149379001Y-111218712D01*
X149379000Y-112301289D01*
X149310063Y-112370226D01*
X149196795Y-112539744D01*
X149118774Y-112728102D01*
X149079000Y-112928061D01*
X149079000Y-113131939D01*
X149118774Y-113331898D01*
X149196795Y-113520256D01*
X149310063Y-113689774D01*
X149454226Y-113833937D01*
X149623744Y-113947205D01*
X149812102Y-114025226D01*
X150012061Y-114065000D01*
X150215939Y-114065000D01*
X150415898Y-114025226D01*
X150604256Y-113947205D01*
X150622000Y-113935349D01*
X150639744Y-113947205D01*
X150828102Y-114025226D01*
X151028061Y-114065000D01*
X151231939Y-114065000D01*
X151431898Y-114025226D01*
X151620256Y-113947205D01*
X151789774Y-113833937D01*
X151933937Y-113689774D01*
X152047205Y-113520256D01*
X152125226Y-113331898D01*
X152165000Y-113131939D01*
X152165000Y-112928061D01*
X152125226Y-112728102D01*
X152047205Y-112539744D01*
X151933937Y-112370226D01*
X151865000Y-112301289D01*
X151865000Y-111218711D01*
X151933937Y-111149774D01*
X152047205Y-110980256D01*
X152125226Y-110791898D01*
X152165000Y-110591939D01*
X152165000Y-110388061D01*
X152125226Y-110188102D01*
X152047205Y-109999744D01*
X151933937Y-109830226D01*
X151789774Y-109686063D01*
X151620256Y-109572795D01*
X151431898Y-109494774D01*
X151231939Y-109455000D01*
X151028061Y-109455000D01*
X150828102Y-109494774D01*
X150639744Y-109572795D01*
X150622000Y-109584651D01*
X150604256Y-109572795D01*
X150415898Y-109494774D01*
X150215939Y-109455000D01*
X150012061Y-109455000D01*
X149812102Y-109494774D01*
X149623744Y-109572795D01*
X149454226Y-109686063D01*
X149310063Y-109830226D01*
X149196795Y-109999744D01*
X149118774Y-110188102D01*
X149079000Y-110388061D01*
X148609000Y-110388061D01*
X148569226Y-110188102D01*
X148491205Y-109999744D01*
X148377937Y-109830226D01*
X148233774Y-109686063D01*
X148064256Y-109572795D01*
X147875898Y-109494774D01*
X147675939Y-109455000D01*
X147472061Y-109455000D01*
X147272102Y-109494774D01*
X147083744Y-109572795D01*
X146914226Y-109686063D01*
X146770063Y-109830226D01*
X146656795Y-109999744D01*
X146578774Y-110188102D01*
X146539000Y-110388061D01*
X129813000Y-110388061D01*
X129773226Y-110188102D01*
X129695205Y-109999744D01*
X129581937Y-109830226D01*
X129437774Y-109686063D01*
X129268256Y-109572795D01*
X129079898Y-109494774D01*
X128879939Y-109455000D01*
X128676061Y-109455000D01*
X128476102Y-109494774D01*
X128287744Y-109572795D01*
X128118226Y-109686063D01*
X127974063Y-109830226D01*
X127860795Y-109999744D01*
X127782774Y-110188102D01*
X127743000Y-110388061D01*
X85660000Y-110388061D01*
X85660000Y-108356061D01*
X164573000Y-108356061D01*
X164573000Y-108559939D01*
X164612774Y-108759898D01*
X164690795Y-108948256D01*
X164804063Y-109117774D01*
X164873001Y-109186712D01*
X164873000Y-110015289D01*
X164804063Y-110084226D01*
X164690795Y-110253744D01*
X164612774Y-110442102D01*
X164573000Y-110642061D01*
X164573000Y-110845939D01*
X164612774Y-111045898D01*
X164690795Y-111234256D01*
X164804063Y-111403774D01*
X164948226Y-111547937D01*
X165117744Y-111661205D01*
X165306102Y-111739226D01*
X165506061Y-111779000D01*
X165709939Y-111779000D01*
X165909898Y-111739226D01*
X166098256Y-111661205D01*
X166267774Y-111547937D01*
X166411937Y-111403774D01*
X166525205Y-111234256D01*
X166603226Y-111045898D01*
X166643000Y-110845939D01*
X166643000Y-110642061D01*
X170415000Y-110642061D01*
X170415000Y-110845939D01*
X170454774Y-111045898D01*
X170532795Y-111234256D01*
X170646063Y-111403774D01*
X170715001Y-111472712D01*
X170715000Y-113063289D01*
X170646063Y-113132226D01*
X170532795Y-113301744D01*
X170454774Y-113490102D01*
X170415000Y-113690061D01*
X170415000Y-113893939D01*
X170454774Y-114093898D01*
X170532795Y-114282256D01*
X170646063Y-114451774D01*
X170790226Y-114595937D01*
X170959744Y-114709205D01*
X171148102Y-114787226D01*
X171348061Y-114827000D01*
X171551939Y-114827000D01*
X171751898Y-114787226D01*
X171940256Y-114709205D01*
X172109774Y-114595937D01*
X172253937Y-114451774D01*
X172367205Y-114282256D01*
X172445226Y-114093898D01*
X172485000Y-113893939D01*
X172485000Y-113690061D01*
X172445226Y-113490102D01*
X172367205Y-113301744D01*
X172253937Y-113132226D01*
X172185000Y-113063289D01*
X172185000Y-111472711D01*
X172253937Y-111403774D01*
X172367205Y-111234256D01*
X172445226Y-111045898D01*
X172485000Y-110845939D01*
X172485000Y-110642061D01*
X172445226Y-110442102D01*
X172367205Y-110253744D01*
X172253937Y-110084226D01*
X172109774Y-109940063D01*
X171940256Y-109826795D01*
X171751898Y-109748774D01*
X171551939Y-109709000D01*
X171348061Y-109709000D01*
X171148102Y-109748774D01*
X170959744Y-109826795D01*
X170790226Y-109940063D01*
X170646063Y-110084226D01*
X170532795Y-110253744D01*
X170454774Y-110442102D01*
X170415000Y-110642061D01*
X166643000Y-110642061D01*
X166603226Y-110442102D01*
X166525205Y-110253744D01*
X166411937Y-110084226D01*
X166343000Y-110015289D01*
X166343000Y-109285159D01*
X204324000Y-109285159D01*
X204324000Y-109958841D01*
X204455429Y-110619577D01*
X204713235Y-111241978D01*
X205087512Y-111802123D01*
X205563877Y-112278488D01*
X206124022Y-112652765D01*
X206746423Y-112910571D01*
X207407159Y-113042000D01*
X208080841Y-113042000D01*
X208741577Y-112910571D01*
X209363978Y-112652765D01*
X209924123Y-112278488D01*
X210400488Y-111802123D01*
X210774765Y-111241978D01*
X211032571Y-110619577D01*
X211164000Y-109958841D01*
X211164000Y-109285159D01*
X211032571Y-108624423D01*
X210774765Y-108002022D01*
X210400488Y-107441877D01*
X209924123Y-106965512D01*
X209363978Y-106591235D01*
X208741577Y-106333429D01*
X208080841Y-106202000D01*
X207407159Y-106202000D01*
X206746423Y-106333429D01*
X206124022Y-106591235D01*
X205563877Y-106965512D01*
X205087512Y-107441877D01*
X204713235Y-108002022D01*
X204455429Y-108624423D01*
X204324000Y-109285159D01*
X166343000Y-109285159D01*
X166343000Y-109186711D01*
X166411937Y-109117774D01*
X166525205Y-108948256D01*
X166603226Y-108759898D01*
X166643000Y-108559939D01*
X166643000Y-108356061D01*
X166603226Y-108156102D01*
X166525205Y-107967744D01*
X166411937Y-107798226D01*
X166267774Y-107654063D01*
X166098256Y-107540795D01*
X165909898Y-107462774D01*
X165709939Y-107423000D01*
X165506061Y-107423000D01*
X165306102Y-107462774D01*
X165117744Y-107540795D01*
X164948226Y-107654063D01*
X164804063Y-107798226D01*
X164690795Y-107967744D01*
X164612774Y-108156102D01*
X164573000Y-108356061D01*
X85660000Y-108356061D01*
X85660000Y-89066000D01*
X87665928Y-89066000D01*
X87665928Y-90766000D01*
X87678188Y-90890482D01*
X87714498Y-91010180D01*
X87773463Y-91120494D01*
X87852815Y-91217185D01*
X87949506Y-91296537D01*
X88059820Y-91355502D01*
X88179518Y-91391812D01*
X88304000Y-91404072D01*
X90004000Y-91404072D01*
X90128482Y-91391812D01*
X90248180Y-91355502D01*
X90358494Y-91296537D01*
X90455185Y-91217185D01*
X90534537Y-91120494D01*
X90554011Y-91084061D01*
X92437000Y-91084061D01*
X92437000Y-91287939D01*
X92476774Y-91487898D01*
X92554795Y-91676256D01*
X92668063Y-91845774D01*
X92737001Y-91914712D01*
X92737000Y-95029289D01*
X92668063Y-95098226D01*
X92554795Y-95267744D01*
X92476774Y-95456102D01*
X92437000Y-95656061D01*
X92437000Y-95859939D01*
X92476774Y-96059898D01*
X92554795Y-96248256D01*
X92668063Y-96417774D01*
X92812226Y-96561937D01*
X92981744Y-96675205D01*
X93170102Y-96753226D01*
X93370061Y-96793000D01*
X93573939Y-96793000D01*
X93773898Y-96753226D01*
X93962256Y-96675205D01*
X94131774Y-96561937D01*
X94275937Y-96417774D01*
X94389205Y-96248256D01*
X94467226Y-96059898D01*
X94507000Y-95859939D01*
X94507000Y-95656061D01*
X94467226Y-95456102D01*
X94389205Y-95267744D01*
X94275937Y-95098226D01*
X94207000Y-95029289D01*
X94207000Y-92862061D01*
X101073000Y-92862061D01*
X101073000Y-93065939D01*
X101112774Y-93265898D01*
X101190795Y-93454256D01*
X101304063Y-93623774D01*
X101373001Y-93692712D01*
X101373000Y-97569289D01*
X101304063Y-97638226D01*
X101190795Y-97807744D01*
X101112774Y-97996102D01*
X101073000Y-98196061D01*
X101073000Y-98399939D01*
X101112774Y-98599898D01*
X101190795Y-98788256D01*
X101304063Y-98957774D01*
X101448226Y-99101937D01*
X101617744Y-99215205D01*
X101806102Y-99293226D01*
X102006061Y-99333000D01*
X102209939Y-99333000D01*
X102409898Y-99293226D01*
X102598256Y-99215205D01*
X102767774Y-99101937D01*
X102911937Y-98957774D01*
X103025205Y-98788256D01*
X103103226Y-98599898D01*
X103143000Y-98399939D01*
X103143000Y-98196061D01*
X103103226Y-97996102D01*
X103025205Y-97807744D01*
X102911937Y-97638226D01*
X102843000Y-97569289D01*
X102843000Y-93692711D01*
X102911937Y-93623774D01*
X103025205Y-93454256D01*
X103060079Y-93370061D01*
X107169000Y-93370061D01*
X107169000Y-93573939D01*
X107208774Y-93773898D01*
X107286795Y-93962256D01*
X107400063Y-94131774D01*
X107469001Y-94200712D01*
X107469000Y-97315289D01*
X107400063Y-97384226D01*
X107286795Y-97553744D01*
X107208774Y-97742102D01*
X107169000Y-97942061D01*
X107169000Y-98145939D01*
X107208774Y-98345898D01*
X107286795Y-98534256D01*
X107400063Y-98703774D01*
X107469001Y-98772712D01*
X107469000Y-101379289D01*
X107400063Y-101448226D01*
X107286795Y-101617744D01*
X107208774Y-101806102D01*
X107169000Y-102006061D01*
X107169000Y-102209939D01*
X107208774Y-102409898D01*
X107286795Y-102598256D01*
X107400063Y-102767774D01*
X107544226Y-102911937D01*
X107713744Y-103025205D01*
X107902102Y-103103226D01*
X108102061Y-103143000D01*
X108305939Y-103143000D01*
X108505898Y-103103226D01*
X108694256Y-103025205D01*
X108863774Y-102911937D01*
X109007937Y-102767774D01*
X109121205Y-102598256D01*
X109199226Y-102409898D01*
X109239000Y-102209939D01*
X109239000Y-102006061D01*
X109199226Y-101806102D01*
X109121205Y-101617744D01*
X109007937Y-101448226D01*
X108939000Y-101379289D01*
X108939000Y-99974061D01*
X109963000Y-99974061D01*
X109963000Y-100177939D01*
X110002774Y-100377898D01*
X110080795Y-100566256D01*
X110194063Y-100735774D01*
X110263001Y-100804712D01*
X110263000Y-104427289D01*
X110194063Y-104496226D01*
X110080795Y-104665744D01*
X110002774Y-104854102D01*
X109963000Y-105054061D01*
X109963000Y-105257939D01*
X110002774Y-105457898D01*
X110080795Y-105646256D01*
X110194063Y-105815774D01*
X110338226Y-105959937D01*
X110507744Y-106073205D01*
X110696102Y-106151226D01*
X110896061Y-106191000D01*
X111099939Y-106191000D01*
X111299898Y-106151226D01*
X111488256Y-106073205D01*
X111657774Y-105959937D01*
X111801937Y-105815774D01*
X111915205Y-105646256D01*
X111993226Y-105457898D01*
X112033000Y-105257939D01*
X112033000Y-105054061D01*
X111993226Y-104854102D01*
X111915205Y-104665744D01*
X111801937Y-104496226D01*
X111733000Y-104427289D01*
X111733000Y-102006061D01*
X114535000Y-102006061D01*
X114535000Y-102209939D01*
X114574774Y-102409898D01*
X114652795Y-102598256D01*
X114766063Y-102767774D01*
X114835001Y-102836712D01*
X114835000Y-104427289D01*
X114766063Y-104496226D01*
X114652795Y-104665744D01*
X114574774Y-104854102D01*
X114535000Y-105054061D01*
X114535000Y-105257939D01*
X114574774Y-105457898D01*
X114652795Y-105646256D01*
X114766063Y-105815774D01*
X114910226Y-105959937D01*
X115079744Y-106073205D01*
X115268102Y-106151226D01*
X115468061Y-106191000D01*
X115551000Y-106191000D01*
X115551000Y-106273939D01*
X115590774Y-106473898D01*
X115668795Y-106662256D01*
X115782063Y-106831774D01*
X115926226Y-106975937D01*
X116095744Y-107089205D01*
X116284102Y-107167226D01*
X116484061Y-107207000D01*
X116687939Y-107207000D01*
X116887898Y-107167226D01*
X117076256Y-107089205D01*
X117245774Y-106975937D01*
X117389937Y-106831774D01*
X117503205Y-106662256D01*
X117581226Y-106473898D01*
X117621000Y-106273939D01*
X117621000Y-106070061D01*
X117581226Y-105870102D01*
X117503205Y-105681744D01*
X117389937Y-105512226D01*
X117321000Y-105443289D01*
X117321000Y-103852711D01*
X117389937Y-103783774D01*
X117503205Y-103614256D01*
X117581226Y-103425898D01*
X117621000Y-103225939D01*
X117621000Y-103022061D01*
X117581226Y-102822102D01*
X117503205Y-102633744D01*
X117389937Y-102464226D01*
X117245774Y-102320063D01*
X117076256Y-102206795D01*
X116887898Y-102128774D01*
X116687939Y-102089000D01*
X116605000Y-102089000D01*
X116605000Y-102006061D01*
X116565226Y-101806102D01*
X116487205Y-101617744D01*
X116373937Y-101448226D01*
X116229774Y-101304063D01*
X116060256Y-101190795D01*
X115871898Y-101112774D01*
X115671939Y-101073000D01*
X115468061Y-101073000D01*
X115268102Y-101112774D01*
X115079744Y-101190795D01*
X114910226Y-101304063D01*
X114766063Y-101448226D01*
X114652795Y-101617744D01*
X114574774Y-101806102D01*
X114535000Y-102006061D01*
X111733000Y-102006061D01*
X111733000Y-100804711D01*
X111801937Y-100735774D01*
X111915205Y-100566256D01*
X111993226Y-100377898D01*
X112033000Y-100177939D01*
X112033000Y-99974061D01*
X111993226Y-99774102D01*
X111915205Y-99585744D01*
X111801937Y-99416226D01*
X111657774Y-99272063D01*
X111488256Y-99158795D01*
X111299898Y-99080774D01*
X111099939Y-99041000D01*
X110896061Y-99041000D01*
X110696102Y-99080774D01*
X110507744Y-99158795D01*
X110338226Y-99272063D01*
X110194063Y-99416226D01*
X110080795Y-99585744D01*
X110002774Y-99774102D01*
X109963000Y-99974061D01*
X108939000Y-99974061D01*
X108939000Y-98772711D01*
X109007937Y-98703774D01*
X109121205Y-98534256D01*
X109199226Y-98345898D01*
X109239000Y-98145939D01*
X109239000Y-97942061D01*
X109199226Y-97742102D01*
X109121205Y-97553744D01*
X109007937Y-97384226D01*
X108939000Y-97315289D01*
X108939000Y-94200711D01*
X109007937Y-94131774D01*
X109121205Y-93962256D01*
X109199226Y-93773898D01*
X109239000Y-93573939D01*
X109239000Y-93370061D01*
X109199226Y-93170102D01*
X109121205Y-92981744D01*
X109007937Y-92812226D01*
X108863774Y-92668063D01*
X108694256Y-92554795D01*
X108505898Y-92476774D01*
X108305939Y-92437000D01*
X108102061Y-92437000D01*
X107902102Y-92476774D01*
X107713744Y-92554795D01*
X107544226Y-92668063D01*
X107400063Y-92812226D01*
X107286795Y-92981744D01*
X107208774Y-93170102D01*
X107169000Y-93370061D01*
X103060079Y-93370061D01*
X103103226Y-93265898D01*
X103143000Y-93065939D01*
X103143000Y-92862061D01*
X103103226Y-92662102D01*
X103025205Y-92473744D01*
X102911937Y-92304226D01*
X102767774Y-92160063D01*
X102598256Y-92046795D01*
X102409898Y-91968774D01*
X102209939Y-91929000D01*
X102006061Y-91929000D01*
X101806102Y-91968774D01*
X101617744Y-92046795D01*
X101448226Y-92160063D01*
X101304063Y-92304226D01*
X101190795Y-92473744D01*
X101112774Y-92662102D01*
X101073000Y-92862061D01*
X94207000Y-92862061D01*
X94207000Y-91914711D01*
X94275937Y-91845774D01*
X94389205Y-91676256D01*
X94467226Y-91487898D01*
X94507000Y-91287939D01*
X94507000Y-91084061D01*
X94467226Y-90884102D01*
X94389205Y-90695744D01*
X94275937Y-90526226D01*
X94131774Y-90382063D01*
X93962256Y-90268795D01*
X93773898Y-90190774D01*
X93573939Y-90151000D01*
X93370061Y-90151000D01*
X93170102Y-90190774D01*
X92981744Y-90268795D01*
X92812226Y-90382063D01*
X92668063Y-90526226D01*
X92554795Y-90695744D01*
X92476774Y-90884102D01*
X92437000Y-91084061D01*
X90554011Y-91084061D01*
X90593502Y-91010180D01*
X90629812Y-90890482D01*
X90642072Y-90766000D01*
X90642072Y-90068061D01*
X128505000Y-90068061D01*
X128505000Y-90271939D01*
X128544774Y-90471898D01*
X128622795Y-90660256D01*
X128736063Y-90829774D01*
X128805001Y-90898712D01*
X128805000Y-96541580D01*
X128801444Y-96577685D01*
X128815635Y-96721770D01*
X128828384Y-96763798D01*
X128857663Y-96860317D01*
X128925913Y-96988004D01*
X129017762Y-97099922D01*
X129045808Y-97122939D01*
X131403062Y-99480194D01*
X131426078Y-99508239D01*
X131537996Y-99600088D01*
X131665683Y-99668338D01*
X131761777Y-99697488D01*
X131854227Y-99789938D01*
X132023745Y-99903206D01*
X132212103Y-99981227D01*
X132412062Y-100021001D01*
X132615940Y-100021001D01*
X132815899Y-99981227D01*
X133004257Y-99903206D01*
X133123001Y-99823864D01*
X133123000Y-100458692D01*
X133078256Y-100428795D01*
X132889898Y-100350774D01*
X132689939Y-100311000D01*
X132486061Y-100311000D01*
X132286102Y-100350774D01*
X132097744Y-100428795D01*
X131928226Y-100542063D01*
X131784063Y-100686226D01*
X131670795Y-100855744D01*
X131592774Y-101044102D01*
X131553000Y-101244061D01*
X131553000Y-101447939D01*
X131592774Y-101647898D01*
X131670795Y-101836256D01*
X131784063Y-102005774D01*
X131853001Y-102074712D01*
X131853000Y-102649289D01*
X131784063Y-102718226D01*
X131670795Y-102887744D01*
X131592774Y-103076102D01*
X131553000Y-103276061D01*
X131553000Y-103479939D01*
X131592774Y-103679898D01*
X131670795Y-103868256D01*
X131784063Y-104037774D01*
X131928226Y-104181937D01*
X132097744Y-104295205D01*
X132286102Y-104373226D01*
X132486061Y-104413000D01*
X132689939Y-104413000D01*
X132889898Y-104373226D01*
X133078256Y-104295205D01*
X133223000Y-104198490D01*
X133367744Y-104295205D01*
X133556102Y-104373226D01*
X133756061Y-104413000D01*
X133959939Y-104413000D01*
X134159898Y-104373226D01*
X134348256Y-104295205D01*
X134517774Y-104181937D01*
X134661937Y-104037774D01*
X134712017Y-103962823D01*
X232344000Y-103962823D01*
X232344000Y-105661178D01*
X232365849Y-105883012D01*
X232452193Y-106167648D01*
X232592407Y-106429970D01*
X232781104Y-106659897D01*
X233011031Y-106848594D01*
X233273353Y-106988808D01*
X233557989Y-107075151D01*
X233854000Y-107104306D01*
X234150012Y-107075151D01*
X234434648Y-106988808D01*
X234696970Y-106848594D01*
X234926897Y-106659897D01*
X235115594Y-106429970D01*
X235255808Y-106167648D01*
X235342151Y-105883012D01*
X235364000Y-105661178D01*
X235364000Y-103962822D01*
X235342151Y-103740988D01*
X235255808Y-103456352D01*
X235115594Y-103194030D01*
X234926897Y-102964103D01*
X234696969Y-102775406D01*
X234434647Y-102635192D01*
X234150011Y-102548849D01*
X233854000Y-102519694D01*
X233557988Y-102548849D01*
X233273352Y-102635192D01*
X233011030Y-102775406D01*
X232781103Y-102964103D01*
X232592406Y-103194031D01*
X232452192Y-103456353D01*
X232365849Y-103740989D01*
X232344000Y-103962823D01*
X134712017Y-103962823D01*
X134775205Y-103868256D01*
X134853226Y-103679898D01*
X134893000Y-103479939D01*
X134893000Y-103276061D01*
X134853226Y-103076102D01*
X134775205Y-102887744D01*
X134661937Y-102718226D01*
X134593000Y-102649289D01*
X134593000Y-97772713D01*
X134669938Y-97695775D01*
X134783206Y-97526257D01*
X134861227Y-97337899D01*
X134901001Y-97137940D01*
X134901001Y-96934062D01*
X134863792Y-96747000D01*
X138139895Y-96747000D01*
X138176000Y-96750556D01*
X138212105Y-96747000D01*
X138320085Y-96736365D01*
X138458633Y-96694337D01*
X138586320Y-96626087D01*
X138698238Y-96534238D01*
X138721259Y-96506187D01*
X142498447Y-92729000D01*
X142595939Y-92729000D01*
X142795898Y-92689226D01*
X142984256Y-92611205D01*
X143153774Y-92497937D01*
X143297937Y-92353774D01*
X143411205Y-92184256D01*
X143489226Y-91995898D01*
X143529000Y-91795939D01*
X143529000Y-91592061D01*
X143489226Y-91392102D01*
X143411205Y-91203744D01*
X143297937Y-91034226D01*
X143153774Y-90890063D01*
X142984256Y-90776795D01*
X142795898Y-90698774D01*
X142595939Y-90659000D01*
X142392061Y-90659000D01*
X142192102Y-90698774D01*
X142003744Y-90776795D01*
X141834226Y-90890063D01*
X141690063Y-91034226D01*
X141576795Y-91203744D01*
X141498774Y-91392102D01*
X141459000Y-91592061D01*
X141459000Y-91689553D01*
X137871554Y-95277000D01*
X131185355Y-95277000D01*
X131081938Y-95122225D01*
X130937775Y-94978062D01*
X130768257Y-94864794D01*
X130579899Y-94786773D01*
X130379940Y-94746999D01*
X130275000Y-94746999D01*
X130275000Y-90898711D01*
X130343937Y-90829774D01*
X130457205Y-90660256D01*
X130535226Y-90471898D01*
X130565030Y-90322061D01*
X149079000Y-90322061D01*
X149079000Y-90525939D01*
X149118774Y-90725898D01*
X149196795Y-90914256D01*
X149310063Y-91083774D01*
X149379001Y-91152712D01*
X149379000Y-92235289D01*
X149310063Y-92304226D01*
X149196795Y-92473744D01*
X149118774Y-92662102D01*
X149079000Y-92862061D01*
X149079000Y-93065939D01*
X149118774Y-93265898D01*
X149196795Y-93454256D01*
X149310063Y-93623774D01*
X149454226Y-93767937D01*
X149623744Y-93881205D01*
X149812102Y-93959226D01*
X150012061Y-93999000D01*
X150215939Y-93999000D01*
X150415898Y-93959226D01*
X150604256Y-93881205D01*
X150622000Y-93869349D01*
X150639744Y-93881205D01*
X150828102Y-93959226D01*
X151028061Y-93999000D01*
X151231939Y-93999000D01*
X151431898Y-93959226D01*
X151620256Y-93881205D01*
X151789774Y-93767937D01*
X151933937Y-93623774D01*
X152047205Y-93454256D01*
X152125226Y-93265898D01*
X152165000Y-93065939D01*
X152165000Y-92862061D01*
X152125226Y-92662102D01*
X152047205Y-92473744D01*
X151933937Y-92304226D01*
X151865000Y-92235289D01*
X151865000Y-91152711D01*
X151933937Y-91083774D01*
X152047205Y-90914256D01*
X152125226Y-90725898D01*
X152165000Y-90525939D01*
X152165000Y-90322061D01*
X152125226Y-90122102D01*
X152047205Y-89933744D01*
X151933937Y-89764226D01*
X151789774Y-89620063D01*
X151620256Y-89506795D01*
X151431898Y-89428774D01*
X151231939Y-89389000D01*
X151028061Y-89389000D01*
X150828102Y-89428774D01*
X150639744Y-89506795D01*
X150622000Y-89518651D01*
X150604256Y-89506795D01*
X150415898Y-89428774D01*
X150215939Y-89389000D01*
X150012061Y-89389000D01*
X149812102Y-89428774D01*
X149623744Y-89506795D01*
X149454226Y-89620063D01*
X149310063Y-89764226D01*
X149196795Y-89933744D01*
X149118774Y-90122102D01*
X149079000Y-90322061D01*
X130565030Y-90322061D01*
X130575000Y-90271939D01*
X130575000Y-90068061D01*
X130535226Y-89868102D01*
X130457205Y-89679744D01*
X130343937Y-89510226D01*
X130199774Y-89366063D01*
X130030256Y-89252795D01*
X129841898Y-89174774D01*
X129641939Y-89135000D01*
X129438061Y-89135000D01*
X129238102Y-89174774D01*
X129049744Y-89252795D01*
X128880226Y-89366063D01*
X128736063Y-89510226D01*
X128622795Y-89679744D01*
X128544774Y-89868102D01*
X128505000Y-90068061D01*
X90642072Y-90068061D01*
X90642072Y-89066000D01*
X90629812Y-88941518D01*
X90593502Y-88821820D01*
X90534537Y-88711506D01*
X90455185Y-88614815D01*
X90358494Y-88535463D01*
X90248180Y-88476498D01*
X90175620Y-88454487D01*
X90307475Y-88322632D01*
X90469990Y-88079411D01*
X90487946Y-88036061D01*
X164573000Y-88036061D01*
X164573000Y-88239939D01*
X164612774Y-88439898D01*
X164690795Y-88628256D01*
X164804063Y-88797774D01*
X164873001Y-88866712D01*
X164873000Y-89695289D01*
X164804063Y-89764226D01*
X164690795Y-89933744D01*
X164612774Y-90122102D01*
X164573000Y-90322061D01*
X164573000Y-90525939D01*
X164612774Y-90725898D01*
X164690795Y-90914256D01*
X164804063Y-91083774D01*
X164948226Y-91227937D01*
X165117744Y-91341205D01*
X165306102Y-91419226D01*
X165506061Y-91459000D01*
X165709939Y-91459000D01*
X165909898Y-91419226D01*
X166098256Y-91341205D01*
X166267774Y-91227937D01*
X166411937Y-91083774D01*
X166525205Y-90914256D01*
X166603226Y-90725898D01*
X166643000Y-90525939D01*
X166643000Y-90322061D01*
X166603226Y-90122102D01*
X166580842Y-90068061D01*
X170415000Y-90068061D01*
X170415000Y-90271939D01*
X170454774Y-90471898D01*
X170532795Y-90660256D01*
X170646063Y-90829774D01*
X170715001Y-90898712D01*
X170715000Y-92997289D01*
X170646063Y-93066226D01*
X170532795Y-93235744D01*
X170454774Y-93424102D01*
X170415000Y-93624061D01*
X170415000Y-93827939D01*
X170454774Y-94027898D01*
X170532795Y-94216256D01*
X170646063Y-94385774D01*
X170790226Y-94529937D01*
X170959744Y-94643205D01*
X171148102Y-94721226D01*
X171348061Y-94761000D01*
X171551939Y-94761000D01*
X171751898Y-94721226D01*
X171940256Y-94643205D01*
X172109774Y-94529937D01*
X172253937Y-94385774D01*
X172367205Y-94216256D01*
X172445226Y-94027898D01*
X172485000Y-93827939D01*
X172485000Y-93624061D01*
X172445226Y-93424102D01*
X172367205Y-93235744D01*
X172253937Y-93066226D01*
X172185000Y-92997289D01*
X172185000Y-91989000D01*
X232344000Y-91989000D01*
X232344000Y-92764000D01*
X232397791Y-93056146D01*
X232507543Y-93332185D01*
X232669039Y-93581508D01*
X232876072Y-93794534D01*
X233120686Y-93963077D01*
X233393481Y-94080659D01*
X233493184Y-94103258D01*
X233727000Y-93982269D01*
X233727000Y-91989000D01*
X233981000Y-91989000D01*
X233981000Y-93982269D01*
X234214816Y-94103258D01*
X234314519Y-94080659D01*
X234587314Y-93963077D01*
X234831928Y-93794534D01*
X235038961Y-93581508D01*
X235200457Y-93332185D01*
X235310209Y-93056146D01*
X235364000Y-92764000D01*
X235364000Y-91989000D01*
X233981000Y-91989000D01*
X233727000Y-91989000D01*
X232344000Y-91989000D01*
X172185000Y-91989000D01*
X172185000Y-90960000D01*
X232344000Y-90960000D01*
X232344000Y-91735000D01*
X233727000Y-91735000D01*
X233727000Y-89741731D01*
X233981000Y-89741731D01*
X233981000Y-91735000D01*
X235364000Y-91735000D01*
X235364000Y-90960000D01*
X235310209Y-90667854D01*
X235200457Y-90391815D01*
X235038961Y-90142492D01*
X234831928Y-89929466D01*
X234587314Y-89760923D01*
X234314519Y-89643341D01*
X234214816Y-89620742D01*
X233981000Y-89741731D01*
X233727000Y-89741731D01*
X233493184Y-89620742D01*
X233393481Y-89643341D01*
X233120686Y-89760923D01*
X232876072Y-89929466D01*
X232669039Y-90142492D01*
X232507543Y-90391815D01*
X232397791Y-90667854D01*
X232344000Y-90960000D01*
X172185000Y-90960000D01*
X172185000Y-90898711D01*
X172253937Y-90829774D01*
X172367205Y-90660256D01*
X172445226Y-90471898D01*
X172485000Y-90271939D01*
X172485000Y-90068061D01*
X172445226Y-89868102D01*
X172367205Y-89679744D01*
X172253937Y-89510226D01*
X172109774Y-89366063D01*
X171940256Y-89252795D01*
X171751898Y-89174774D01*
X171551939Y-89135000D01*
X171348061Y-89135000D01*
X171148102Y-89174774D01*
X170959744Y-89252795D01*
X170790226Y-89366063D01*
X170646063Y-89510226D01*
X170532795Y-89679744D01*
X170454774Y-89868102D01*
X170415000Y-90068061D01*
X166580842Y-90068061D01*
X166525205Y-89933744D01*
X166411937Y-89764226D01*
X166343000Y-89695289D01*
X166343000Y-88866711D01*
X166411937Y-88797774D01*
X166525205Y-88628256D01*
X166603226Y-88439898D01*
X166643000Y-88239939D01*
X166643000Y-88036061D01*
X166603226Y-87836102D01*
X166525205Y-87647744D01*
X166411937Y-87478226D01*
X166267774Y-87334063D01*
X166098256Y-87220795D01*
X165909898Y-87142774D01*
X165709939Y-87103000D01*
X165506061Y-87103000D01*
X165306102Y-87142774D01*
X165117744Y-87220795D01*
X164948226Y-87334063D01*
X164804063Y-87478226D01*
X164690795Y-87647744D01*
X164612774Y-87836102D01*
X164573000Y-88036061D01*
X90487946Y-88036061D01*
X90581932Y-87809158D01*
X90639000Y-87522260D01*
X90639000Y-87229740D01*
X90581932Y-86942842D01*
X90469990Y-86672589D01*
X90307475Y-86429368D01*
X90100632Y-86222525D01*
X89926240Y-86106000D01*
X90100632Y-85989475D01*
X90307475Y-85782632D01*
X90469990Y-85539411D01*
X90581932Y-85269158D01*
X90639000Y-84982260D01*
X90639000Y-84689740D01*
X90581932Y-84402842D01*
X90469990Y-84132589D01*
X90307475Y-83889368D01*
X90100632Y-83682525D01*
X89926240Y-83566000D01*
X90100632Y-83449475D01*
X90307475Y-83242632D01*
X90469990Y-82999411D01*
X90581932Y-82729158D01*
X90639000Y-82442260D01*
X90639000Y-82149740D01*
X90581932Y-81862842D01*
X90469990Y-81592589D01*
X90307475Y-81349368D01*
X90100632Y-81142525D01*
X89926240Y-81026000D01*
X90100632Y-80909475D01*
X90307475Y-80702632D01*
X90469990Y-80459411D01*
X90581932Y-80189158D01*
X90639000Y-79902260D01*
X90639000Y-79609740D01*
X90581932Y-79322842D01*
X90469990Y-79052589D01*
X90307475Y-78809368D01*
X90100632Y-78602525D01*
X89857411Y-78440010D01*
X89587158Y-78328068D01*
X89300260Y-78271000D01*
X89007740Y-78271000D01*
X88720842Y-78328068D01*
X88450589Y-78440010D01*
X88207368Y-78602525D01*
X88000525Y-78809368D01*
X87838010Y-79052589D01*
X87726068Y-79322842D01*
X87669000Y-79609740D01*
X87669000Y-79902260D01*
X87726068Y-80189158D01*
X87838010Y-80459411D01*
X88000525Y-80702632D01*
X88207368Y-80909475D01*
X88381760Y-81026000D01*
X88207368Y-81142525D01*
X88000525Y-81349368D01*
X87838010Y-81592589D01*
X87726068Y-81862842D01*
X87669000Y-82149740D01*
X87669000Y-82442260D01*
X87726068Y-82729158D01*
X87838010Y-82999411D01*
X88000525Y-83242632D01*
X88207368Y-83449475D01*
X88381760Y-83566000D01*
X88207368Y-83682525D01*
X88000525Y-83889368D01*
X87838010Y-84132589D01*
X87726068Y-84402842D01*
X87669000Y-84689740D01*
X87669000Y-84982260D01*
X87726068Y-85269158D01*
X87838010Y-85539411D01*
X88000525Y-85782632D01*
X88207368Y-85989475D01*
X88381760Y-86106000D01*
X88207368Y-86222525D01*
X88000525Y-86429368D01*
X87838010Y-86672589D01*
X87726068Y-86942842D01*
X87669000Y-87229740D01*
X87669000Y-87522260D01*
X87726068Y-87809158D01*
X87838010Y-88079411D01*
X88000525Y-88322632D01*
X88132380Y-88454487D01*
X88059820Y-88476498D01*
X87949506Y-88535463D01*
X87852815Y-88614815D01*
X87773463Y-88711506D01*
X87714498Y-88821820D01*
X87678188Y-88941518D01*
X87665928Y-89066000D01*
X85660000Y-89066000D01*
X85660000Y-71018061D01*
X92437000Y-71018061D01*
X92437000Y-71221939D01*
X92476774Y-71421898D01*
X92554795Y-71610256D01*
X92668063Y-71779774D01*
X92737001Y-71848712D01*
X92737000Y-79027289D01*
X92668063Y-79096226D01*
X92554795Y-79265744D01*
X92476774Y-79454102D01*
X92437000Y-79654061D01*
X92437000Y-79857939D01*
X92476774Y-80057898D01*
X92554795Y-80246256D01*
X92668063Y-80415774D01*
X92812226Y-80559937D01*
X92981744Y-80673205D01*
X93170102Y-80751226D01*
X93370061Y-80791000D01*
X93573939Y-80791000D01*
X93773898Y-80751226D01*
X93962256Y-80673205D01*
X94131774Y-80559937D01*
X94275937Y-80415774D01*
X94389205Y-80246256D01*
X94467226Y-80057898D01*
X94507000Y-79857939D01*
X94507000Y-79654061D01*
X94467226Y-79454102D01*
X94389205Y-79265744D01*
X94275937Y-79096226D01*
X94207000Y-79027289D01*
X94207000Y-72542061D01*
X101073000Y-72542061D01*
X101073000Y-72745939D01*
X101112774Y-72945898D01*
X101190795Y-73134256D01*
X101304063Y-73303774D01*
X101373001Y-73372712D01*
X101373000Y-77249289D01*
X101304063Y-77318226D01*
X101190795Y-77487744D01*
X101112774Y-77676102D01*
X101073000Y-77876061D01*
X101073000Y-78079939D01*
X101112774Y-78279898D01*
X101190795Y-78468256D01*
X101304063Y-78637774D01*
X101448226Y-78781937D01*
X101617744Y-78895205D01*
X101806102Y-78973226D01*
X102006061Y-79013000D01*
X102209939Y-79013000D01*
X102409898Y-78973226D01*
X102598256Y-78895205D01*
X102767774Y-78781937D01*
X102911937Y-78637774D01*
X103025205Y-78468256D01*
X103103226Y-78279898D01*
X103143000Y-78079939D01*
X103143000Y-77876061D01*
X103103226Y-77676102D01*
X103025205Y-77487744D01*
X102911937Y-77318226D01*
X102843000Y-77249289D01*
X102843000Y-73372711D01*
X102911937Y-73303774D01*
X103025205Y-73134256D01*
X103060079Y-73050061D01*
X107169000Y-73050061D01*
X107169000Y-73253939D01*
X107208774Y-73453898D01*
X107286795Y-73642256D01*
X107400063Y-73811774D01*
X107469001Y-73880712D01*
X107469000Y-76995289D01*
X107400063Y-77064226D01*
X107286795Y-77233744D01*
X107208774Y-77422102D01*
X107169000Y-77622061D01*
X107169000Y-77825939D01*
X107208774Y-78025898D01*
X107286795Y-78214256D01*
X107400063Y-78383774D01*
X107469001Y-78452712D01*
X107469000Y-81059289D01*
X107400063Y-81128226D01*
X107286795Y-81297744D01*
X107208774Y-81486102D01*
X107169000Y-81686061D01*
X107169000Y-81889939D01*
X107208774Y-82089898D01*
X107286795Y-82278256D01*
X107400063Y-82447774D01*
X107544226Y-82591937D01*
X107713744Y-82705205D01*
X107902102Y-82783226D01*
X108102061Y-82823000D01*
X108305939Y-82823000D01*
X108505898Y-82783226D01*
X108694256Y-82705205D01*
X108863774Y-82591937D01*
X109007937Y-82447774D01*
X109121205Y-82278256D01*
X109199226Y-82089898D01*
X109239000Y-81889939D01*
X109239000Y-81686061D01*
X109199226Y-81486102D01*
X109121205Y-81297744D01*
X109007937Y-81128226D01*
X108939000Y-81059289D01*
X108939000Y-79654061D01*
X109963000Y-79654061D01*
X109963000Y-79857939D01*
X110002774Y-80057898D01*
X110080795Y-80246256D01*
X110194063Y-80415774D01*
X110263001Y-80484712D01*
X110263000Y-84361289D01*
X110194063Y-84430226D01*
X110080795Y-84599744D01*
X110002774Y-84788102D01*
X109963000Y-84988061D01*
X109963000Y-85191939D01*
X110002774Y-85391898D01*
X110080795Y-85580256D01*
X110194063Y-85749774D01*
X110338226Y-85893937D01*
X110507744Y-86007205D01*
X110696102Y-86085226D01*
X110896061Y-86125000D01*
X111099939Y-86125000D01*
X111299898Y-86085226D01*
X111488256Y-86007205D01*
X111657774Y-85893937D01*
X111801937Y-85749774D01*
X111915205Y-85580256D01*
X111993226Y-85391898D01*
X112033000Y-85191939D01*
X112033000Y-84988061D01*
X111993226Y-84788102D01*
X111915205Y-84599744D01*
X111801937Y-84430226D01*
X111733000Y-84361289D01*
X111733000Y-82448061D01*
X115551000Y-82448061D01*
X115551000Y-82651939D01*
X115590774Y-82851898D01*
X115668795Y-83040256D01*
X115782063Y-83209774D01*
X115851001Y-83278712D01*
X115851000Y-85123289D01*
X115782063Y-85192226D01*
X115668795Y-85361744D01*
X115590774Y-85550102D01*
X115551000Y-85750061D01*
X115551000Y-85953939D01*
X115590774Y-86153898D01*
X115668795Y-86342256D01*
X115782063Y-86511774D01*
X115926226Y-86655937D01*
X116095744Y-86769205D01*
X116284102Y-86847226D01*
X116484061Y-86887000D01*
X116687939Y-86887000D01*
X116887898Y-86847226D01*
X117037739Y-86785159D01*
X190944000Y-86785159D01*
X190944000Y-87458841D01*
X191075429Y-88119577D01*
X191333235Y-88741978D01*
X191707512Y-89302123D01*
X192183877Y-89778488D01*
X192744022Y-90152765D01*
X193366423Y-90410571D01*
X194027159Y-90542000D01*
X194700841Y-90542000D01*
X195361577Y-90410571D01*
X195983978Y-90152765D01*
X196544123Y-89778488D01*
X197020488Y-89302123D01*
X197394765Y-88741978D01*
X197652571Y-88119577D01*
X197784000Y-87458841D01*
X197784000Y-86785159D01*
X217814000Y-86785159D01*
X217814000Y-87458841D01*
X217945429Y-88119577D01*
X218203235Y-88741978D01*
X218577512Y-89302123D01*
X219053877Y-89778488D01*
X219614022Y-90152765D01*
X220236423Y-90410571D01*
X220897159Y-90542000D01*
X221570841Y-90542000D01*
X222231577Y-90410571D01*
X222853978Y-90152765D01*
X223414123Y-89778488D01*
X223890488Y-89302123D01*
X224264765Y-88741978D01*
X224522571Y-88119577D01*
X224654000Y-87458841D01*
X224654000Y-86785159D01*
X224522571Y-86124423D01*
X224264765Y-85502022D01*
X223890488Y-84941877D01*
X223414123Y-84465512D01*
X222853978Y-84091235D01*
X222231577Y-83833429D01*
X221570841Y-83702000D01*
X220897159Y-83702000D01*
X220236423Y-83833429D01*
X219614022Y-84091235D01*
X219053877Y-84465512D01*
X218577512Y-84941877D01*
X218203235Y-85502022D01*
X217945429Y-86124423D01*
X217814000Y-86785159D01*
X197784000Y-86785159D01*
X197652571Y-86124423D01*
X197394765Y-85502022D01*
X197020488Y-84941877D01*
X196544123Y-84465512D01*
X195983978Y-84091235D01*
X195361577Y-83833429D01*
X194700841Y-83702000D01*
X194027159Y-83702000D01*
X193366423Y-83833429D01*
X192744022Y-84091235D01*
X192183877Y-84465512D01*
X191707512Y-84941877D01*
X191333235Y-85502022D01*
X191075429Y-86124423D01*
X190944000Y-86785159D01*
X117037739Y-86785159D01*
X117076256Y-86769205D01*
X117245774Y-86655937D01*
X117389937Y-86511774D01*
X117503205Y-86342256D01*
X117581226Y-86153898D01*
X117621000Y-85953939D01*
X117621000Y-85750061D01*
X117581226Y-85550102D01*
X117503205Y-85361744D01*
X117389937Y-85192226D01*
X117321000Y-85123289D01*
X117321000Y-83278711D01*
X117389937Y-83209774D01*
X117503205Y-83040256D01*
X117581226Y-82851898D01*
X117621000Y-82651939D01*
X117621000Y-82448061D01*
X117581226Y-82248102D01*
X117503205Y-82059744D01*
X117389937Y-81890226D01*
X117245774Y-81746063D01*
X117076256Y-81632795D01*
X116887898Y-81554774D01*
X116687939Y-81515000D01*
X116484061Y-81515000D01*
X116284102Y-81554774D01*
X116095744Y-81632795D01*
X115926226Y-81746063D01*
X115782063Y-81890226D01*
X115668795Y-82059744D01*
X115590774Y-82248102D01*
X115551000Y-82448061D01*
X111733000Y-82448061D01*
X111733000Y-80484711D01*
X111801937Y-80415774D01*
X111915205Y-80246256D01*
X111993226Y-80057898D01*
X112033000Y-79857939D01*
X112033000Y-79654061D01*
X111993226Y-79454102D01*
X111915205Y-79265744D01*
X111801937Y-79096226D01*
X111657774Y-78952063D01*
X111488256Y-78838795D01*
X111299898Y-78760774D01*
X111099939Y-78721000D01*
X110896061Y-78721000D01*
X110696102Y-78760774D01*
X110507744Y-78838795D01*
X110338226Y-78952063D01*
X110194063Y-79096226D01*
X110080795Y-79265744D01*
X110002774Y-79454102D01*
X109963000Y-79654061D01*
X108939000Y-79654061D01*
X108939000Y-78452711D01*
X109007937Y-78383774D01*
X109121205Y-78214256D01*
X109199226Y-78025898D01*
X109239000Y-77825939D01*
X109239000Y-77622061D01*
X109199226Y-77422102D01*
X109121205Y-77233744D01*
X109007937Y-77064226D01*
X108939000Y-76995289D01*
X108939000Y-73880711D01*
X109007937Y-73811774D01*
X109121205Y-73642256D01*
X109199226Y-73453898D01*
X109239000Y-73253939D01*
X109239000Y-73050061D01*
X109199226Y-72850102D01*
X109121205Y-72661744D01*
X109007937Y-72492226D01*
X108863774Y-72348063D01*
X108694256Y-72234795D01*
X108505898Y-72156774D01*
X108305939Y-72117000D01*
X108102061Y-72117000D01*
X107902102Y-72156774D01*
X107713744Y-72234795D01*
X107544226Y-72348063D01*
X107400063Y-72492226D01*
X107286795Y-72661744D01*
X107208774Y-72850102D01*
X107169000Y-73050061D01*
X103060079Y-73050061D01*
X103103226Y-72945898D01*
X103143000Y-72745939D01*
X103143000Y-72542061D01*
X103103226Y-72342102D01*
X103025205Y-72153744D01*
X102911937Y-71984226D01*
X102767774Y-71840063D01*
X102598256Y-71726795D01*
X102409898Y-71648774D01*
X102209939Y-71609000D01*
X102006061Y-71609000D01*
X101806102Y-71648774D01*
X101617744Y-71726795D01*
X101448226Y-71840063D01*
X101304063Y-71984226D01*
X101190795Y-72153744D01*
X101112774Y-72342102D01*
X101073000Y-72542061D01*
X94207000Y-72542061D01*
X94207000Y-71848711D01*
X94275937Y-71779774D01*
X94389205Y-71610256D01*
X94467226Y-71421898D01*
X94507000Y-71221939D01*
X94507000Y-71018061D01*
X94467226Y-70818102D01*
X94389205Y-70629744D01*
X94275937Y-70460226D01*
X94131774Y-70316063D01*
X94041975Y-70256061D01*
X128251000Y-70256061D01*
X128251000Y-70459939D01*
X128290774Y-70659898D01*
X128368795Y-70848256D01*
X128482063Y-71017774D01*
X128551001Y-71086712D01*
X128551000Y-75967580D01*
X128547444Y-76003685D01*
X128561635Y-76147770D01*
X128569289Y-76173000D01*
X128603663Y-76286317D01*
X128671913Y-76414004D01*
X128763762Y-76525922D01*
X128791808Y-76548939D01*
X131433062Y-79190194D01*
X131456078Y-79218239D01*
X131567996Y-79310088D01*
X131695683Y-79378338D01*
X131791777Y-79407488D01*
X131884227Y-79499938D01*
X132053745Y-79613206D01*
X132242103Y-79691227D01*
X132442062Y-79731001D01*
X132645940Y-79731001D01*
X132845899Y-79691227D01*
X133034257Y-79613206D01*
X133131002Y-79548564D01*
X133131001Y-80144038D01*
X133078256Y-80108795D01*
X132889898Y-80030774D01*
X132689939Y-79991000D01*
X132486061Y-79991000D01*
X132286102Y-80030774D01*
X132097744Y-80108795D01*
X131928226Y-80222063D01*
X131784063Y-80366226D01*
X131670795Y-80535744D01*
X131592774Y-80724102D01*
X131553000Y-80924061D01*
X131553000Y-81127939D01*
X131592774Y-81327898D01*
X131670795Y-81516256D01*
X131784063Y-81685774D01*
X131853001Y-81754712D01*
X131853000Y-82329289D01*
X131784063Y-82398226D01*
X131670795Y-82567744D01*
X131592774Y-82756102D01*
X131553000Y-82956061D01*
X131553000Y-83159939D01*
X131592774Y-83359898D01*
X131670795Y-83548256D01*
X131784063Y-83717774D01*
X131928226Y-83861937D01*
X132097744Y-83975205D01*
X132286102Y-84053226D01*
X132486061Y-84093000D01*
X132689939Y-84093000D01*
X132889898Y-84053226D01*
X133078256Y-83975205D01*
X133221013Y-83879818D01*
X133375745Y-83983206D01*
X133564103Y-84061227D01*
X133764062Y-84101001D01*
X133967940Y-84101001D01*
X134167899Y-84061227D01*
X134356257Y-83983206D01*
X134525775Y-83869938D01*
X134669938Y-83725775D01*
X134783206Y-83556257D01*
X134861227Y-83367899D01*
X134901001Y-83167940D01*
X134901001Y-82964062D01*
X134861227Y-82764103D01*
X134783206Y-82575745D01*
X134669938Y-82406227D01*
X134601001Y-82337290D01*
X134601001Y-77815160D01*
X204326001Y-77815160D01*
X204326001Y-78488842D01*
X204457430Y-79149578D01*
X204715236Y-79771979D01*
X205089513Y-80332124D01*
X205565878Y-80808489D01*
X206126023Y-81182766D01*
X206748424Y-81440572D01*
X207409160Y-81572001D01*
X208082842Y-81572001D01*
X208743578Y-81440572D01*
X209365979Y-81182766D01*
X209926124Y-80808489D01*
X210402489Y-80332124D01*
X210776766Y-79771979D01*
X211034572Y-79149578D01*
X211166001Y-78488842D01*
X211166001Y-77815160D01*
X211034572Y-77154424D01*
X210776766Y-76532023D01*
X210402489Y-75971878D01*
X209926124Y-75495513D01*
X209365979Y-75121236D01*
X208743578Y-74863430D01*
X208082842Y-74732001D01*
X207409160Y-74732001D01*
X206748424Y-74863430D01*
X206126023Y-75121236D01*
X205565878Y-75495513D01*
X205089513Y-75971878D01*
X204715236Y-76532023D01*
X204457430Y-77154424D01*
X204326001Y-77815160D01*
X134601001Y-77815160D01*
X134601001Y-77428710D01*
X134661937Y-77367774D01*
X134775205Y-77198256D01*
X134853226Y-77009898D01*
X134893000Y-76809939D01*
X134893000Y-76606061D01*
X134853226Y-76406102D01*
X134775205Y-76217744D01*
X134745308Y-76173000D01*
X138139895Y-76173000D01*
X138176000Y-76176556D01*
X138212105Y-76173000D01*
X138320085Y-76162365D01*
X138458633Y-76120337D01*
X138586320Y-76052087D01*
X138698238Y-75960238D01*
X138721259Y-75932187D01*
X141184445Y-73469001D01*
X232346001Y-73469001D01*
X232346001Y-74244001D01*
X232399792Y-74536147D01*
X232509544Y-74812186D01*
X232671040Y-75061509D01*
X232878073Y-75274535D01*
X233122687Y-75443078D01*
X233395482Y-75560660D01*
X233495185Y-75583259D01*
X233729001Y-75462270D01*
X233729001Y-73469001D01*
X233983001Y-73469001D01*
X233983001Y-75462270D01*
X234216817Y-75583259D01*
X234316520Y-75560660D01*
X234589315Y-75443078D01*
X234833929Y-75274535D01*
X235040962Y-75061509D01*
X235202458Y-74812186D01*
X235312210Y-74536147D01*
X235366001Y-74244001D01*
X235366001Y-73469001D01*
X233983001Y-73469001D01*
X233729001Y-73469001D01*
X232346001Y-73469001D01*
X141184445Y-73469001D01*
X142498447Y-72155000D01*
X142595939Y-72155000D01*
X142795898Y-72115226D01*
X142984256Y-72037205D01*
X143153774Y-71923937D01*
X143297937Y-71779774D01*
X143411205Y-71610256D01*
X143489226Y-71421898D01*
X143529000Y-71221939D01*
X143529000Y-71018061D01*
X143489226Y-70818102D01*
X143411205Y-70629744D01*
X143297937Y-70460226D01*
X143153774Y-70316063D01*
X142984256Y-70202795D01*
X142795898Y-70124774D01*
X142595939Y-70085000D01*
X142392061Y-70085000D01*
X142192102Y-70124774D01*
X142003744Y-70202795D01*
X141834226Y-70316063D01*
X141690063Y-70460226D01*
X141576795Y-70629744D01*
X141498774Y-70818102D01*
X141459000Y-71018061D01*
X141459000Y-71115553D01*
X137871554Y-74703000D01*
X130903779Y-74703000D01*
X130867684Y-74699445D01*
X130831589Y-74703000D01*
X130831580Y-74703000D01*
X130804325Y-74705684D01*
X130686257Y-74626794D01*
X130497899Y-74548773D01*
X130297940Y-74508999D01*
X130094062Y-74508999D01*
X130021000Y-74523532D01*
X130021000Y-71086711D01*
X130089937Y-71017774D01*
X130203205Y-70848256D01*
X130281226Y-70659898D01*
X130321000Y-70459939D01*
X130321000Y-70256061D01*
X130281226Y-70056102D01*
X130203205Y-69867744D01*
X130123236Y-69748061D01*
X150095000Y-69748061D01*
X150095000Y-69951939D01*
X150134774Y-70151898D01*
X150212795Y-70340256D01*
X150326063Y-70509774D01*
X150395001Y-70578712D01*
X150395000Y-71661289D01*
X150326063Y-71730226D01*
X150212795Y-71899744D01*
X150134774Y-72088102D01*
X150095000Y-72288061D01*
X150095000Y-72491939D01*
X150134774Y-72691898D01*
X150212795Y-72880256D01*
X150326063Y-73049774D01*
X150470226Y-73193937D01*
X150639744Y-73307205D01*
X150828102Y-73385226D01*
X151028061Y-73425000D01*
X151231939Y-73425000D01*
X151431898Y-73385226D01*
X151620256Y-73307205D01*
X151789774Y-73193937D01*
X151933937Y-73049774D01*
X152047205Y-72880256D01*
X152125226Y-72691898D01*
X152165000Y-72491939D01*
X152165000Y-72288061D01*
X152125226Y-72088102D01*
X152047205Y-71899744D01*
X151933937Y-71730226D01*
X151865000Y-71661289D01*
X151865000Y-70578711D01*
X151933937Y-70509774D01*
X152047205Y-70340256D01*
X152125226Y-70151898D01*
X152165000Y-69951939D01*
X152165000Y-69748061D01*
X152125226Y-69548102D01*
X152047205Y-69359744D01*
X151933937Y-69190226D01*
X151789774Y-69046063D01*
X151620256Y-68932795D01*
X151431898Y-68854774D01*
X151231939Y-68815000D01*
X151028061Y-68815000D01*
X150828102Y-68854774D01*
X150639744Y-68932795D01*
X150470226Y-69046063D01*
X150326063Y-69190226D01*
X150212795Y-69359744D01*
X150134774Y-69548102D01*
X150095000Y-69748061D01*
X130123236Y-69748061D01*
X130089937Y-69698226D01*
X129945774Y-69554063D01*
X129776256Y-69440795D01*
X129587898Y-69362774D01*
X129387939Y-69323000D01*
X129184061Y-69323000D01*
X128984102Y-69362774D01*
X128795744Y-69440795D01*
X128626226Y-69554063D01*
X128482063Y-69698226D01*
X128368795Y-69867744D01*
X128290774Y-70056102D01*
X128251000Y-70256061D01*
X94041975Y-70256061D01*
X93962256Y-70202795D01*
X93773898Y-70124774D01*
X93573939Y-70085000D01*
X93370061Y-70085000D01*
X93170102Y-70124774D01*
X92981744Y-70202795D01*
X92812226Y-70316063D01*
X92668063Y-70460226D01*
X92554795Y-70629744D01*
X92476774Y-70818102D01*
X92437000Y-71018061D01*
X85660000Y-71018061D01*
X85660000Y-67716061D01*
X164573000Y-67716061D01*
X164573000Y-67919939D01*
X164612774Y-68119898D01*
X164690795Y-68308256D01*
X164804063Y-68477774D01*
X164873001Y-68546712D01*
X164873000Y-69375289D01*
X164804063Y-69444226D01*
X164690795Y-69613744D01*
X164612774Y-69802102D01*
X164573000Y-70002061D01*
X164573000Y-70205939D01*
X164612774Y-70405898D01*
X164690795Y-70594256D01*
X164804063Y-70763774D01*
X164948226Y-70907937D01*
X165117744Y-71021205D01*
X165306102Y-71099226D01*
X165506061Y-71139000D01*
X165709939Y-71139000D01*
X165909898Y-71099226D01*
X166098256Y-71021205D01*
X166267774Y-70907937D01*
X166411937Y-70763774D01*
X166525205Y-70594256D01*
X166603226Y-70405898D01*
X166643000Y-70205939D01*
X166643000Y-70002061D01*
X166603226Y-69802102D01*
X166525205Y-69613744D01*
X166411937Y-69444226D01*
X166343000Y-69375289D01*
X166343000Y-68546711D01*
X166411937Y-68477774D01*
X166525205Y-68308256D01*
X166603226Y-68119898D01*
X166633030Y-67970061D01*
X170415000Y-67970061D01*
X170415000Y-68173939D01*
X170454774Y-68373898D01*
X170532795Y-68562256D01*
X170646063Y-68731774D01*
X170715001Y-68800712D01*
X170715000Y-71407289D01*
X170646063Y-71476226D01*
X170532795Y-71645744D01*
X170454774Y-71834102D01*
X170415000Y-72034061D01*
X170415000Y-72237939D01*
X170454774Y-72437898D01*
X170532795Y-72626256D01*
X170646063Y-72795774D01*
X170790226Y-72939937D01*
X170959744Y-73053205D01*
X171148102Y-73131226D01*
X171348061Y-73171000D01*
X171551939Y-73171000D01*
X171751898Y-73131226D01*
X171940256Y-73053205D01*
X172109774Y-72939937D01*
X172253937Y-72795774D01*
X172367205Y-72626256D01*
X172444354Y-72440001D01*
X232346001Y-72440001D01*
X232346001Y-73215001D01*
X233729001Y-73215001D01*
X233729001Y-71221732D01*
X233983001Y-71221732D01*
X233983001Y-73215001D01*
X235366001Y-73215001D01*
X235366001Y-72440001D01*
X235312210Y-72147855D01*
X235202458Y-71871816D01*
X235040962Y-71622493D01*
X234833929Y-71409467D01*
X234589315Y-71240924D01*
X234316520Y-71123342D01*
X234216817Y-71100743D01*
X233983001Y-71221732D01*
X233729001Y-71221732D01*
X233495185Y-71100743D01*
X233395482Y-71123342D01*
X233122687Y-71240924D01*
X232878073Y-71409467D01*
X232671040Y-71622493D01*
X232509544Y-71871816D01*
X232399792Y-72147855D01*
X232346001Y-72440001D01*
X172444354Y-72440001D01*
X172445226Y-72437898D01*
X172485000Y-72237939D01*
X172485000Y-72034061D01*
X172445226Y-71834102D01*
X172367205Y-71645744D01*
X172253937Y-71476226D01*
X172185000Y-71407289D01*
X172185000Y-68800711D01*
X172253937Y-68731774D01*
X172367205Y-68562256D01*
X172445226Y-68373898D01*
X172485000Y-68173939D01*
X172485000Y-67970061D01*
X172445226Y-67770102D01*
X172367205Y-67581744D01*
X172253937Y-67412226D01*
X172109774Y-67268063D01*
X171940256Y-67154795D01*
X171751898Y-67076774D01*
X171551939Y-67037000D01*
X171348061Y-67037000D01*
X171148102Y-67076774D01*
X170959744Y-67154795D01*
X170790226Y-67268063D01*
X170646063Y-67412226D01*
X170532795Y-67581744D01*
X170454774Y-67770102D01*
X170415000Y-67970061D01*
X166633030Y-67970061D01*
X166643000Y-67919939D01*
X166643000Y-67716061D01*
X166603226Y-67516102D01*
X166525205Y-67327744D01*
X166411937Y-67158226D01*
X166267774Y-67014063D01*
X166098256Y-66900795D01*
X165909898Y-66822774D01*
X165709939Y-66783000D01*
X165506061Y-66783000D01*
X165306102Y-66822774D01*
X165117744Y-66900795D01*
X164948226Y-67014063D01*
X164804063Y-67158226D01*
X164690795Y-67327744D01*
X164612774Y-67516102D01*
X164573000Y-67716061D01*
X85660000Y-67716061D01*
X85660000Y-55016061D01*
X92437000Y-55016061D01*
X92437000Y-55219939D01*
X92476774Y-55419898D01*
X92554795Y-55608256D01*
X92668063Y-55777774D01*
X92737001Y-55846712D01*
X92737000Y-59977289D01*
X92668063Y-60046226D01*
X92554795Y-60215744D01*
X92476774Y-60404102D01*
X92437000Y-60604061D01*
X92437000Y-60807939D01*
X92476774Y-61007898D01*
X92554795Y-61196256D01*
X92668063Y-61365774D01*
X92812226Y-61509937D01*
X92981744Y-61623205D01*
X93170102Y-61701226D01*
X93370061Y-61741000D01*
X93573939Y-61741000D01*
X93773898Y-61701226D01*
X93962256Y-61623205D01*
X94131774Y-61509937D01*
X94275937Y-61365774D01*
X94389205Y-61196256D01*
X94467226Y-61007898D01*
X94507000Y-60807939D01*
X94507000Y-60604061D01*
X94467226Y-60404102D01*
X94389205Y-60215744D01*
X94275937Y-60046226D01*
X94207000Y-59977289D01*
X94207000Y-57302061D01*
X107169000Y-57302061D01*
X107169000Y-57505939D01*
X107208774Y-57705898D01*
X107286795Y-57894256D01*
X107400063Y-58063774D01*
X107469001Y-58132712D01*
X107469000Y-60739289D01*
X107400063Y-60808226D01*
X107286795Y-60977744D01*
X107208774Y-61166102D01*
X107169000Y-61366061D01*
X107169000Y-61569939D01*
X107208774Y-61769898D01*
X107286795Y-61958256D01*
X107400063Y-62127774D01*
X107544226Y-62271937D01*
X107713744Y-62385205D01*
X107902102Y-62463226D01*
X108102061Y-62503000D01*
X108305939Y-62503000D01*
X108505898Y-62463226D01*
X108694256Y-62385205D01*
X108863774Y-62271937D01*
X109007937Y-62127774D01*
X109121205Y-61958256D01*
X109199226Y-61769898D01*
X109239000Y-61569939D01*
X109239000Y-61366061D01*
X109199226Y-61166102D01*
X109121205Y-60977744D01*
X109007937Y-60808226D01*
X108939000Y-60739289D01*
X108939000Y-59334061D01*
X109963000Y-59334061D01*
X109963000Y-59537939D01*
X110002774Y-59737898D01*
X110080795Y-59926256D01*
X110194063Y-60095774D01*
X110263001Y-60164712D01*
X110263000Y-64041289D01*
X110194063Y-64110226D01*
X110080795Y-64279744D01*
X110002774Y-64468102D01*
X109963000Y-64668061D01*
X109963000Y-64871939D01*
X110002774Y-65071898D01*
X110080795Y-65260256D01*
X110194063Y-65429774D01*
X110338226Y-65573937D01*
X110507744Y-65687205D01*
X110696102Y-65765226D01*
X110896061Y-65805000D01*
X111099939Y-65805000D01*
X111299898Y-65765226D01*
X111488256Y-65687205D01*
X111657774Y-65573937D01*
X111801937Y-65429774D01*
X111915205Y-65260256D01*
X111993226Y-65071898D01*
X112033000Y-64871939D01*
X112033000Y-64668061D01*
X111993226Y-64468102D01*
X111915205Y-64279744D01*
X111801937Y-64110226D01*
X111733000Y-64041289D01*
X111733000Y-60164711D01*
X111801937Y-60095774D01*
X111915205Y-59926256D01*
X111993226Y-59737898D01*
X112033000Y-59537939D01*
X112033000Y-59334061D01*
X111993226Y-59134102D01*
X111915205Y-58945744D01*
X111801937Y-58776226D01*
X111657774Y-58632063D01*
X111488256Y-58518795D01*
X111299898Y-58440774D01*
X111099939Y-58401000D01*
X110896061Y-58401000D01*
X110696102Y-58440774D01*
X110507744Y-58518795D01*
X110338226Y-58632063D01*
X110194063Y-58776226D01*
X110080795Y-58945744D01*
X110002774Y-59134102D01*
X109963000Y-59334061D01*
X108939000Y-59334061D01*
X108939000Y-58132711D01*
X109007937Y-58063774D01*
X109121205Y-57894256D01*
X109199226Y-57705898D01*
X109239000Y-57505939D01*
X109239000Y-57302061D01*
X109199226Y-57102102D01*
X109121205Y-56913744D01*
X109007937Y-56744226D01*
X108863774Y-56600063D01*
X108694256Y-56486795D01*
X108505898Y-56408774D01*
X108305939Y-56369000D01*
X108102061Y-56369000D01*
X107902102Y-56408774D01*
X107713744Y-56486795D01*
X107544226Y-56600063D01*
X107400063Y-56744226D01*
X107286795Y-56913744D01*
X107208774Y-57102102D01*
X107169000Y-57302061D01*
X94207000Y-57302061D01*
X94207000Y-55846711D01*
X94275937Y-55777774D01*
X94389205Y-55608256D01*
X94467226Y-55419898D01*
X94507000Y-55219939D01*
X94507000Y-55016061D01*
X94467226Y-54816102D01*
X94456439Y-54790060D01*
X129239001Y-54790060D01*
X129239001Y-54993938D01*
X129278775Y-55193897D01*
X129356796Y-55382255D01*
X129470064Y-55551773D01*
X129614227Y-55695936D01*
X129783745Y-55809204D01*
X129972103Y-55887225D01*
X130172062Y-55926999D01*
X130375940Y-55926999D01*
X130575899Y-55887225D01*
X130764257Y-55809204D01*
X130933775Y-55695936D01*
X131002712Y-55626999D01*
X132951984Y-55626999D01*
X132940795Y-55643744D01*
X132862774Y-55832102D01*
X132823000Y-56032061D01*
X132823000Y-56235939D01*
X132862774Y-56435898D01*
X132940795Y-56624256D01*
X133054063Y-56793774D01*
X133123001Y-56862712D01*
X133123001Y-57278692D01*
X133078256Y-57248795D01*
X132889898Y-57170774D01*
X132689939Y-57131000D01*
X132486061Y-57131000D01*
X132286102Y-57170774D01*
X132097744Y-57248795D01*
X131928226Y-57362063D01*
X131784063Y-57506226D01*
X131670795Y-57675744D01*
X131592774Y-57864102D01*
X131553000Y-58064061D01*
X131553000Y-58267939D01*
X131592774Y-58467898D01*
X131670795Y-58656256D01*
X131784063Y-58825774D01*
X131928226Y-58969937D01*
X132097744Y-59083205D01*
X132286102Y-59161226D01*
X132486061Y-59201000D01*
X132689939Y-59201000D01*
X132889898Y-59161226D01*
X133078256Y-59083205D01*
X133123001Y-59053308D01*
X133123000Y-59818692D01*
X133078256Y-59788795D01*
X132889898Y-59710774D01*
X132689939Y-59671000D01*
X132486061Y-59671000D01*
X132286102Y-59710774D01*
X132097744Y-59788795D01*
X131928226Y-59902063D01*
X131784063Y-60046226D01*
X131670795Y-60215744D01*
X131592774Y-60404102D01*
X131553000Y-60604061D01*
X131553000Y-60807939D01*
X131592774Y-61007898D01*
X131670795Y-61196256D01*
X131784063Y-61365774D01*
X131853001Y-61434712D01*
X131853000Y-62009289D01*
X131784063Y-62078226D01*
X131670795Y-62247744D01*
X131592774Y-62436102D01*
X131553000Y-62636061D01*
X131553000Y-62839939D01*
X131592774Y-63039898D01*
X131670795Y-63228256D01*
X131784063Y-63397774D01*
X131928226Y-63541937D01*
X132097744Y-63655205D01*
X132286102Y-63733226D01*
X132486061Y-63773000D01*
X132689939Y-63773000D01*
X132889898Y-63733226D01*
X133078256Y-63655205D01*
X133223000Y-63558490D01*
X133367744Y-63655205D01*
X133556102Y-63733226D01*
X133756061Y-63773000D01*
X133959939Y-63773000D01*
X134159898Y-63733226D01*
X134348256Y-63655205D01*
X134517774Y-63541937D01*
X134661937Y-63397774D01*
X134775205Y-63228256D01*
X134853226Y-63039898D01*
X134893000Y-62839939D01*
X134893000Y-62636061D01*
X134853226Y-62436102D01*
X134775205Y-62247744D01*
X134661937Y-62078226D01*
X134593000Y-62009289D01*
X134593000Y-59542824D01*
X232346001Y-59542824D01*
X232346001Y-61241179D01*
X232367850Y-61463013D01*
X232454194Y-61747649D01*
X232594408Y-62009971D01*
X232783105Y-62239898D01*
X233013032Y-62428595D01*
X233275354Y-62568809D01*
X233559990Y-62655152D01*
X233856001Y-62684307D01*
X234152013Y-62655152D01*
X234436649Y-62568809D01*
X234698971Y-62428595D01*
X234928898Y-62239898D01*
X235117595Y-62009971D01*
X235257809Y-61747649D01*
X235344152Y-61463013D01*
X235366001Y-61241179D01*
X235366001Y-59542823D01*
X235344152Y-59320989D01*
X235257809Y-59036353D01*
X235117595Y-58774031D01*
X234928898Y-58544104D01*
X234698970Y-58355407D01*
X234436648Y-58215193D01*
X234152012Y-58128850D01*
X233856001Y-58099695D01*
X233559989Y-58128850D01*
X233275353Y-58215193D01*
X233013031Y-58355407D01*
X232783104Y-58544104D01*
X232594407Y-58774032D01*
X232454193Y-59036354D01*
X232367850Y-59320990D01*
X232346001Y-59542824D01*
X134593000Y-59542824D01*
X134593000Y-56862711D01*
X134661937Y-56793774D01*
X134775205Y-56624256D01*
X134853226Y-56435898D01*
X134893000Y-56235939D01*
X134893000Y-56032061D01*
X134853226Y-55832102D01*
X134775205Y-55643744D01*
X134764016Y-55626999D01*
X138111896Y-55626999D01*
X138148001Y-55630555D01*
X138184106Y-55626999D01*
X138292086Y-55616364D01*
X138430634Y-55574336D01*
X138558321Y-55506086D01*
X138670239Y-55414237D01*
X138693260Y-55386186D01*
X138764286Y-55315160D01*
X190946001Y-55315160D01*
X190946001Y-55988842D01*
X191077430Y-56649578D01*
X191335236Y-57271979D01*
X191709513Y-57832124D01*
X192185878Y-58308489D01*
X192746023Y-58682766D01*
X193368424Y-58940572D01*
X194029160Y-59072001D01*
X194702842Y-59072001D01*
X195363578Y-58940572D01*
X195985979Y-58682766D01*
X196546124Y-58308489D01*
X197022489Y-57832124D01*
X197396766Y-57271979D01*
X197654572Y-56649578D01*
X197786001Y-55988842D01*
X197786001Y-55315160D01*
X217816001Y-55315160D01*
X217816001Y-55988842D01*
X217947430Y-56649578D01*
X218205236Y-57271979D01*
X218579513Y-57832124D01*
X219055878Y-58308489D01*
X219616023Y-58682766D01*
X220238424Y-58940572D01*
X220899160Y-59072001D01*
X221572842Y-59072001D01*
X222233578Y-58940572D01*
X222855979Y-58682766D01*
X223416124Y-58308489D01*
X223892489Y-57832124D01*
X224266766Y-57271979D01*
X224524572Y-56649578D01*
X224656001Y-55988842D01*
X224656001Y-55315160D01*
X224524572Y-54654424D01*
X224266766Y-54032023D01*
X223892489Y-53471878D01*
X223416124Y-52995513D01*
X222855979Y-52621236D01*
X222233578Y-52363430D01*
X221572842Y-52232001D01*
X220899160Y-52232001D01*
X220238424Y-52363430D01*
X219616023Y-52621236D01*
X219055878Y-52995513D01*
X218579513Y-53471878D01*
X218205236Y-54032023D01*
X217947430Y-54654424D01*
X217816001Y-55315160D01*
X197786001Y-55315160D01*
X197654572Y-54654424D01*
X197396766Y-54032023D01*
X197022489Y-53471878D01*
X196546124Y-52995513D01*
X195985979Y-52621236D01*
X195363578Y-52363430D01*
X194702842Y-52232001D01*
X194029160Y-52232001D01*
X193368424Y-52363430D01*
X192746023Y-52621236D01*
X192185878Y-52995513D01*
X191709513Y-53471878D01*
X191335236Y-54032023D01*
X191077430Y-54654424D01*
X190946001Y-55315160D01*
X138764286Y-55315160D01*
X142498447Y-51581000D01*
X142595939Y-51581000D01*
X142795898Y-51541226D01*
X142984256Y-51463205D01*
X143153774Y-51349937D01*
X143297937Y-51205774D01*
X143411205Y-51036256D01*
X143489226Y-50847898D01*
X143529000Y-50647939D01*
X143529000Y-50444061D01*
X143489226Y-50244102D01*
X143411205Y-50055744D01*
X143297937Y-49886226D01*
X143153774Y-49742063D01*
X142984256Y-49628795D01*
X142795898Y-49550774D01*
X142595939Y-49511000D01*
X142392061Y-49511000D01*
X142192102Y-49550774D01*
X142003744Y-49628795D01*
X141834226Y-49742063D01*
X141690063Y-49886226D01*
X141576795Y-50055744D01*
X141498774Y-50244102D01*
X141459000Y-50444061D01*
X141459000Y-50541553D01*
X137843555Y-54156999D01*
X131002712Y-54156999D01*
X130933775Y-54088062D01*
X130764257Y-53974794D01*
X130575899Y-53896773D01*
X130375940Y-53856999D01*
X130172062Y-53856999D01*
X129972103Y-53896773D01*
X129783745Y-53974794D01*
X129614227Y-54088062D01*
X129470064Y-54232225D01*
X129356796Y-54401743D01*
X129278775Y-54590101D01*
X129239001Y-54790060D01*
X94456439Y-54790060D01*
X94389205Y-54627744D01*
X94275937Y-54458226D01*
X94131774Y-54314063D01*
X93962256Y-54200795D01*
X93773898Y-54122774D01*
X93573939Y-54083000D01*
X93370061Y-54083000D01*
X93170102Y-54122774D01*
X92981744Y-54200795D01*
X92812226Y-54314063D01*
X92668063Y-54458226D01*
X92554795Y-54627744D01*
X92476774Y-54816102D01*
X92437000Y-55016061D01*
X85660000Y-55016061D01*
X85660000Y-45660000D01*
X239340001Y-45660000D01*
X239340000Y-139340000D01*
G37*
X239340000Y-139340000D02*
X85660000Y-139340000D01*
X85660000Y-129692061D01*
X101073000Y-129692061D01*
X101073000Y-129895939D01*
X101112774Y-130095898D01*
X101190795Y-130284256D01*
X101304063Y-130453774D01*
X101373001Y-130522712D01*
X101373000Y-134399289D01*
X101304063Y-134468226D01*
X101190795Y-134637744D01*
X101112774Y-134826102D01*
X101073000Y-135026061D01*
X101073000Y-135229939D01*
X101112774Y-135429898D01*
X101190795Y-135618256D01*
X101304063Y-135787774D01*
X101448226Y-135931937D01*
X101617744Y-136045205D01*
X101806102Y-136123226D01*
X102006061Y-136163000D01*
X102209939Y-136163000D01*
X102409898Y-136123226D01*
X102598256Y-136045205D01*
X102676549Y-135992891D01*
X118192519Y-135992891D01*
X118289843Y-136267252D01*
X118438822Y-136517355D01*
X118633731Y-136733588D01*
X118867080Y-136907641D01*
X119129901Y-137032825D01*
X119277110Y-137077476D01*
X119507000Y-136956155D01*
X119507000Y-135763000D01*
X118313186Y-135763000D01*
X118192519Y-135992891D01*
X102676549Y-135992891D01*
X102767774Y-135931937D01*
X102911937Y-135787774D01*
X103025205Y-135618256D01*
X103103226Y-135429898D01*
X103133219Y-135279109D01*
X118192519Y-135279109D01*
X118313186Y-135509000D01*
X119507000Y-135509000D01*
X119507000Y-134315845D01*
X119761000Y-134315845D01*
X119761000Y-135509000D01*
X119781000Y-135509000D01*
X119781000Y-135763000D01*
X119761000Y-135763000D01*
X119761000Y-136956155D01*
X119990890Y-137077476D01*
X120138099Y-137032825D01*
X120400920Y-136907641D01*
X120634269Y-136733588D01*
X120829178Y-136517355D01*
X120898805Y-136400466D01*
X121020525Y-136582632D01*
X121227368Y-136789475D01*
X121470589Y-136951990D01*
X121740842Y-137063932D01*
X122027740Y-137121000D01*
X122320260Y-137121000D01*
X122607158Y-137063932D01*
X122877411Y-136951990D01*
X123120632Y-136789475D01*
X123327475Y-136582632D01*
X123444000Y-136408240D01*
X123560525Y-136582632D01*
X123767368Y-136789475D01*
X124010589Y-136951990D01*
X124280842Y-137063932D01*
X124567740Y-137121000D01*
X124860260Y-137121000D01*
X125147158Y-137063932D01*
X125417411Y-136951990D01*
X125660632Y-136789475D01*
X125867475Y-136582632D01*
X125984000Y-136408240D01*
X126100525Y-136582632D01*
X126307368Y-136789475D01*
X126550589Y-136951990D01*
X126820842Y-137063932D01*
X127107740Y-137121000D01*
X127400260Y-137121000D01*
X127687158Y-137063932D01*
X127957411Y-136951990D01*
X128200632Y-136789475D01*
X128332487Y-136657620D01*
X128354498Y-136730180D01*
X128413463Y-136840494D01*
X128492815Y-136937185D01*
X128589506Y-137016537D01*
X128699820Y-137075502D01*
X128819518Y-137111812D01*
X128944000Y-137124072D01*
X130644000Y-137124072D01*
X130768482Y-137111812D01*
X130888180Y-137075502D01*
X130998494Y-137016537D01*
X131095185Y-136937185D01*
X131174537Y-136840494D01*
X131233502Y-136730180D01*
X131269812Y-136610482D01*
X131282072Y-136486000D01*
X131282072Y-136042061D01*
X132061000Y-136042061D01*
X132061000Y-136245939D01*
X132100774Y-136445898D01*
X132178795Y-136634256D01*
X132292063Y-136803774D01*
X132361001Y-136872712D01*
X132361000Y-137193289D01*
X132292063Y-137262226D01*
X132178795Y-137431744D01*
X132100774Y-137620102D01*
X132061000Y-137820061D01*
X132061000Y-138023939D01*
X132100774Y-138223898D01*
X132178795Y-138412256D01*
X132292063Y-138581774D01*
X132436226Y-138725937D01*
X132605744Y-138839205D01*
X132794102Y-138917226D01*
X132994061Y-138957000D01*
X133197939Y-138957000D01*
X133397898Y-138917226D01*
X133586256Y-138839205D01*
X133755774Y-138725937D01*
X133899937Y-138581774D01*
X134013205Y-138412256D01*
X134091226Y-138223898D01*
X134131000Y-138023939D01*
X134131000Y-137820061D01*
X134091226Y-137620102D01*
X134013205Y-137431744D01*
X133899937Y-137262226D01*
X133831000Y-137193289D01*
X133831000Y-136872711D01*
X133899937Y-136803774D01*
X134013205Y-136634256D01*
X134091226Y-136445898D01*
X134131000Y-136245939D01*
X134131000Y-136042061D01*
X134121220Y-135992891D01*
X141052519Y-135992891D01*
X141149843Y-136267252D01*
X141298822Y-136517355D01*
X141493731Y-136733588D01*
X141727080Y-136907641D01*
X141989901Y-137032825D01*
X142137110Y-137077476D01*
X142367000Y-136956155D01*
X142367000Y-135763000D01*
X141173186Y-135763000D01*
X141052519Y-135992891D01*
X134121220Y-135992891D01*
X134091226Y-135842102D01*
X134013205Y-135653744D01*
X133899937Y-135484226D01*
X133755774Y-135340063D01*
X133664550Y-135279109D01*
X141052519Y-135279109D01*
X141173186Y-135509000D01*
X142367000Y-135509000D01*
X142367000Y-134315845D01*
X142621000Y-134315845D01*
X142621000Y-135509000D01*
X142641000Y-135509000D01*
X142641000Y-135763000D01*
X142621000Y-135763000D01*
X142621000Y-136956155D01*
X142850890Y-137077476D01*
X142998099Y-137032825D01*
X143260920Y-136907641D01*
X143494269Y-136733588D01*
X143689178Y-136517355D01*
X143758805Y-136400466D01*
X143880525Y-136582632D01*
X144087368Y-136789475D01*
X144330589Y-136951990D01*
X144600842Y-137063932D01*
X144887740Y-137121000D01*
X145180260Y-137121000D01*
X145467158Y-137063932D01*
X145737411Y-136951990D01*
X145980632Y-136789475D01*
X146187475Y-136582632D01*
X146304000Y-136408240D01*
X146420525Y-136582632D01*
X146627368Y-136789475D01*
X146870589Y-136951990D01*
X147140842Y-137063932D01*
X147427740Y-137121000D01*
X147720260Y-137121000D01*
X148007158Y-137063932D01*
X148277411Y-136951990D01*
X148520632Y-136789475D01*
X148727475Y-136582632D01*
X148844000Y-136408240D01*
X148960525Y-136582632D01*
X149167368Y-136789475D01*
X149410589Y-136951990D01*
X149680842Y-137063932D01*
X149967740Y-137121000D01*
X150260260Y-137121000D01*
X150547158Y-137063932D01*
X150817411Y-136951990D01*
X151060632Y-136789475D01*
X151192487Y-136657620D01*
X151214498Y-136730180D01*
X151273463Y-136840494D01*
X151352815Y-136937185D01*
X151449506Y-137016537D01*
X151559820Y-137075502D01*
X151679518Y-137111812D01*
X151804000Y-137124072D01*
X153504000Y-137124072D01*
X153628482Y-137111812D01*
X153748180Y-137075502D01*
X153858494Y-137016537D01*
X153955185Y-136937185D01*
X154034537Y-136840494D01*
X154093502Y-136730180D01*
X154129812Y-136610482D01*
X154142072Y-136486000D01*
X154142072Y-134786000D01*
X154129812Y-134661518D01*
X154093502Y-134541820D01*
X154034537Y-134431506D01*
X153955185Y-134334815D01*
X153858494Y-134255463D01*
X153748180Y-134196498D01*
X153628482Y-134160188D01*
X153504000Y-134147928D01*
X151804000Y-134147928D01*
X151679518Y-134160188D01*
X151559820Y-134196498D01*
X151449506Y-134255463D01*
X151352815Y-134334815D01*
X151273463Y-134431506D01*
X151214498Y-134541820D01*
X151192487Y-134614380D01*
X151060632Y-134482525D01*
X150817411Y-134320010D01*
X150547158Y-134208068D01*
X150260260Y-134151000D01*
X149967740Y-134151000D01*
X149680842Y-134208068D01*
X149410589Y-134320010D01*
X149167368Y-134482525D01*
X148960525Y-134689368D01*
X148844000Y-134863760D01*
X148727475Y-134689368D01*
X148520632Y-134482525D01*
X148277411Y-134320010D01*
X148007158Y-134208068D01*
X147720260Y-134151000D01*
X147427740Y-134151000D01*
X147140842Y-134208068D01*
X146870589Y-134320010D01*
X146627368Y-134482525D01*
X146420525Y-134689368D01*
X146304000Y-134863760D01*
X146187475Y-134689368D01*
X145980632Y-134482525D01*
X145737411Y-134320010D01*
X145467158Y-134208068D01*
X145180260Y-134151000D01*
X144887740Y-134151000D01*
X144600842Y-134208068D01*
X144330589Y-134320010D01*
X144087368Y-134482525D01*
X143880525Y-134689368D01*
X143758805Y-134871534D01*
X143689178Y-134754645D01*
X143494269Y-134538412D01*
X143260920Y-134364359D01*
X142998099Y-134239175D01*
X142850890Y-134194524D01*
X142621000Y-134315845D01*
X142367000Y-134315845D01*
X142137110Y-134194524D01*
X141989901Y-134239175D01*
X141727080Y-134364359D01*
X141493731Y-134538412D01*
X141298822Y-134754645D01*
X141149843Y-135004748D01*
X141052519Y-135279109D01*
X133664550Y-135279109D01*
X133586256Y-135226795D01*
X133397898Y-135148774D01*
X133197939Y-135109000D01*
X132994061Y-135109000D01*
X132794102Y-135148774D01*
X132605744Y-135226795D01*
X132436226Y-135340063D01*
X132292063Y-135484226D01*
X132178795Y-135653744D01*
X132100774Y-135842102D01*
X132061000Y-136042061D01*
X131282072Y-136042061D01*
X131282072Y-134786000D01*
X131269812Y-134661518D01*
X131233502Y-134541820D01*
X131174537Y-134431506D01*
X131095185Y-134334815D01*
X130998494Y-134255463D01*
X130888180Y-134196498D01*
X130768482Y-134160188D01*
X130644000Y-134147928D01*
X128944000Y-134147928D01*
X128819518Y-134160188D01*
X128699820Y-134196498D01*
X128589506Y-134255463D01*
X128492815Y-134334815D01*
X128413463Y-134431506D01*
X128354498Y-134541820D01*
X128332487Y-134614380D01*
X128200632Y-134482525D01*
X127957411Y-134320010D01*
X127687158Y-134208068D01*
X127400260Y-134151000D01*
X127107740Y-134151000D01*
X126820842Y-134208068D01*
X126550589Y-134320010D01*
X126307368Y-134482525D01*
X126100525Y-134689368D01*
X125984000Y-134863760D01*
X125867475Y-134689368D01*
X125660632Y-134482525D01*
X125417411Y-134320010D01*
X125147158Y-134208068D01*
X124860260Y-134151000D01*
X124567740Y-134151000D01*
X124280842Y-134208068D01*
X124010589Y-134320010D01*
X123767368Y-134482525D01*
X123560525Y-134689368D01*
X123444000Y-134863760D01*
X123327475Y-134689368D01*
X123120632Y-134482525D01*
X122877411Y-134320010D01*
X122607158Y-134208068D01*
X122320260Y-134151000D01*
X122027740Y-134151000D01*
X121740842Y-134208068D01*
X121470589Y-134320010D01*
X121227368Y-134482525D01*
X121020525Y-134689368D01*
X120898805Y-134871534D01*
X120829178Y-134754645D01*
X120634269Y-134538412D01*
X120400920Y-134364359D01*
X120138099Y-134239175D01*
X119990890Y-134194524D01*
X119761000Y-134315845D01*
X119507000Y-134315845D01*
X119277110Y-134194524D01*
X119129901Y-134239175D01*
X118867080Y-134364359D01*
X118633731Y-134538412D01*
X118438822Y-134754645D01*
X118289843Y-135004748D01*
X118192519Y-135279109D01*
X103133219Y-135279109D01*
X103143000Y-135229939D01*
X103143000Y-135026061D01*
X103103226Y-134826102D01*
X103025205Y-134637744D01*
X102911937Y-134468226D01*
X102843000Y-134399289D01*
X102843000Y-133096000D01*
X177929509Y-133096000D01*
X177951423Y-133318498D01*
X178016324Y-133532446D01*
X178121717Y-133729622D01*
X178228012Y-133859143D01*
X180260009Y-135891141D01*
X180295551Y-135934449D01*
X180468377Y-136076284D01*
X180665553Y-136181676D01*
X180879501Y-136246577D01*
X181102000Y-136268491D01*
X181157751Y-136263000D01*
X181157752Y-136263000D01*
X181324499Y-136246577D01*
X181538447Y-136181676D01*
X181735623Y-136076284D01*
X181908449Y-135934449D01*
X182050284Y-135761623D01*
X182155676Y-135564447D01*
X182220577Y-135350499D01*
X182242491Y-135128000D01*
X182220577Y-134905501D01*
X182155676Y-134691553D01*
X182050284Y-134494377D01*
X181908449Y-134321551D01*
X181865141Y-134286009D01*
X179833143Y-132254012D01*
X179703622Y-132147717D01*
X179506446Y-132042324D01*
X179292498Y-131977423D01*
X179070000Y-131955509D01*
X178847502Y-131977423D01*
X178633554Y-132042324D01*
X178436378Y-132147717D01*
X178263552Y-132289552D01*
X178121717Y-132462378D01*
X178016324Y-132659554D01*
X177951423Y-132873502D01*
X177929509Y-133096000D01*
X102843000Y-133096000D01*
X102843000Y-131928891D01*
X201758519Y-131928891D01*
X201855843Y-132203252D01*
X202004822Y-132453355D01*
X202199731Y-132669588D01*
X202433080Y-132843641D01*
X202695901Y-132968825D01*
X202843110Y-133013476D01*
X203073000Y-132892155D01*
X203073000Y-131699000D01*
X201879186Y-131699000D01*
X201758519Y-131928891D01*
X102843000Y-131928891D01*
X102843000Y-131215109D01*
X201758519Y-131215109D01*
X201879186Y-131445000D01*
X203073000Y-131445000D01*
X203073000Y-130251845D01*
X203327000Y-130251845D01*
X203327000Y-131445000D01*
X203347000Y-131445000D01*
X203347000Y-131699000D01*
X203327000Y-131699000D01*
X203327000Y-132892155D01*
X203556890Y-133013476D01*
X203704099Y-132968825D01*
X203966920Y-132843641D01*
X204200269Y-132669588D01*
X204395178Y-132453355D01*
X204464805Y-132336466D01*
X204586525Y-132518632D01*
X204793368Y-132725475D01*
X205036589Y-132887990D01*
X205306842Y-132999932D01*
X205593740Y-133057000D01*
X205886260Y-133057000D01*
X206173158Y-132999932D01*
X206443411Y-132887990D01*
X206686632Y-132725475D01*
X206893475Y-132518632D01*
X207010000Y-132344240D01*
X207126525Y-132518632D01*
X207333368Y-132725475D01*
X207576589Y-132887990D01*
X207846842Y-132999932D01*
X208133740Y-133057000D01*
X208426260Y-133057000D01*
X208713158Y-132999932D01*
X208983411Y-132887990D01*
X209226632Y-132725475D01*
X209433475Y-132518632D01*
X209550000Y-132344240D01*
X209666525Y-132518632D01*
X209873368Y-132725475D01*
X210116589Y-132887990D01*
X210386842Y-132999932D01*
X210673740Y-133057000D01*
X210966260Y-133057000D01*
X211253158Y-132999932D01*
X211523411Y-132887990D01*
X211766632Y-132725475D01*
X211898487Y-132593620D01*
X211920498Y-132666180D01*
X211979463Y-132776494D01*
X212058815Y-132873185D01*
X212155506Y-132952537D01*
X212265820Y-133011502D01*
X212385518Y-133047812D01*
X212510000Y-133060072D01*
X214210000Y-133060072D01*
X214334482Y-133047812D01*
X214454180Y-133011502D01*
X214564494Y-132952537D01*
X214661185Y-132873185D01*
X214740537Y-132776494D01*
X214799502Y-132666180D01*
X214835812Y-132546482D01*
X214848072Y-132422000D01*
X214848072Y-130722000D01*
X214835812Y-130597518D01*
X214799502Y-130477820D01*
X214740537Y-130367506D01*
X214661185Y-130270815D01*
X214564494Y-130191463D01*
X214454180Y-130132498D01*
X214334482Y-130096188D01*
X214210000Y-130083928D01*
X212510000Y-130083928D01*
X212385518Y-130096188D01*
X212265820Y-130132498D01*
X212155506Y-130191463D01*
X212058815Y-130270815D01*
X211979463Y-130367506D01*
X211920498Y-130477820D01*
X211898487Y-130550380D01*
X211766632Y-130418525D01*
X211523411Y-130256010D01*
X211253158Y-130144068D01*
X210966260Y-130087000D01*
X210673740Y-130087000D01*
X210386842Y-130144068D01*
X210116589Y-130256010D01*
X209873368Y-130418525D01*
X209666525Y-130625368D01*
X209550000Y-130799760D01*
X209433475Y-130625368D01*
X209226632Y-130418525D01*
X208983411Y-130256010D01*
X208713158Y-130144068D01*
X208426260Y-130087000D01*
X208133740Y-130087000D01*
X207846842Y-130144068D01*
X207576589Y-130256010D01*
X207333368Y-130418525D01*
X207126525Y-130625368D01*
X207010000Y-130799760D01*
X206893475Y-130625368D01*
X206686632Y-130418525D01*
X206443411Y-130256010D01*
X206173158Y-130144068D01*
X205886260Y-130087000D01*
X205593740Y-130087000D01*
X205306842Y-130144068D01*
X205036589Y-130256010D01*
X204793368Y-130418525D01*
X204586525Y-130625368D01*
X204464805Y-130807534D01*
X204395178Y-130690645D01*
X204200269Y-130474412D01*
X203966920Y-130300359D01*
X203704099Y-130175175D01*
X203556890Y-130130524D01*
X203327000Y-130251845D01*
X203073000Y-130251845D01*
X202843110Y-130130524D01*
X202695901Y-130175175D01*
X202433080Y-130300359D01*
X202199731Y-130474412D01*
X202004822Y-130690645D01*
X201855843Y-130940748D01*
X201758519Y-131215109D01*
X102843000Y-131215109D01*
X102843000Y-130522711D01*
X102911937Y-130453774D01*
X103025205Y-130284256D01*
X103103226Y-130095898D01*
X103143000Y-129895939D01*
X103143000Y-129692061D01*
X103103226Y-129492102D01*
X103025205Y-129303744D01*
X102911937Y-129134226D01*
X102767774Y-128990063D01*
X102598256Y-128876795D01*
X102409898Y-128798774D01*
X102209939Y-128759000D01*
X102006061Y-128759000D01*
X101806102Y-128798774D01*
X101617744Y-128876795D01*
X101448226Y-128990063D01*
X101304063Y-129134226D01*
X101190795Y-129303744D01*
X101112774Y-129492102D01*
X101073000Y-129692061D01*
X85660000Y-129692061D01*
X85660000Y-121310061D01*
X101073000Y-121310061D01*
X101073000Y-121513939D01*
X101112774Y-121713898D01*
X101190795Y-121902256D01*
X101304063Y-122071774D01*
X101373001Y-122140712D01*
X101373000Y-122715289D01*
X101304063Y-122784226D01*
X101190795Y-122953744D01*
X101112774Y-123142102D01*
X101073000Y-123342061D01*
X101073000Y-123545939D01*
X101112774Y-123745898D01*
X101190795Y-123934256D01*
X101304063Y-124103774D01*
X101448226Y-124247937D01*
X101617744Y-124361205D01*
X101806102Y-124439226D01*
X102006061Y-124479000D01*
X102209939Y-124479000D01*
X102409898Y-124439226D01*
X102598256Y-124361205D01*
X102767774Y-124247937D01*
X102911937Y-124103774D01*
X103025205Y-123934256D01*
X103103226Y-123745898D01*
X103143000Y-123545939D01*
X103143000Y-123342061D01*
X103103226Y-123142102D01*
X103025205Y-122953744D01*
X102911937Y-122784226D01*
X102843000Y-122715289D01*
X102843000Y-122140711D01*
X102911937Y-122071774D01*
X103025205Y-121902256D01*
X103103226Y-121713898D01*
X103143000Y-121513939D01*
X103143000Y-121310061D01*
X103103226Y-121110102D01*
X103025205Y-120921744D01*
X102911937Y-120752226D01*
X102767774Y-120608063D01*
X102598256Y-120494795D01*
X102409898Y-120416774D01*
X102209939Y-120377000D01*
X102006061Y-120377000D01*
X101806102Y-120416774D01*
X101617744Y-120494795D01*
X101448226Y-120608063D01*
X101304063Y-120752226D01*
X101190795Y-120921744D01*
X101112774Y-121110102D01*
X101073000Y-121310061D01*
X85660000Y-121310061D01*
X85660000Y-111658061D01*
X92437000Y-111658061D01*
X92437000Y-111861939D01*
X92476774Y-112061898D01*
X92554795Y-112250256D01*
X92668063Y-112419774D01*
X92737001Y-112488712D01*
X92737000Y-115349289D01*
X92668063Y-115418226D01*
X92554795Y-115587744D01*
X92476774Y-115776102D01*
X92437000Y-115976061D01*
X92437000Y-116179939D01*
X92476774Y-116379898D01*
X92554795Y-116568256D01*
X92668063Y-116737774D01*
X92812226Y-116881937D01*
X92981744Y-116995205D01*
X93170102Y-117073226D01*
X93370061Y-117113000D01*
X93573939Y-117113000D01*
X93773898Y-117073226D01*
X93962256Y-116995205D01*
X94131774Y-116881937D01*
X94275937Y-116737774D01*
X94389205Y-116568256D01*
X94467226Y-116379898D01*
X94507000Y-116179939D01*
X94507000Y-115976061D01*
X94467226Y-115776102D01*
X94389205Y-115587744D01*
X94275937Y-115418226D01*
X94207000Y-115349289D01*
X94207000Y-113182061D01*
X101073000Y-113182061D01*
X101073000Y-113385939D01*
X101112774Y-113585898D01*
X101190795Y-113774256D01*
X101304063Y-113943774D01*
X101373001Y-114012712D01*
X101373000Y-117889289D01*
X101304063Y-117958226D01*
X101190795Y-118127744D01*
X101112774Y-118316102D01*
X101073000Y-118516061D01*
X101073000Y-118719939D01*
X101112774Y-118919898D01*
X101190795Y-119108256D01*
X101304063Y-119277774D01*
X101448226Y-119421937D01*
X101617744Y-119535205D01*
X101806102Y-119613226D01*
X102006061Y-119653000D01*
X102209939Y-119653000D01*
X102409898Y-119613226D01*
X102598256Y-119535205D01*
X102767774Y-119421937D01*
X102911937Y-119277774D01*
X103025205Y-119108256D01*
X103103226Y-118919898D01*
X103143000Y-118719939D01*
X103143000Y-118516061D01*
X103103226Y-118316102D01*
X103025205Y-118127744D01*
X102911937Y-117958226D01*
X102843000Y-117889289D01*
X102843000Y-114012711D01*
X102911650Y-113944061D01*
X107169000Y-113944061D01*
X107169000Y-114147939D01*
X107208774Y-114347898D01*
X107286795Y-114536256D01*
X107400063Y-114705774D01*
X107469001Y-114774712D01*
X107469000Y-117635289D01*
X107400063Y-117704226D01*
X107286795Y-117873744D01*
X107208774Y-118062102D01*
X107169000Y-118262061D01*
X107169000Y-118465939D01*
X107208774Y-118665898D01*
X107286795Y-118854256D01*
X107400063Y-119023774D01*
X107469001Y-119092712D01*
X107469000Y-121699289D01*
X107400063Y-121768226D01*
X107286795Y-121937744D01*
X107208774Y-122126102D01*
X107169000Y-122326061D01*
X107169000Y-122529939D01*
X107208774Y-122729898D01*
X107286795Y-122918256D01*
X107400063Y-123087774D01*
X107544226Y-123231937D01*
X107713744Y-123345205D01*
X107902102Y-123423226D01*
X108102061Y-123463000D01*
X108305939Y-123463000D01*
X108505898Y-123423226D01*
X108694256Y-123345205D01*
X108863774Y-123231937D01*
X109007937Y-123087774D01*
X109121205Y-122918256D01*
X109199226Y-122729898D01*
X109239000Y-122529939D01*
X109239000Y-122326061D01*
X109199226Y-122126102D01*
X109121205Y-121937744D01*
X109007937Y-121768226D01*
X108939000Y-121699289D01*
X108939000Y-119092711D01*
X109007937Y-119023774D01*
X109121205Y-118854256D01*
X109199226Y-118665898D01*
X109239000Y-118465939D01*
X109239000Y-118262061D01*
X109199226Y-118062102D01*
X109121205Y-117873744D01*
X109007937Y-117704226D01*
X108939000Y-117635289D01*
X108939000Y-117246061D01*
X110217000Y-117246061D01*
X110217000Y-117449939D01*
X110256774Y-117649898D01*
X110334795Y-117838256D01*
X110448063Y-118007774D01*
X110517001Y-118076712D01*
X110517000Y-126779289D01*
X110448063Y-126848226D01*
X110334795Y-127017744D01*
X110256774Y-127206102D01*
X110217000Y-127406061D01*
X110217000Y-127609939D01*
X110256774Y-127809898D01*
X110334795Y-127998256D01*
X110448063Y-128167774D01*
X110592226Y-128311937D01*
X110761744Y-128425205D01*
X110950102Y-128503226D01*
X111150061Y-128543000D01*
X111353939Y-128543000D01*
X111553898Y-128503226D01*
X111742256Y-128425205D01*
X111911774Y-128311937D01*
X112055937Y-128167774D01*
X112169205Y-127998256D01*
X112247226Y-127809898D01*
X112287000Y-127609939D01*
X112287000Y-127406061D01*
X112247226Y-127206102D01*
X112169205Y-127017744D01*
X112055937Y-126848226D01*
X111987000Y-126779289D01*
X111987000Y-121564061D01*
X113519000Y-121564061D01*
X113519000Y-121767939D01*
X113558774Y-121967898D01*
X113636795Y-122156256D01*
X113750063Y-122325774D01*
X113819001Y-122394712D01*
X113819000Y-123731289D01*
X113750063Y-123800226D01*
X113636795Y-123969744D01*
X113558774Y-124158102D01*
X113519000Y-124358061D01*
X113519000Y-124561939D01*
X113558774Y-124761898D01*
X113636795Y-124950256D01*
X113750063Y-125119774D01*
X113894226Y-125263937D01*
X114063744Y-125377205D01*
X114252102Y-125455226D01*
X114452061Y-125495000D01*
X114569026Y-125495000D01*
X114574774Y-125523898D01*
X114652795Y-125712256D01*
X114766063Y-125881774D01*
X114910226Y-126025937D01*
X115079744Y-126139205D01*
X115268102Y-126217226D01*
X115468061Y-126257000D01*
X115551000Y-126257000D01*
X115551000Y-126339939D01*
X115590774Y-126539898D01*
X115668795Y-126728256D01*
X115782063Y-126897774D01*
X115926226Y-127041937D01*
X116095744Y-127155205D01*
X116284102Y-127233226D01*
X116484061Y-127273000D01*
X116687939Y-127273000D01*
X116887898Y-127233226D01*
X117076256Y-127155205D01*
X117245774Y-127041937D01*
X117389937Y-126897774D01*
X117503205Y-126728256D01*
X117581226Y-126539898D01*
X117621000Y-126339939D01*
X117621000Y-126136061D01*
X117581226Y-125936102D01*
X117503205Y-125747744D01*
X117389937Y-125578226D01*
X117321000Y-125509289D01*
X117321000Y-125374061D01*
X164573000Y-125374061D01*
X164573000Y-125577939D01*
X164612774Y-125777898D01*
X164690795Y-125966256D01*
X164804063Y-126135774D01*
X164873001Y-126204712D01*
X164873000Y-127287289D01*
X164804063Y-127356226D01*
X164690795Y-127525744D01*
X164612774Y-127714102D01*
X164573000Y-127914061D01*
X164573000Y-128117939D01*
X164612774Y-128317898D01*
X164690795Y-128506256D01*
X164804063Y-128675774D01*
X164948226Y-128819937D01*
X165117744Y-128933205D01*
X165306102Y-129011226D01*
X165506061Y-129051000D01*
X165709939Y-129051000D01*
X165909898Y-129011226D01*
X166098256Y-128933205D01*
X166267774Y-128819937D01*
X166411937Y-128675774D01*
X166525205Y-128506256D01*
X166603226Y-128317898D01*
X166643000Y-128117939D01*
X166643000Y-127914061D01*
X166603226Y-127714102D01*
X166525205Y-127525744D01*
X166411937Y-127356226D01*
X166343000Y-127287289D01*
X166343000Y-127254000D01*
X196217509Y-127254000D01*
X196239423Y-127476498D01*
X196304324Y-127690446D01*
X196409717Y-127887622D01*
X196551552Y-128060448D01*
X196724378Y-128202283D01*
X196921554Y-128307676D01*
X197135502Y-128372577D01*
X197358000Y-128394491D01*
X197580498Y-128372577D01*
X197794446Y-128307676D01*
X197991622Y-128202283D01*
X198121143Y-128095988D01*
X202439141Y-123777991D01*
X202482449Y-123742449D01*
X202624284Y-123569623D01*
X202729676Y-123372447D01*
X202794577Y-123158499D01*
X202816491Y-122936000D01*
X202794577Y-122713501D01*
X202729676Y-122499553D01*
X202624284Y-122302377D01*
X202482449Y-122129551D01*
X202309623Y-121987716D01*
X202112447Y-121882324D01*
X201898499Y-121817423D01*
X201731752Y-121801000D01*
X201731743Y-121801000D01*
X201675999Y-121795510D01*
X201620255Y-121801000D01*
X201620248Y-121801000D01*
X201474493Y-121815356D01*
X201453500Y-121817423D01*
X201403705Y-121832529D01*
X201239553Y-121882324D01*
X201042377Y-121987716D01*
X200869551Y-122129551D01*
X200834009Y-122172859D01*
X196516012Y-126490857D01*
X196409717Y-126620378D01*
X196304324Y-126817554D01*
X196239423Y-127031502D01*
X196217509Y-127254000D01*
X166343000Y-127254000D01*
X166343000Y-126204711D01*
X166411937Y-126135774D01*
X166525205Y-125966256D01*
X166603226Y-125777898D01*
X166643000Y-125577939D01*
X166643000Y-125374061D01*
X166603226Y-125174102D01*
X166525205Y-124985744D01*
X166411937Y-124816226D01*
X166267774Y-124672063D01*
X166098256Y-124558795D01*
X165909898Y-124480774D01*
X165805460Y-124460000D01*
X180977509Y-124460000D01*
X180999423Y-124682498D01*
X181064324Y-124896446D01*
X181169717Y-125093622D01*
X181311552Y-125266448D01*
X181484378Y-125408283D01*
X181681554Y-125513676D01*
X181895502Y-125578577D01*
X182118000Y-125600491D01*
X182340498Y-125578577D01*
X182554446Y-125513676D01*
X182751622Y-125408283D01*
X182881143Y-125301988D01*
X185675146Y-122507987D01*
X185718449Y-122472449D01*
X185770521Y-122409000D01*
X185860284Y-122299623D01*
X185965676Y-122102447D01*
X186030577Y-121888499D01*
X186052491Y-121666000D01*
X186030577Y-121443501D01*
X185965676Y-121229553D01*
X185860284Y-121032377D01*
X185718449Y-120859551D01*
X185545623Y-120717716D01*
X185348447Y-120612324D01*
X185134499Y-120547423D01*
X184912000Y-120525509D01*
X184689501Y-120547423D01*
X184475553Y-120612324D01*
X184278377Y-120717716D01*
X184148856Y-120824011D01*
X184148854Y-120824013D01*
X184105551Y-120859551D01*
X184070013Y-120902854D01*
X181276012Y-123696857D01*
X181169717Y-123826378D01*
X181064324Y-124023554D01*
X180999423Y-124237502D01*
X180977509Y-124460000D01*
X165805460Y-124460000D01*
X165709939Y-124441000D01*
X165506061Y-124441000D01*
X165306102Y-124480774D01*
X165117744Y-124558795D01*
X164948226Y-124672063D01*
X164804063Y-124816226D01*
X164690795Y-124985744D01*
X164612774Y-125174102D01*
X164573000Y-125374061D01*
X117321000Y-125374061D01*
X117321000Y-124426711D01*
X117389937Y-124357774D01*
X117503205Y-124188256D01*
X117581226Y-123999898D01*
X117621000Y-123799939D01*
X117621000Y-123596061D01*
X117581226Y-123396102D01*
X117503205Y-123207744D01*
X117389937Y-123038226D01*
X117245774Y-122894063D01*
X117076256Y-122780795D01*
X116887898Y-122702774D01*
X116687939Y-122663000D01*
X116605000Y-122663000D01*
X116605000Y-122580061D01*
X116565226Y-122380102D01*
X116487205Y-122191744D01*
X116373937Y-122022226D01*
X116229774Y-121878063D01*
X116060256Y-121764795D01*
X115871898Y-121686774D01*
X115671939Y-121647000D01*
X115589000Y-121647000D01*
X115589000Y-121564061D01*
X115549226Y-121364102D01*
X115471205Y-121175744D01*
X115357937Y-121006226D01*
X115213774Y-120862063D01*
X115044256Y-120748795D01*
X114855898Y-120670774D01*
X114655939Y-120631000D01*
X114452061Y-120631000D01*
X114252102Y-120670774D01*
X114063744Y-120748795D01*
X113894226Y-120862063D01*
X113750063Y-121006226D01*
X113636795Y-121175744D01*
X113558774Y-121364102D01*
X113519000Y-121564061D01*
X111987000Y-121564061D01*
X111987000Y-118076711D01*
X112055937Y-118007774D01*
X112169205Y-117838256D01*
X112247226Y-117649898D01*
X112287000Y-117449939D01*
X112287000Y-117246061D01*
X112247226Y-117046102D01*
X112169205Y-116857744D01*
X112055937Y-116688226D01*
X111911774Y-116544063D01*
X111742256Y-116430795D01*
X111553898Y-116352774D01*
X111353939Y-116313000D01*
X111150061Y-116313000D01*
X110950102Y-116352774D01*
X110761744Y-116430795D01*
X110592226Y-116544063D01*
X110448063Y-116688226D01*
X110334795Y-116857744D01*
X110256774Y-117046102D01*
X110217000Y-117246061D01*
X108939000Y-117246061D01*
X108939000Y-114774711D01*
X109007937Y-114705774D01*
X109121205Y-114536256D01*
X109199226Y-114347898D01*
X109239000Y-114147939D01*
X109239000Y-113944061D01*
X109199226Y-113744102D01*
X109121205Y-113555744D01*
X109007937Y-113386226D01*
X108863774Y-113242063D01*
X108694256Y-113128795D01*
X108505898Y-113050774D01*
X108305939Y-113011000D01*
X108102061Y-113011000D01*
X107902102Y-113050774D01*
X107713744Y-113128795D01*
X107544226Y-113242063D01*
X107400063Y-113386226D01*
X107286795Y-113555744D01*
X107208774Y-113744102D01*
X107169000Y-113944061D01*
X102911650Y-113944061D01*
X102911937Y-113943774D01*
X103025205Y-113774256D01*
X103103226Y-113585898D01*
X103143000Y-113385939D01*
X103143000Y-113182061D01*
X103103226Y-112982102D01*
X103025205Y-112793744D01*
X102911937Y-112624226D01*
X102767774Y-112480063D01*
X102598256Y-112366795D01*
X102409898Y-112288774D01*
X102209939Y-112249000D01*
X102006061Y-112249000D01*
X101806102Y-112288774D01*
X101617744Y-112366795D01*
X101448226Y-112480063D01*
X101304063Y-112624226D01*
X101190795Y-112793744D01*
X101112774Y-112982102D01*
X101073000Y-113182061D01*
X94207000Y-113182061D01*
X94207000Y-112488711D01*
X94275937Y-112419774D01*
X94389205Y-112250256D01*
X94467226Y-112061898D01*
X94507000Y-111861939D01*
X94507000Y-111658061D01*
X94467226Y-111458102D01*
X94389205Y-111269744D01*
X94275937Y-111100226D01*
X94131774Y-110956063D01*
X93962256Y-110842795D01*
X93773898Y-110764774D01*
X93573939Y-110725000D01*
X93370061Y-110725000D01*
X93170102Y-110764774D01*
X92981744Y-110842795D01*
X92812226Y-110956063D01*
X92668063Y-111100226D01*
X92554795Y-111269744D01*
X92476774Y-111458102D01*
X92437000Y-111658061D01*
X85660000Y-111658061D01*
X85660000Y-110388061D01*
X127743000Y-110388061D01*
X127743000Y-110591939D01*
X127782774Y-110791898D01*
X127860795Y-110980256D01*
X127974063Y-111149774D01*
X128043001Y-111218712D01*
X128043000Y-115905582D01*
X128039444Y-115941687D01*
X128052870Y-116078000D01*
X128053635Y-116085771D01*
X128095663Y-116224319D01*
X128163913Y-116352006D01*
X128255762Y-116463924D01*
X128283808Y-116486941D01*
X131447060Y-119650194D01*
X131470076Y-119678239D01*
X131581994Y-119770088D01*
X131709681Y-119838338D01*
X131805775Y-119867488D01*
X131898225Y-119959938D01*
X132067743Y-120073206D01*
X132256101Y-120151227D01*
X132456060Y-120191001D01*
X132659938Y-120191001D01*
X132859897Y-120151227D01*
X133048255Y-120073206D01*
X133123001Y-120023263D01*
X133123000Y-120778692D01*
X133078256Y-120748795D01*
X132889898Y-120670774D01*
X132689939Y-120631000D01*
X132486061Y-120631000D01*
X132286102Y-120670774D01*
X132097744Y-120748795D01*
X131928226Y-120862063D01*
X131784063Y-121006226D01*
X131670795Y-121175744D01*
X131592774Y-121364102D01*
X131553000Y-121564061D01*
X131553000Y-121767939D01*
X131592774Y-121967898D01*
X131670795Y-122156256D01*
X131784063Y-122325774D01*
X131853001Y-122394712D01*
X131853000Y-122969289D01*
X131784063Y-123038226D01*
X131670795Y-123207744D01*
X131592774Y-123396102D01*
X131553000Y-123596061D01*
X131553000Y-123799939D01*
X131592774Y-123999898D01*
X131670795Y-124188256D01*
X131784063Y-124357774D01*
X131928226Y-124501937D01*
X132097744Y-124615205D01*
X132286102Y-124693226D01*
X132486061Y-124733000D01*
X132689939Y-124733000D01*
X132889898Y-124693226D01*
X133078256Y-124615205D01*
X133223000Y-124518490D01*
X133367744Y-124615205D01*
X133556102Y-124693226D01*
X133756061Y-124733000D01*
X133959939Y-124733000D01*
X134159898Y-124693226D01*
X134348256Y-124615205D01*
X134517774Y-124501937D01*
X134661937Y-124357774D01*
X134775205Y-124188256D01*
X134853226Y-123999898D01*
X134893000Y-123799939D01*
X134893000Y-123596061D01*
X134853226Y-123396102D01*
X134775205Y-123207744D01*
X134661937Y-123038226D01*
X134593000Y-122969289D01*
X134593000Y-117822711D01*
X134661937Y-117753774D01*
X134775205Y-117584256D01*
X134853226Y-117395898D01*
X134893000Y-117195939D01*
X134893000Y-116992061D01*
X134857383Y-116813000D01*
X138139895Y-116813000D01*
X138176000Y-116816556D01*
X138212105Y-116813000D01*
X138320085Y-116802365D01*
X138458633Y-116760337D01*
X138586320Y-116692087D01*
X138698238Y-116600238D01*
X138721259Y-116572187D01*
X142498447Y-112795000D01*
X142595939Y-112795000D01*
X142795898Y-112755226D01*
X142984256Y-112677205D01*
X143153774Y-112563937D01*
X143297937Y-112419774D01*
X143411205Y-112250256D01*
X143489226Y-112061898D01*
X143529000Y-111861939D01*
X143529000Y-111658061D01*
X143489226Y-111458102D01*
X143411205Y-111269744D01*
X143297937Y-111100226D01*
X143153774Y-110956063D01*
X142984256Y-110842795D01*
X142795898Y-110764774D01*
X142595939Y-110725000D01*
X142392061Y-110725000D01*
X142192102Y-110764774D01*
X142003744Y-110842795D01*
X141834226Y-110956063D01*
X141690063Y-111100226D01*
X141576795Y-111269744D01*
X141498774Y-111458102D01*
X141459000Y-111658061D01*
X141459000Y-111755553D01*
X137871554Y-115343000D01*
X131205013Y-115343000D01*
X131172006Y-115315912D01*
X131044319Y-115247662D01*
X130948225Y-115218512D01*
X130855775Y-115126062D01*
X130686257Y-115012794D01*
X130497899Y-114934773D01*
X130297940Y-114894999D01*
X130094062Y-114894999D01*
X129894103Y-114934773D01*
X129705745Y-115012794D01*
X129536227Y-115126062D01*
X129513000Y-115149289D01*
X129513000Y-111218711D01*
X129581937Y-111149774D01*
X129695205Y-110980256D01*
X129773226Y-110791898D01*
X129813000Y-110591939D01*
X129813000Y-110388061D01*
X146539000Y-110388061D01*
X146539000Y-110591939D01*
X146578774Y-110791898D01*
X146656795Y-110980256D01*
X146770063Y-111149774D01*
X146839001Y-111218712D01*
X146839000Y-112301289D01*
X146770063Y-112370226D01*
X146656795Y-112539744D01*
X146578774Y-112728102D01*
X146539000Y-112928061D01*
X146539000Y-113131939D01*
X146578774Y-113331898D01*
X146656795Y-113520256D01*
X146770063Y-113689774D01*
X146914226Y-113833937D01*
X147083744Y-113947205D01*
X147272102Y-114025226D01*
X147472061Y-114065000D01*
X147675939Y-114065000D01*
X147875898Y-114025226D01*
X148064256Y-113947205D01*
X148233774Y-113833937D01*
X148377937Y-113689774D01*
X148491205Y-113520256D01*
X148569226Y-113331898D01*
X148609000Y-113131939D01*
X148609000Y-112928061D01*
X148569226Y-112728102D01*
X148491205Y-112539744D01*
X148377937Y-112370226D01*
X148309000Y-112301289D01*
X148309000Y-111218711D01*
X148377937Y-111149774D01*
X148491205Y-110980256D01*
X148569226Y-110791898D01*
X148609000Y-110591939D01*
X148609000Y-110388061D01*
X149079000Y-110388061D01*
X149079000Y-110591939D01*
X149118774Y-110791898D01*
X149196795Y-110980256D01*
X149310063Y-111149774D01*
X149379001Y-111218712D01*
X149379000Y-112301289D01*
X149310063Y-112370226D01*
X149196795Y-112539744D01*
X149118774Y-112728102D01*
X149079000Y-112928061D01*
X149079000Y-113131939D01*
X149118774Y-113331898D01*
X149196795Y-113520256D01*
X149310063Y-113689774D01*
X149454226Y-113833937D01*
X149623744Y-113947205D01*
X149812102Y-114025226D01*
X150012061Y-114065000D01*
X150215939Y-114065000D01*
X150415898Y-114025226D01*
X150604256Y-113947205D01*
X150622000Y-113935349D01*
X150639744Y-113947205D01*
X150828102Y-114025226D01*
X151028061Y-114065000D01*
X151231939Y-114065000D01*
X151431898Y-114025226D01*
X151620256Y-113947205D01*
X151789774Y-113833937D01*
X151933937Y-113689774D01*
X152047205Y-113520256D01*
X152125226Y-113331898D01*
X152165000Y-113131939D01*
X152165000Y-112928061D01*
X152125226Y-112728102D01*
X152047205Y-112539744D01*
X151933937Y-112370226D01*
X151865000Y-112301289D01*
X151865000Y-111218711D01*
X151933937Y-111149774D01*
X152047205Y-110980256D01*
X152125226Y-110791898D01*
X152165000Y-110591939D01*
X152165000Y-110388061D01*
X152125226Y-110188102D01*
X152047205Y-109999744D01*
X151933937Y-109830226D01*
X151789774Y-109686063D01*
X151620256Y-109572795D01*
X151431898Y-109494774D01*
X151231939Y-109455000D01*
X151028061Y-109455000D01*
X150828102Y-109494774D01*
X150639744Y-109572795D01*
X150622000Y-109584651D01*
X150604256Y-109572795D01*
X150415898Y-109494774D01*
X150215939Y-109455000D01*
X150012061Y-109455000D01*
X149812102Y-109494774D01*
X149623744Y-109572795D01*
X149454226Y-109686063D01*
X149310063Y-109830226D01*
X149196795Y-109999744D01*
X149118774Y-110188102D01*
X149079000Y-110388061D01*
X148609000Y-110388061D01*
X148569226Y-110188102D01*
X148491205Y-109999744D01*
X148377937Y-109830226D01*
X148233774Y-109686063D01*
X148064256Y-109572795D01*
X147875898Y-109494774D01*
X147675939Y-109455000D01*
X147472061Y-109455000D01*
X147272102Y-109494774D01*
X147083744Y-109572795D01*
X146914226Y-109686063D01*
X146770063Y-109830226D01*
X146656795Y-109999744D01*
X146578774Y-110188102D01*
X146539000Y-110388061D01*
X129813000Y-110388061D01*
X129773226Y-110188102D01*
X129695205Y-109999744D01*
X129581937Y-109830226D01*
X129437774Y-109686063D01*
X129268256Y-109572795D01*
X129079898Y-109494774D01*
X128879939Y-109455000D01*
X128676061Y-109455000D01*
X128476102Y-109494774D01*
X128287744Y-109572795D01*
X128118226Y-109686063D01*
X127974063Y-109830226D01*
X127860795Y-109999744D01*
X127782774Y-110188102D01*
X127743000Y-110388061D01*
X85660000Y-110388061D01*
X85660000Y-108356061D01*
X164573000Y-108356061D01*
X164573000Y-108559939D01*
X164612774Y-108759898D01*
X164690795Y-108948256D01*
X164804063Y-109117774D01*
X164873001Y-109186712D01*
X164873000Y-110015289D01*
X164804063Y-110084226D01*
X164690795Y-110253744D01*
X164612774Y-110442102D01*
X164573000Y-110642061D01*
X164573000Y-110845939D01*
X164612774Y-111045898D01*
X164690795Y-111234256D01*
X164804063Y-111403774D01*
X164948226Y-111547937D01*
X165117744Y-111661205D01*
X165306102Y-111739226D01*
X165506061Y-111779000D01*
X165709939Y-111779000D01*
X165909898Y-111739226D01*
X166098256Y-111661205D01*
X166267774Y-111547937D01*
X166411937Y-111403774D01*
X166525205Y-111234256D01*
X166603226Y-111045898D01*
X166643000Y-110845939D01*
X166643000Y-110642061D01*
X170415000Y-110642061D01*
X170415000Y-110845939D01*
X170454774Y-111045898D01*
X170532795Y-111234256D01*
X170646063Y-111403774D01*
X170715001Y-111472712D01*
X170715000Y-113063289D01*
X170646063Y-113132226D01*
X170532795Y-113301744D01*
X170454774Y-113490102D01*
X170415000Y-113690061D01*
X170415000Y-113893939D01*
X170454774Y-114093898D01*
X170532795Y-114282256D01*
X170646063Y-114451774D01*
X170790226Y-114595937D01*
X170959744Y-114709205D01*
X171148102Y-114787226D01*
X171348061Y-114827000D01*
X171551939Y-114827000D01*
X171751898Y-114787226D01*
X171940256Y-114709205D01*
X172109774Y-114595937D01*
X172253937Y-114451774D01*
X172367205Y-114282256D01*
X172445226Y-114093898D01*
X172485000Y-113893939D01*
X172485000Y-113690061D01*
X172445226Y-113490102D01*
X172367205Y-113301744D01*
X172253937Y-113132226D01*
X172185000Y-113063289D01*
X172185000Y-111472711D01*
X172253937Y-111403774D01*
X172367205Y-111234256D01*
X172445226Y-111045898D01*
X172485000Y-110845939D01*
X172485000Y-110642061D01*
X172445226Y-110442102D01*
X172367205Y-110253744D01*
X172253937Y-110084226D01*
X172109774Y-109940063D01*
X171940256Y-109826795D01*
X171751898Y-109748774D01*
X171551939Y-109709000D01*
X171348061Y-109709000D01*
X171148102Y-109748774D01*
X170959744Y-109826795D01*
X170790226Y-109940063D01*
X170646063Y-110084226D01*
X170532795Y-110253744D01*
X170454774Y-110442102D01*
X170415000Y-110642061D01*
X166643000Y-110642061D01*
X166603226Y-110442102D01*
X166525205Y-110253744D01*
X166411937Y-110084226D01*
X166343000Y-110015289D01*
X166343000Y-109285159D01*
X204324000Y-109285159D01*
X204324000Y-109958841D01*
X204455429Y-110619577D01*
X204713235Y-111241978D01*
X205087512Y-111802123D01*
X205563877Y-112278488D01*
X206124022Y-112652765D01*
X206746423Y-112910571D01*
X207407159Y-113042000D01*
X208080841Y-113042000D01*
X208741577Y-112910571D01*
X209363978Y-112652765D01*
X209924123Y-112278488D01*
X210400488Y-111802123D01*
X210774765Y-111241978D01*
X211032571Y-110619577D01*
X211164000Y-109958841D01*
X211164000Y-109285159D01*
X211032571Y-108624423D01*
X210774765Y-108002022D01*
X210400488Y-107441877D01*
X209924123Y-106965512D01*
X209363978Y-106591235D01*
X208741577Y-106333429D01*
X208080841Y-106202000D01*
X207407159Y-106202000D01*
X206746423Y-106333429D01*
X206124022Y-106591235D01*
X205563877Y-106965512D01*
X205087512Y-107441877D01*
X204713235Y-108002022D01*
X204455429Y-108624423D01*
X204324000Y-109285159D01*
X166343000Y-109285159D01*
X166343000Y-109186711D01*
X166411937Y-109117774D01*
X166525205Y-108948256D01*
X166603226Y-108759898D01*
X166643000Y-108559939D01*
X166643000Y-108356061D01*
X166603226Y-108156102D01*
X166525205Y-107967744D01*
X166411937Y-107798226D01*
X166267774Y-107654063D01*
X166098256Y-107540795D01*
X165909898Y-107462774D01*
X165709939Y-107423000D01*
X165506061Y-107423000D01*
X165306102Y-107462774D01*
X165117744Y-107540795D01*
X164948226Y-107654063D01*
X164804063Y-107798226D01*
X164690795Y-107967744D01*
X164612774Y-108156102D01*
X164573000Y-108356061D01*
X85660000Y-108356061D01*
X85660000Y-89066000D01*
X87665928Y-89066000D01*
X87665928Y-90766000D01*
X87678188Y-90890482D01*
X87714498Y-91010180D01*
X87773463Y-91120494D01*
X87852815Y-91217185D01*
X87949506Y-91296537D01*
X88059820Y-91355502D01*
X88179518Y-91391812D01*
X88304000Y-91404072D01*
X90004000Y-91404072D01*
X90128482Y-91391812D01*
X90248180Y-91355502D01*
X90358494Y-91296537D01*
X90455185Y-91217185D01*
X90534537Y-91120494D01*
X90554011Y-91084061D01*
X92437000Y-91084061D01*
X92437000Y-91287939D01*
X92476774Y-91487898D01*
X92554795Y-91676256D01*
X92668063Y-91845774D01*
X92737001Y-91914712D01*
X92737000Y-95029289D01*
X92668063Y-95098226D01*
X92554795Y-95267744D01*
X92476774Y-95456102D01*
X92437000Y-95656061D01*
X92437000Y-95859939D01*
X92476774Y-96059898D01*
X92554795Y-96248256D01*
X92668063Y-96417774D01*
X92812226Y-96561937D01*
X92981744Y-96675205D01*
X93170102Y-96753226D01*
X93370061Y-96793000D01*
X93573939Y-96793000D01*
X93773898Y-96753226D01*
X93962256Y-96675205D01*
X94131774Y-96561937D01*
X94275937Y-96417774D01*
X94389205Y-96248256D01*
X94467226Y-96059898D01*
X94507000Y-95859939D01*
X94507000Y-95656061D01*
X94467226Y-95456102D01*
X94389205Y-95267744D01*
X94275937Y-95098226D01*
X94207000Y-95029289D01*
X94207000Y-92862061D01*
X101073000Y-92862061D01*
X101073000Y-93065939D01*
X101112774Y-93265898D01*
X101190795Y-93454256D01*
X101304063Y-93623774D01*
X101373001Y-93692712D01*
X101373000Y-97569289D01*
X101304063Y-97638226D01*
X101190795Y-97807744D01*
X101112774Y-97996102D01*
X101073000Y-98196061D01*
X101073000Y-98399939D01*
X101112774Y-98599898D01*
X101190795Y-98788256D01*
X101304063Y-98957774D01*
X101448226Y-99101937D01*
X101617744Y-99215205D01*
X101806102Y-99293226D01*
X102006061Y-99333000D01*
X102209939Y-99333000D01*
X102409898Y-99293226D01*
X102598256Y-99215205D01*
X102767774Y-99101937D01*
X102911937Y-98957774D01*
X103025205Y-98788256D01*
X103103226Y-98599898D01*
X103143000Y-98399939D01*
X103143000Y-98196061D01*
X103103226Y-97996102D01*
X103025205Y-97807744D01*
X102911937Y-97638226D01*
X102843000Y-97569289D01*
X102843000Y-93692711D01*
X102911937Y-93623774D01*
X103025205Y-93454256D01*
X103060079Y-93370061D01*
X107169000Y-93370061D01*
X107169000Y-93573939D01*
X107208774Y-93773898D01*
X107286795Y-93962256D01*
X107400063Y-94131774D01*
X107469001Y-94200712D01*
X107469000Y-97315289D01*
X107400063Y-97384226D01*
X107286795Y-97553744D01*
X107208774Y-97742102D01*
X107169000Y-97942061D01*
X107169000Y-98145939D01*
X107208774Y-98345898D01*
X107286795Y-98534256D01*
X107400063Y-98703774D01*
X107469001Y-98772712D01*
X107469000Y-101379289D01*
X107400063Y-101448226D01*
X107286795Y-101617744D01*
X107208774Y-101806102D01*
X107169000Y-102006061D01*
X107169000Y-102209939D01*
X107208774Y-102409898D01*
X107286795Y-102598256D01*
X107400063Y-102767774D01*
X107544226Y-102911937D01*
X107713744Y-103025205D01*
X107902102Y-103103226D01*
X108102061Y-103143000D01*
X108305939Y-103143000D01*
X108505898Y-103103226D01*
X108694256Y-103025205D01*
X108863774Y-102911937D01*
X109007937Y-102767774D01*
X109121205Y-102598256D01*
X109199226Y-102409898D01*
X109239000Y-102209939D01*
X109239000Y-102006061D01*
X109199226Y-101806102D01*
X109121205Y-101617744D01*
X109007937Y-101448226D01*
X108939000Y-101379289D01*
X108939000Y-99974061D01*
X109963000Y-99974061D01*
X109963000Y-100177939D01*
X110002774Y-100377898D01*
X110080795Y-100566256D01*
X110194063Y-100735774D01*
X110263001Y-100804712D01*
X110263000Y-104427289D01*
X110194063Y-104496226D01*
X110080795Y-104665744D01*
X110002774Y-104854102D01*
X109963000Y-105054061D01*
X109963000Y-105257939D01*
X110002774Y-105457898D01*
X110080795Y-105646256D01*
X110194063Y-105815774D01*
X110338226Y-105959937D01*
X110507744Y-106073205D01*
X110696102Y-106151226D01*
X110896061Y-106191000D01*
X111099939Y-106191000D01*
X111299898Y-106151226D01*
X111488256Y-106073205D01*
X111657774Y-105959937D01*
X111801937Y-105815774D01*
X111915205Y-105646256D01*
X111993226Y-105457898D01*
X112033000Y-105257939D01*
X112033000Y-105054061D01*
X111993226Y-104854102D01*
X111915205Y-104665744D01*
X111801937Y-104496226D01*
X111733000Y-104427289D01*
X111733000Y-102006061D01*
X114535000Y-102006061D01*
X114535000Y-102209939D01*
X114574774Y-102409898D01*
X114652795Y-102598256D01*
X114766063Y-102767774D01*
X114835001Y-102836712D01*
X114835000Y-104427289D01*
X114766063Y-104496226D01*
X114652795Y-104665744D01*
X114574774Y-104854102D01*
X114535000Y-105054061D01*
X114535000Y-105257939D01*
X114574774Y-105457898D01*
X114652795Y-105646256D01*
X114766063Y-105815774D01*
X114910226Y-105959937D01*
X115079744Y-106073205D01*
X115268102Y-106151226D01*
X115468061Y-106191000D01*
X115551000Y-106191000D01*
X115551000Y-106273939D01*
X115590774Y-106473898D01*
X115668795Y-106662256D01*
X115782063Y-106831774D01*
X115926226Y-106975937D01*
X116095744Y-107089205D01*
X116284102Y-107167226D01*
X116484061Y-107207000D01*
X116687939Y-107207000D01*
X116887898Y-107167226D01*
X117076256Y-107089205D01*
X117245774Y-106975937D01*
X117389937Y-106831774D01*
X117503205Y-106662256D01*
X117581226Y-106473898D01*
X117621000Y-106273939D01*
X117621000Y-106070061D01*
X117581226Y-105870102D01*
X117503205Y-105681744D01*
X117389937Y-105512226D01*
X117321000Y-105443289D01*
X117321000Y-103852711D01*
X117389937Y-103783774D01*
X117503205Y-103614256D01*
X117581226Y-103425898D01*
X117621000Y-103225939D01*
X117621000Y-103022061D01*
X117581226Y-102822102D01*
X117503205Y-102633744D01*
X117389937Y-102464226D01*
X117245774Y-102320063D01*
X117076256Y-102206795D01*
X116887898Y-102128774D01*
X116687939Y-102089000D01*
X116605000Y-102089000D01*
X116605000Y-102006061D01*
X116565226Y-101806102D01*
X116487205Y-101617744D01*
X116373937Y-101448226D01*
X116229774Y-101304063D01*
X116060256Y-101190795D01*
X115871898Y-101112774D01*
X115671939Y-101073000D01*
X115468061Y-101073000D01*
X115268102Y-101112774D01*
X115079744Y-101190795D01*
X114910226Y-101304063D01*
X114766063Y-101448226D01*
X114652795Y-101617744D01*
X114574774Y-101806102D01*
X114535000Y-102006061D01*
X111733000Y-102006061D01*
X111733000Y-100804711D01*
X111801937Y-100735774D01*
X111915205Y-100566256D01*
X111993226Y-100377898D01*
X112033000Y-100177939D01*
X112033000Y-99974061D01*
X111993226Y-99774102D01*
X111915205Y-99585744D01*
X111801937Y-99416226D01*
X111657774Y-99272063D01*
X111488256Y-99158795D01*
X111299898Y-99080774D01*
X111099939Y-99041000D01*
X110896061Y-99041000D01*
X110696102Y-99080774D01*
X110507744Y-99158795D01*
X110338226Y-99272063D01*
X110194063Y-99416226D01*
X110080795Y-99585744D01*
X110002774Y-99774102D01*
X109963000Y-99974061D01*
X108939000Y-99974061D01*
X108939000Y-98772711D01*
X109007937Y-98703774D01*
X109121205Y-98534256D01*
X109199226Y-98345898D01*
X109239000Y-98145939D01*
X109239000Y-97942061D01*
X109199226Y-97742102D01*
X109121205Y-97553744D01*
X109007937Y-97384226D01*
X108939000Y-97315289D01*
X108939000Y-94200711D01*
X109007937Y-94131774D01*
X109121205Y-93962256D01*
X109199226Y-93773898D01*
X109239000Y-93573939D01*
X109239000Y-93370061D01*
X109199226Y-93170102D01*
X109121205Y-92981744D01*
X109007937Y-92812226D01*
X108863774Y-92668063D01*
X108694256Y-92554795D01*
X108505898Y-92476774D01*
X108305939Y-92437000D01*
X108102061Y-92437000D01*
X107902102Y-92476774D01*
X107713744Y-92554795D01*
X107544226Y-92668063D01*
X107400063Y-92812226D01*
X107286795Y-92981744D01*
X107208774Y-93170102D01*
X107169000Y-93370061D01*
X103060079Y-93370061D01*
X103103226Y-93265898D01*
X103143000Y-93065939D01*
X103143000Y-92862061D01*
X103103226Y-92662102D01*
X103025205Y-92473744D01*
X102911937Y-92304226D01*
X102767774Y-92160063D01*
X102598256Y-92046795D01*
X102409898Y-91968774D01*
X102209939Y-91929000D01*
X102006061Y-91929000D01*
X101806102Y-91968774D01*
X101617744Y-92046795D01*
X101448226Y-92160063D01*
X101304063Y-92304226D01*
X101190795Y-92473744D01*
X101112774Y-92662102D01*
X101073000Y-92862061D01*
X94207000Y-92862061D01*
X94207000Y-91914711D01*
X94275937Y-91845774D01*
X94389205Y-91676256D01*
X94467226Y-91487898D01*
X94507000Y-91287939D01*
X94507000Y-91084061D01*
X94467226Y-90884102D01*
X94389205Y-90695744D01*
X94275937Y-90526226D01*
X94131774Y-90382063D01*
X93962256Y-90268795D01*
X93773898Y-90190774D01*
X93573939Y-90151000D01*
X93370061Y-90151000D01*
X93170102Y-90190774D01*
X92981744Y-90268795D01*
X92812226Y-90382063D01*
X92668063Y-90526226D01*
X92554795Y-90695744D01*
X92476774Y-90884102D01*
X92437000Y-91084061D01*
X90554011Y-91084061D01*
X90593502Y-91010180D01*
X90629812Y-90890482D01*
X90642072Y-90766000D01*
X90642072Y-90068061D01*
X128505000Y-90068061D01*
X128505000Y-90271939D01*
X128544774Y-90471898D01*
X128622795Y-90660256D01*
X128736063Y-90829774D01*
X128805001Y-90898712D01*
X128805000Y-96541580D01*
X128801444Y-96577685D01*
X128815635Y-96721770D01*
X128828384Y-96763798D01*
X128857663Y-96860317D01*
X128925913Y-96988004D01*
X129017762Y-97099922D01*
X129045808Y-97122939D01*
X131403062Y-99480194D01*
X131426078Y-99508239D01*
X131537996Y-99600088D01*
X131665683Y-99668338D01*
X131761777Y-99697488D01*
X131854227Y-99789938D01*
X132023745Y-99903206D01*
X132212103Y-99981227D01*
X132412062Y-100021001D01*
X132615940Y-100021001D01*
X132815899Y-99981227D01*
X133004257Y-99903206D01*
X133123001Y-99823864D01*
X133123000Y-100458692D01*
X133078256Y-100428795D01*
X132889898Y-100350774D01*
X132689939Y-100311000D01*
X132486061Y-100311000D01*
X132286102Y-100350774D01*
X132097744Y-100428795D01*
X131928226Y-100542063D01*
X131784063Y-100686226D01*
X131670795Y-100855744D01*
X131592774Y-101044102D01*
X131553000Y-101244061D01*
X131553000Y-101447939D01*
X131592774Y-101647898D01*
X131670795Y-101836256D01*
X131784063Y-102005774D01*
X131853001Y-102074712D01*
X131853000Y-102649289D01*
X131784063Y-102718226D01*
X131670795Y-102887744D01*
X131592774Y-103076102D01*
X131553000Y-103276061D01*
X131553000Y-103479939D01*
X131592774Y-103679898D01*
X131670795Y-103868256D01*
X131784063Y-104037774D01*
X131928226Y-104181937D01*
X132097744Y-104295205D01*
X132286102Y-104373226D01*
X132486061Y-104413000D01*
X132689939Y-104413000D01*
X132889898Y-104373226D01*
X133078256Y-104295205D01*
X133223000Y-104198490D01*
X133367744Y-104295205D01*
X133556102Y-104373226D01*
X133756061Y-104413000D01*
X133959939Y-104413000D01*
X134159898Y-104373226D01*
X134348256Y-104295205D01*
X134517774Y-104181937D01*
X134661937Y-104037774D01*
X134712017Y-103962823D01*
X232344000Y-103962823D01*
X232344000Y-105661178D01*
X232365849Y-105883012D01*
X232452193Y-106167648D01*
X232592407Y-106429970D01*
X232781104Y-106659897D01*
X233011031Y-106848594D01*
X233273353Y-106988808D01*
X233557989Y-107075151D01*
X233854000Y-107104306D01*
X234150012Y-107075151D01*
X234434648Y-106988808D01*
X234696970Y-106848594D01*
X234926897Y-106659897D01*
X235115594Y-106429970D01*
X235255808Y-106167648D01*
X235342151Y-105883012D01*
X235364000Y-105661178D01*
X235364000Y-103962822D01*
X235342151Y-103740988D01*
X235255808Y-103456352D01*
X235115594Y-103194030D01*
X234926897Y-102964103D01*
X234696969Y-102775406D01*
X234434647Y-102635192D01*
X234150011Y-102548849D01*
X233854000Y-102519694D01*
X233557988Y-102548849D01*
X233273352Y-102635192D01*
X233011030Y-102775406D01*
X232781103Y-102964103D01*
X232592406Y-103194031D01*
X232452192Y-103456353D01*
X232365849Y-103740989D01*
X232344000Y-103962823D01*
X134712017Y-103962823D01*
X134775205Y-103868256D01*
X134853226Y-103679898D01*
X134893000Y-103479939D01*
X134893000Y-103276061D01*
X134853226Y-103076102D01*
X134775205Y-102887744D01*
X134661937Y-102718226D01*
X134593000Y-102649289D01*
X134593000Y-97772713D01*
X134669938Y-97695775D01*
X134783206Y-97526257D01*
X134861227Y-97337899D01*
X134901001Y-97137940D01*
X134901001Y-96934062D01*
X134863792Y-96747000D01*
X138139895Y-96747000D01*
X138176000Y-96750556D01*
X138212105Y-96747000D01*
X138320085Y-96736365D01*
X138458633Y-96694337D01*
X138586320Y-96626087D01*
X138698238Y-96534238D01*
X138721259Y-96506187D01*
X142498447Y-92729000D01*
X142595939Y-92729000D01*
X142795898Y-92689226D01*
X142984256Y-92611205D01*
X143153774Y-92497937D01*
X143297937Y-92353774D01*
X143411205Y-92184256D01*
X143489226Y-91995898D01*
X143529000Y-91795939D01*
X143529000Y-91592061D01*
X143489226Y-91392102D01*
X143411205Y-91203744D01*
X143297937Y-91034226D01*
X143153774Y-90890063D01*
X142984256Y-90776795D01*
X142795898Y-90698774D01*
X142595939Y-90659000D01*
X142392061Y-90659000D01*
X142192102Y-90698774D01*
X142003744Y-90776795D01*
X141834226Y-90890063D01*
X141690063Y-91034226D01*
X141576795Y-91203744D01*
X141498774Y-91392102D01*
X141459000Y-91592061D01*
X141459000Y-91689553D01*
X137871554Y-95277000D01*
X131185355Y-95277000D01*
X131081938Y-95122225D01*
X130937775Y-94978062D01*
X130768257Y-94864794D01*
X130579899Y-94786773D01*
X130379940Y-94746999D01*
X130275000Y-94746999D01*
X130275000Y-90898711D01*
X130343937Y-90829774D01*
X130457205Y-90660256D01*
X130535226Y-90471898D01*
X130565030Y-90322061D01*
X149079000Y-90322061D01*
X149079000Y-90525939D01*
X149118774Y-90725898D01*
X149196795Y-90914256D01*
X149310063Y-91083774D01*
X149379001Y-91152712D01*
X149379000Y-92235289D01*
X149310063Y-92304226D01*
X149196795Y-92473744D01*
X149118774Y-92662102D01*
X149079000Y-92862061D01*
X149079000Y-93065939D01*
X149118774Y-93265898D01*
X149196795Y-93454256D01*
X149310063Y-93623774D01*
X149454226Y-93767937D01*
X149623744Y-93881205D01*
X149812102Y-93959226D01*
X150012061Y-93999000D01*
X150215939Y-93999000D01*
X150415898Y-93959226D01*
X150604256Y-93881205D01*
X150622000Y-93869349D01*
X150639744Y-93881205D01*
X150828102Y-93959226D01*
X151028061Y-93999000D01*
X151231939Y-93999000D01*
X151431898Y-93959226D01*
X151620256Y-93881205D01*
X151789774Y-93767937D01*
X151933937Y-93623774D01*
X152047205Y-93454256D01*
X152125226Y-93265898D01*
X152165000Y-93065939D01*
X152165000Y-92862061D01*
X152125226Y-92662102D01*
X152047205Y-92473744D01*
X151933937Y-92304226D01*
X151865000Y-92235289D01*
X151865000Y-91152711D01*
X151933937Y-91083774D01*
X152047205Y-90914256D01*
X152125226Y-90725898D01*
X152165000Y-90525939D01*
X152165000Y-90322061D01*
X152125226Y-90122102D01*
X152047205Y-89933744D01*
X151933937Y-89764226D01*
X151789774Y-89620063D01*
X151620256Y-89506795D01*
X151431898Y-89428774D01*
X151231939Y-89389000D01*
X151028061Y-89389000D01*
X150828102Y-89428774D01*
X150639744Y-89506795D01*
X150622000Y-89518651D01*
X150604256Y-89506795D01*
X150415898Y-89428774D01*
X150215939Y-89389000D01*
X150012061Y-89389000D01*
X149812102Y-89428774D01*
X149623744Y-89506795D01*
X149454226Y-89620063D01*
X149310063Y-89764226D01*
X149196795Y-89933744D01*
X149118774Y-90122102D01*
X149079000Y-90322061D01*
X130565030Y-90322061D01*
X130575000Y-90271939D01*
X130575000Y-90068061D01*
X130535226Y-89868102D01*
X130457205Y-89679744D01*
X130343937Y-89510226D01*
X130199774Y-89366063D01*
X130030256Y-89252795D01*
X129841898Y-89174774D01*
X129641939Y-89135000D01*
X129438061Y-89135000D01*
X129238102Y-89174774D01*
X129049744Y-89252795D01*
X128880226Y-89366063D01*
X128736063Y-89510226D01*
X128622795Y-89679744D01*
X128544774Y-89868102D01*
X128505000Y-90068061D01*
X90642072Y-90068061D01*
X90642072Y-89066000D01*
X90629812Y-88941518D01*
X90593502Y-88821820D01*
X90534537Y-88711506D01*
X90455185Y-88614815D01*
X90358494Y-88535463D01*
X90248180Y-88476498D01*
X90175620Y-88454487D01*
X90307475Y-88322632D01*
X90469990Y-88079411D01*
X90487946Y-88036061D01*
X164573000Y-88036061D01*
X164573000Y-88239939D01*
X164612774Y-88439898D01*
X164690795Y-88628256D01*
X164804063Y-88797774D01*
X164873001Y-88866712D01*
X164873000Y-89695289D01*
X164804063Y-89764226D01*
X164690795Y-89933744D01*
X164612774Y-90122102D01*
X164573000Y-90322061D01*
X164573000Y-90525939D01*
X164612774Y-90725898D01*
X164690795Y-90914256D01*
X164804063Y-91083774D01*
X164948226Y-91227937D01*
X165117744Y-91341205D01*
X165306102Y-91419226D01*
X165506061Y-91459000D01*
X165709939Y-91459000D01*
X165909898Y-91419226D01*
X166098256Y-91341205D01*
X166267774Y-91227937D01*
X166411937Y-91083774D01*
X166525205Y-90914256D01*
X166603226Y-90725898D01*
X166643000Y-90525939D01*
X166643000Y-90322061D01*
X166603226Y-90122102D01*
X166580842Y-90068061D01*
X170415000Y-90068061D01*
X170415000Y-90271939D01*
X170454774Y-90471898D01*
X170532795Y-90660256D01*
X170646063Y-90829774D01*
X170715001Y-90898712D01*
X170715000Y-92997289D01*
X170646063Y-93066226D01*
X170532795Y-93235744D01*
X170454774Y-93424102D01*
X170415000Y-93624061D01*
X170415000Y-93827939D01*
X170454774Y-94027898D01*
X170532795Y-94216256D01*
X170646063Y-94385774D01*
X170790226Y-94529937D01*
X170959744Y-94643205D01*
X171148102Y-94721226D01*
X171348061Y-94761000D01*
X171551939Y-94761000D01*
X171751898Y-94721226D01*
X171940256Y-94643205D01*
X172109774Y-94529937D01*
X172253937Y-94385774D01*
X172367205Y-94216256D01*
X172445226Y-94027898D01*
X172485000Y-93827939D01*
X172485000Y-93624061D01*
X172445226Y-93424102D01*
X172367205Y-93235744D01*
X172253937Y-93066226D01*
X172185000Y-92997289D01*
X172185000Y-91989000D01*
X232344000Y-91989000D01*
X232344000Y-92764000D01*
X232397791Y-93056146D01*
X232507543Y-93332185D01*
X232669039Y-93581508D01*
X232876072Y-93794534D01*
X233120686Y-93963077D01*
X233393481Y-94080659D01*
X233493184Y-94103258D01*
X233727000Y-93982269D01*
X233727000Y-91989000D01*
X233981000Y-91989000D01*
X233981000Y-93982269D01*
X234214816Y-94103258D01*
X234314519Y-94080659D01*
X234587314Y-93963077D01*
X234831928Y-93794534D01*
X235038961Y-93581508D01*
X235200457Y-93332185D01*
X235310209Y-93056146D01*
X235364000Y-92764000D01*
X235364000Y-91989000D01*
X233981000Y-91989000D01*
X233727000Y-91989000D01*
X232344000Y-91989000D01*
X172185000Y-91989000D01*
X172185000Y-90960000D01*
X232344000Y-90960000D01*
X232344000Y-91735000D01*
X233727000Y-91735000D01*
X233727000Y-89741731D01*
X233981000Y-89741731D01*
X233981000Y-91735000D01*
X235364000Y-91735000D01*
X235364000Y-90960000D01*
X235310209Y-90667854D01*
X235200457Y-90391815D01*
X235038961Y-90142492D01*
X234831928Y-89929466D01*
X234587314Y-89760923D01*
X234314519Y-89643341D01*
X234214816Y-89620742D01*
X233981000Y-89741731D01*
X233727000Y-89741731D01*
X233493184Y-89620742D01*
X233393481Y-89643341D01*
X233120686Y-89760923D01*
X232876072Y-89929466D01*
X232669039Y-90142492D01*
X232507543Y-90391815D01*
X232397791Y-90667854D01*
X232344000Y-90960000D01*
X172185000Y-90960000D01*
X172185000Y-90898711D01*
X172253937Y-90829774D01*
X172367205Y-90660256D01*
X172445226Y-90471898D01*
X172485000Y-90271939D01*
X172485000Y-90068061D01*
X172445226Y-89868102D01*
X172367205Y-89679744D01*
X172253937Y-89510226D01*
X172109774Y-89366063D01*
X171940256Y-89252795D01*
X171751898Y-89174774D01*
X171551939Y-89135000D01*
X171348061Y-89135000D01*
X171148102Y-89174774D01*
X170959744Y-89252795D01*
X170790226Y-89366063D01*
X170646063Y-89510226D01*
X170532795Y-89679744D01*
X170454774Y-89868102D01*
X170415000Y-90068061D01*
X166580842Y-90068061D01*
X166525205Y-89933744D01*
X166411937Y-89764226D01*
X166343000Y-89695289D01*
X166343000Y-88866711D01*
X166411937Y-88797774D01*
X166525205Y-88628256D01*
X166603226Y-88439898D01*
X166643000Y-88239939D01*
X166643000Y-88036061D01*
X166603226Y-87836102D01*
X166525205Y-87647744D01*
X166411937Y-87478226D01*
X166267774Y-87334063D01*
X166098256Y-87220795D01*
X165909898Y-87142774D01*
X165709939Y-87103000D01*
X165506061Y-87103000D01*
X165306102Y-87142774D01*
X165117744Y-87220795D01*
X164948226Y-87334063D01*
X164804063Y-87478226D01*
X164690795Y-87647744D01*
X164612774Y-87836102D01*
X164573000Y-88036061D01*
X90487946Y-88036061D01*
X90581932Y-87809158D01*
X90639000Y-87522260D01*
X90639000Y-87229740D01*
X90581932Y-86942842D01*
X90469990Y-86672589D01*
X90307475Y-86429368D01*
X90100632Y-86222525D01*
X89926240Y-86106000D01*
X90100632Y-85989475D01*
X90307475Y-85782632D01*
X90469990Y-85539411D01*
X90581932Y-85269158D01*
X90639000Y-84982260D01*
X90639000Y-84689740D01*
X90581932Y-84402842D01*
X90469990Y-84132589D01*
X90307475Y-83889368D01*
X90100632Y-83682525D01*
X89926240Y-83566000D01*
X90100632Y-83449475D01*
X90307475Y-83242632D01*
X90469990Y-82999411D01*
X90581932Y-82729158D01*
X90639000Y-82442260D01*
X90639000Y-82149740D01*
X90581932Y-81862842D01*
X90469990Y-81592589D01*
X90307475Y-81349368D01*
X90100632Y-81142525D01*
X89926240Y-81026000D01*
X90100632Y-80909475D01*
X90307475Y-80702632D01*
X90469990Y-80459411D01*
X90581932Y-80189158D01*
X90639000Y-79902260D01*
X90639000Y-79609740D01*
X90581932Y-79322842D01*
X90469990Y-79052589D01*
X90307475Y-78809368D01*
X90100632Y-78602525D01*
X89857411Y-78440010D01*
X89587158Y-78328068D01*
X89300260Y-78271000D01*
X89007740Y-78271000D01*
X88720842Y-78328068D01*
X88450589Y-78440010D01*
X88207368Y-78602525D01*
X88000525Y-78809368D01*
X87838010Y-79052589D01*
X87726068Y-79322842D01*
X87669000Y-79609740D01*
X87669000Y-79902260D01*
X87726068Y-80189158D01*
X87838010Y-80459411D01*
X88000525Y-80702632D01*
X88207368Y-80909475D01*
X88381760Y-81026000D01*
X88207368Y-81142525D01*
X88000525Y-81349368D01*
X87838010Y-81592589D01*
X87726068Y-81862842D01*
X87669000Y-82149740D01*
X87669000Y-82442260D01*
X87726068Y-82729158D01*
X87838010Y-82999411D01*
X88000525Y-83242632D01*
X88207368Y-83449475D01*
X88381760Y-83566000D01*
X88207368Y-83682525D01*
X88000525Y-83889368D01*
X87838010Y-84132589D01*
X87726068Y-84402842D01*
X87669000Y-84689740D01*
X87669000Y-84982260D01*
X87726068Y-85269158D01*
X87838010Y-85539411D01*
X88000525Y-85782632D01*
X88207368Y-85989475D01*
X88381760Y-86106000D01*
X88207368Y-86222525D01*
X88000525Y-86429368D01*
X87838010Y-86672589D01*
X87726068Y-86942842D01*
X87669000Y-87229740D01*
X87669000Y-87522260D01*
X87726068Y-87809158D01*
X87838010Y-88079411D01*
X88000525Y-88322632D01*
X88132380Y-88454487D01*
X88059820Y-88476498D01*
X87949506Y-88535463D01*
X87852815Y-88614815D01*
X87773463Y-88711506D01*
X87714498Y-88821820D01*
X87678188Y-88941518D01*
X87665928Y-89066000D01*
X85660000Y-89066000D01*
X85660000Y-71018061D01*
X92437000Y-71018061D01*
X92437000Y-71221939D01*
X92476774Y-71421898D01*
X92554795Y-71610256D01*
X92668063Y-71779774D01*
X92737001Y-71848712D01*
X92737000Y-79027289D01*
X92668063Y-79096226D01*
X92554795Y-79265744D01*
X92476774Y-79454102D01*
X92437000Y-79654061D01*
X92437000Y-79857939D01*
X92476774Y-80057898D01*
X92554795Y-80246256D01*
X92668063Y-80415774D01*
X92812226Y-80559937D01*
X92981744Y-80673205D01*
X93170102Y-80751226D01*
X93370061Y-80791000D01*
X93573939Y-80791000D01*
X93773898Y-80751226D01*
X93962256Y-80673205D01*
X94131774Y-80559937D01*
X94275937Y-80415774D01*
X94389205Y-80246256D01*
X94467226Y-80057898D01*
X94507000Y-79857939D01*
X94507000Y-79654061D01*
X94467226Y-79454102D01*
X94389205Y-79265744D01*
X94275937Y-79096226D01*
X94207000Y-79027289D01*
X94207000Y-72542061D01*
X101073000Y-72542061D01*
X101073000Y-72745939D01*
X101112774Y-72945898D01*
X101190795Y-73134256D01*
X101304063Y-73303774D01*
X101373001Y-73372712D01*
X101373000Y-77249289D01*
X101304063Y-77318226D01*
X101190795Y-77487744D01*
X101112774Y-77676102D01*
X101073000Y-77876061D01*
X101073000Y-78079939D01*
X101112774Y-78279898D01*
X101190795Y-78468256D01*
X101304063Y-78637774D01*
X101448226Y-78781937D01*
X101617744Y-78895205D01*
X101806102Y-78973226D01*
X102006061Y-79013000D01*
X102209939Y-79013000D01*
X102409898Y-78973226D01*
X102598256Y-78895205D01*
X102767774Y-78781937D01*
X102911937Y-78637774D01*
X103025205Y-78468256D01*
X103103226Y-78279898D01*
X103143000Y-78079939D01*
X103143000Y-77876061D01*
X103103226Y-77676102D01*
X103025205Y-77487744D01*
X102911937Y-77318226D01*
X102843000Y-77249289D01*
X102843000Y-73372711D01*
X102911937Y-73303774D01*
X103025205Y-73134256D01*
X103060079Y-73050061D01*
X107169000Y-73050061D01*
X107169000Y-73253939D01*
X107208774Y-73453898D01*
X107286795Y-73642256D01*
X107400063Y-73811774D01*
X107469001Y-73880712D01*
X107469000Y-76995289D01*
X107400063Y-77064226D01*
X107286795Y-77233744D01*
X107208774Y-77422102D01*
X107169000Y-77622061D01*
X107169000Y-77825939D01*
X107208774Y-78025898D01*
X107286795Y-78214256D01*
X107400063Y-78383774D01*
X107469001Y-78452712D01*
X107469000Y-81059289D01*
X107400063Y-81128226D01*
X107286795Y-81297744D01*
X107208774Y-81486102D01*
X107169000Y-81686061D01*
X107169000Y-81889939D01*
X107208774Y-82089898D01*
X107286795Y-82278256D01*
X107400063Y-82447774D01*
X107544226Y-82591937D01*
X107713744Y-82705205D01*
X107902102Y-82783226D01*
X108102061Y-82823000D01*
X108305939Y-82823000D01*
X108505898Y-82783226D01*
X108694256Y-82705205D01*
X108863774Y-82591937D01*
X109007937Y-82447774D01*
X109121205Y-82278256D01*
X109199226Y-82089898D01*
X109239000Y-81889939D01*
X109239000Y-81686061D01*
X109199226Y-81486102D01*
X109121205Y-81297744D01*
X109007937Y-81128226D01*
X108939000Y-81059289D01*
X108939000Y-79654061D01*
X109963000Y-79654061D01*
X109963000Y-79857939D01*
X110002774Y-80057898D01*
X110080795Y-80246256D01*
X110194063Y-80415774D01*
X110263001Y-80484712D01*
X110263000Y-84361289D01*
X110194063Y-84430226D01*
X110080795Y-84599744D01*
X110002774Y-84788102D01*
X109963000Y-84988061D01*
X109963000Y-85191939D01*
X110002774Y-85391898D01*
X110080795Y-85580256D01*
X110194063Y-85749774D01*
X110338226Y-85893937D01*
X110507744Y-86007205D01*
X110696102Y-86085226D01*
X110896061Y-86125000D01*
X111099939Y-86125000D01*
X111299898Y-86085226D01*
X111488256Y-86007205D01*
X111657774Y-85893937D01*
X111801937Y-85749774D01*
X111915205Y-85580256D01*
X111993226Y-85391898D01*
X112033000Y-85191939D01*
X112033000Y-84988061D01*
X111993226Y-84788102D01*
X111915205Y-84599744D01*
X111801937Y-84430226D01*
X111733000Y-84361289D01*
X111733000Y-82448061D01*
X115551000Y-82448061D01*
X115551000Y-82651939D01*
X115590774Y-82851898D01*
X115668795Y-83040256D01*
X115782063Y-83209774D01*
X115851001Y-83278712D01*
X115851000Y-85123289D01*
X115782063Y-85192226D01*
X115668795Y-85361744D01*
X115590774Y-85550102D01*
X115551000Y-85750061D01*
X115551000Y-85953939D01*
X115590774Y-86153898D01*
X115668795Y-86342256D01*
X115782063Y-86511774D01*
X115926226Y-86655937D01*
X116095744Y-86769205D01*
X116284102Y-86847226D01*
X116484061Y-86887000D01*
X116687939Y-86887000D01*
X116887898Y-86847226D01*
X117037739Y-86785159D01*
X190944000Y-86785159D01*
X190944000Y-87458841D01*
X191075429Y-88119577D01*
X191333235Y-88741978D01*
X191707512Y-89302123D01*
X192183877Y-89778488D01*
X192744022Y-90152765D01*
X193366423Y-90410571D01*
X194027159Y-90542000D01*
X194700841Y-90542000D01*
X195361577Y-90410571D01*
X195983978Y-90152765D01*
X196544123Y-89778488D01*
X197020488Y-89302123D01*
X197394765Y-88741978D01*
X197652571Y-88119577D01*
X197784000Y-87458841D01*
X197784000Y-86785159D01*
X217814000Y-86785159D01*
X217814000Y-87458841D01*
X217945429Y-88119577D01*
X218203235Y-88741978D01*
X218577512Y-89302123D01*
X219053877Y-89778488D01*
X219614022Y-90152765D01*
X220236423Y-90410571D01*
X220897159Y-90542000D01*
X221570841Y-90542000D01*
X222231577Y-90410571D01*
X222853978Y-90152765D01*
X223414123Y-89778488D01*
X223890488Y-89302123D01*
X224264765Y-88741978D01*
X224522571Y-88119577D01*
X224654000Y-87458841D01*
X224654000Y-86785159D01*
X224522571Y-86124423D01*
X224264765Y-85502022D01*
X223890488Y-84941877D01*
X223414123Y-84465512D01*
X222853978Y-84091235D01*
X222231577Y-83833429D01*
X221570841Y-83702000D01*
X220897159Y-83702000D01*
X220236423Y-83833429D01*
X219614022Y-84091235D01*
X219053877Y-84465512D01*
X218577512Y-84941877D01*
X218203235Y-85502022D01*
X217945429Y-86124423D01*
X217814000Y-86785159D01*
X197784000Y-86785159D01*
X197652571Y-86124423D01*
X197394765Y-85502022D01*
X197020488Y-84941877D01*
X196544123Y-84465512D01*
X195983978Y-84091235D01*
X195361577Y-83833429D01*
X194700841Y-83702000D01*
X194027159Y-83702000D01*
X193366423Y-83833429D01*
X192744022Y-84091235D01*
X192183877Y-84465512D01*
X191707512Y-84941877D01*
X191333235Y-85502022D01*
X191075429Y-86124423D01*
X190944000Y-86785159D01*
X117037739Y-86785159D01*
X117076256Y-86769205D01*
X117245774Y-86655937D01*
X117389937Y-86511774D01*
X117503205Y-86342256D01*
X117581226Y-86153898D01*
X117621000Y-85953939D01*
X117621000Y-85750061D01*
X117581226Y-85550102D01*
X117503205Y-85361744D01*
X117389937Y-85192226D01*
X117321000Y-85123289D01*
X117321000Y-83278711D01*
X117389937Y-83209774D01*
X117503205Y-83040256D01*
X117581226Y-82851898D01*
X117621000Y-82651939D01*
X117621000Y-82448061D01*
X117581226Y-82248102D01*
X117503205Y-82059744D01*
X117389937Y-81890226D01*
X117245774Y-81746063D01*
X117076256Y-81632795D01*
X116887898Y-81554774D01*
X116687939Y-81515000D01*
X116484061Y-81515000D01*
X116284102Y-81554774D01*
X116095744Y-81632795D01*
X115926226Y-81746063D01*
X115782063Y-81890226D01*
X115668795Y-82059744D01*
X115590774Y-82248102D01*
X115551000Y-82448061D01*
X111733000Y-82448061D01*
X111733000Y-80484711D01*
X111801937Y-80415774D01*
X111915205Y-80246256D01*
X111993226Y-80057898D01*
X112033000Y-79857939D01*
X112033000Y-79654061D01*
X111993226Y-79454102D01*
X111915205Y-79265744D01*
X111801937Y-79096226D01*
X111657774Y-78952063D01*
X111488256Y-78838795D01*
X111299898Y-78760774D01*
X111099939Y-78721000D01*
X110896061Y-78721000D01*
X110696102Y-78760774D01*
X110507744Y-78838795D01*
X110338226Y-78952063D01*
X110194063Y-79096226D01*
X110080795Y-79265744D01*
X110002774Y-79454102D01*
X109963000Y-79654061D01*
X108939000Y-79654061D01*
X108939000Y-78452711D01*
X109007937Y-78383774D01*
X109121205Y-78214256D01*
X109199226Y-78025898D01*
X109239000Y-77825939D01*
X109239000Y-77622061D01*
X109199226Y-77422102D01*
X109121205Y-77233744D01*
X109007937Y-77064226D01*
X108939000Y-76995289D01*
X108939000Y-73880711D01*
X109007937Y-73811774D01*
X109121205Y-73642256D01*
X109199226Y-73453898D01*
X109239000Y-73253939D01*
X109239000Y-73050061D01*
X109199226Y-72850102D01*
X109121205Y-72661744D01*
X109007937Y-72492226D01*
X108863774Y-72348063D01*
X108694256Y-72234795D01*
X108505898Y-72156774D01*
X108305939Y-72117000D01*
X108102061Y-72117000D01*
X107902102Y-72156774D01*
X107713744Y-72234795D01*
X107544226Y-72348063D01*
X107400063Y-72492226D01*
X107286795Y-72661744D01*
X107208774Y-72850102D01*
X107169000Y-73050061D01*
X103060079Y-73050061D01*
X103103226Y-72945898D01*
X103143000Y-72745939D01*
X103143000Y-72542061D01*
X103103226Y-72342102D01*
X103025205Y-72153744D01*
X102911937Y-71984226D01*
X102767774Y-71840063D01*
X102598256Y-71726795D01*
X102409898Y-71648774D01*
X102209939Y-71609000D01*
X102006061Y-71609000D01*
X101806102Y-71648774D01*
X101617744Y-71726795D01*
X101448226Y-71840063D01*
X101304063Y-71984226D01*
X101190795Y-72153744D01*
X101112774Y-72342102D01*
X101073000Y-72542061D01*
X94207000Y-72542061D01*
X94207000Y-71848711D01*
X94275937Y-71779774D01*
X94389205Y-71610256D01*
X94467226Y-71421898D01*
X94507000Y-71221939D01*
X94507000Y-71018061D01*
X94467226Y-70818102D01*
X94389205Y-70629744D01*
X94275937Y-70460226D01*
X94131774Y-70316063D01*
X94041975Y-70256061D01*
X128251000Y-70256061D01*
X128251000Y-70459939D01*
X128290774Y-70659898D01*
X128368795Y-70848256D01*
X128482063Y-71017774D01*
X128551001Y-71086712D01*
X128551000Y-75967580D01*
X128547444Y-76003685D01*
X128561635Y-76147770D01*
X128569289Y-76173000D01*
X128603663Y-76286317D01*
X128671913Y-76414004D01*
X128763762Y-76525922D01*
X128791808Y-76548939D01*
X131433062Y-79190194D01*
X131456078Y-79218239D01*
X131567996Y-79310088D01*
X131695683Y-79378338D01*
X131791777Y-79407488D01*
X131884227Y-79499938D01*
X132053745Y-79613206D01*
X132242103Y-79691227D01*
X132442062Y-79731001D01*
X132645940Y-79731001D01*
X132845899Y-79691227D01*
X133034257Y-79613206D01*
X133131002Y-79548564D01*
X133131001Y-80144038D01*
X133078256Y-80108795D01*
X132889898Y-80030774D01*
X132689939Y-79991000D01*
X132486061Y-79991000D01*
X132286102Y-80030774D01*
X132097744Y-80108795D01*
X131928226Y-80222063D01*
X131784063Y-80366226D01*
X131670795Y-80535744D01*
X131592774Y-80724102D01*
X131553000Y-80924061D01*
X131553000Y-81127939D01*
X131592774Y-81327898D01*
X131670795Y-81516256D01*
X131784063Y-81685774D01*
X131853001Y-81754712D01*
X131853000Y-82329289D01*
X131784063Y-82398226D01*
X131670795Y-82567744D01*
X131592774Y-82756102D01*
X131553000Y-82956061D01*
X131553000Y-83159939D01*
X131592774Y-83359898D01*
X131670795Y-83548256D01*
X131784063Y-83717774D01*
X131928226Y-83861937D01*
X132097744Y-83975205D01*
X132286102Y-84053226D01*
X132486061Y-84093000D01*
X132689939Y-84093000D01*
X132889898Y-84053226D01*
X133078256Y-83975205D01*
X133221013Y-83879818D01*
X133375745Y-83983206D01*
X133564103Y-84061227D01*
X133764062Y-84101001D01*
X133967940Y-84101001D01*
X134167899Y-84061227D01*
X134356257Y-83983206D01*
X134525775Y-83869938D01*
X134669938Y-83725775D01*
X134783206Y-83556257D01*
X134861227Y-83367899D01*
X134901001Y-83167940D01*
X134901001Y-82964062D01*
X134861227Y-82764103D01*
X134783206Y-82575745D01*
X134669938Y-82406227D01*
X134601001Y-82337290D01*
X134601001Y-77815160D01*
X204326001Y-77815160D01*
X204326001Y-78488842D01*
X204457430Y-79149578D01*
X204715236Y-79771979D01*
X205089513Y-80332124D01*
X205565878Y-80808489D01*
X206126023Y-81182766D01*
X206748424Y-81440572D01*
X207409160Y-81572001D01*
X208082842Y-81572001D01*
X208743578Y-81440572D01*
X209365979Y-81182766D01*
X209926124Y-80808489D01*
X210402489Y-80332124D01*
X210776766Y-79771979D01*
X211034572Y-79149578D01*
X211166001Y-78488842D01*
X211166001Y-77815160D01*
X211034572Y-77154424D01*
X210776766Y-76532023D01*
X210402489Y-75971878D01*
X209926124Y-75495513D01*
X209365979Y-75121236D01*
X208743578Y-74863430D01*
X208082842Y-74732001D01*
X207409160Y-74732001D01*
X206748424Y-74863430D01*
X206126023Y-75121236D01*
X205565878Y-75495513D01*
X205089513Y-75971878D01*
X204715236Y-76532023D01*
X204457430Y-77154424D01*
X204326001Y-77815160D01*
X134601001Y-77815160D01*
X134601001Y-77428710D01*
X134661937Y-77367774D01*
X134775205Y-77198256D01*
X134853226Y-77009898D01*
X134893000Y-76809939D01*
X134893000Y-76606061D01*
X134853226Y-76406102D01*
X134775205Y-76217744D01*
X134745308Y-76173000D01*
X138139895Y-76173000D01*
X138176000Y-76176556D01*
X138212105Y-76173000D01*
X138320085Y-76162365D01*
X138458633Y-76120337D01*
X138586320Y-76052087D01*
X138698238Y-75960238D01*
X138721259Y-75932187D01*
X141184445Y-73469001D01*
X232346001Y-73469001D01*
X232346001Y-74244001D01*
X232399792Y-74536147D01*
X232509544Y-74812186D01*
X232671040Y-75061509D01*
X232878073Y-75274535D01*
X233122687Y-75443078D01*
X233395482Y-75560660D01*
X233495185Y-75583259D01*
X233729001Y-75462270D01*
X233729001Y-73469001D01*
X233983001Y-73469001D01*
X233983001Y-75462270D01*
X234216817Y-75583259D01*
X234316520Y-75560660D01*
X234589315Y-75443078D01*
X234833929Y-75274535D01*
X235040962Y-75061509D01*
X235202458Y-74812186D01*
X235312210Y-74536147D01*
X235366001Y-74244001D01*
X235366001Y-73469001D01*
X233983001Y-73469001D01*
X233729001Y-73469001D01*
X232346001Y-73469001D01*
X141184445Y-73469001D01*
X142498447Y-72155000D01*
X142595939Y-72155000D01*
X142795898Y-72115226D01*
X142984256Y-72037205D01*
X143153774Y-71923937D01*
X143297937Y-71779774D01*
X143411205Y-71610256D01*
X143489226Y-71421898D01*
X143529000Y-71221939D01*
X143529000Y-71018061D01*
X143489226Y-70818102D01*
X143411205Y-70629744D01*
X143297937Y-70460226D01*
X143153774Y-70316063D01*
X142984256Y-70202795D01*
X142795898Y-70124774D01*
X142595939Y-70085000D01*
X142392061Y-70085000D01*
X142192102Y-70124774D01*
X142003744Y-70202795D01*
X141834226Y-70316063D01*
X141690063Y-70460226D01*
X141576795Y-70629744D01*
X141498774Y-70818102D01*
X141459000Y-71018061D01*
X141459000Y-71115553D01*
X137871554Y-74703000D01*
X130903779Y-74703000D01*
X130867684Y-74699445D01*
X130831589Y-74703000D01*
X130831580Y-74703000D01*
X130804325Y-74705684D01*
X130686257Y-74626794D01*
X130497899Y-74548773D01*
X130297940Y-74508999D01*
X130094062Y-74508999D01*
X130021000Y-74523532D01*
X130021000Y-71086711D01*
X130089937Y-71017774D01*
X130203205Y-70848256D01*
X130281226Y-70659898D01*
X130321000Y-70459939D01*
X130321000Y-70256061D01*
X130281226Y-70056102D01*
X130203205Y-69867744D01*
X130123236Y-69748061D01*
X150095000Y-69748061D01*
X150095000Y-69951939D01*
X150134774Y-70151898D01*
X150212795Y-70340256D01*
X150326063Y-70509774D01*
X150395001Y-70578712D01*
X150395000Y-71661289D01*
X150326063Y-71730226D01*
X150212795Y-71899744D01*
X150134774Y-72088102D01*
X150095000Y-72288061D01*
X150095000Y-72491939D01*
X150134774Y-72691898D01*
X150212795Y-72880256D01*
X150326063Y-73049774D01*
X150470226Y-73193937D01*
X150639744Y-73307205D01*
X150828102Y-73385226D01*
X151028061Y-73425000D01*
X151231939Y-73425000D01*
X151431898Y-73385226D01*
X151620256Y-73307205D01*
X151789774Y-73193937D01*
X151933937Y-73049774D01*
X152047205Y-72880256D01*
X152125226Y-72691898D01*
X152165000Y-72491939D01*
X152165000Y-72288061D01*
X152125226Y-72088102D01*
X152047205Y-71899744D01*
X151933937Y-71730226D01*
X151865000Y-71661289D01*
X151865000Y-70578711D01*
X151933937Y-70509774D01*
X152047205Y-70340256D01*
X152125226Y-70151898D01*
X152165000Y-69951939D01*
X152165000Y-69748061D01*
X152125226Y-69548102D01*
X152047205Y-69359744D01*
X151933937Y-69190226D01*
X151789774Y-69046063D01*
X151620256Y-68932795D01*
X151431898Y-68854774D01*
X151231939Y-68815000D01*
X151028061Y-68815000D01*
X150828102Y-68854774D01*
X150639744Y-68932795D01*
X150470226Y-69046063D01*
X150326063Y-69190226D01*
X150212795Y-69359744D01*
X150134774Y-69548102D01*
X150095000Y-69748061D01*
X130123236Y-69748061D01*
X130089937Y-69698226D01*
X129945774Y-69554063D01*
X129776256Y-69440795D01*
X129587898Y-69362774D01*
X129387939Y-69323000D01*
X129184061Y-69323000D01*
X128984102Y-69362774D01*
X128795744Y-69440795D01*
X128626226Y-69554063D01*
X128482063Y-69698226D01*
X128368795Y-69867744D01*
X128290774Y-70056102D01*
X128251000Y-70256061D01*
X94041975Y-70256061D01*
X93962256Y-70202795D01*
X93773898Y-70124774D01*
X93573939Y-70085000D01*
X93370061Y-70085000D01*
X93170102Y-70124774D01*
X92981744Y-70202795D01*
X92812226Y-70316063D01*
X92668063Y-70460226D01*
X92554795Y-70629744D01*
X92476774Y-70818102D01*
X92437000Y-71018061D01*
X85660000Y-71018061D01*
X85660000Y-67716061D01*
X164573000Y-67716061D01*
X164573000Y-67919939D01*
X164612774Y-68119898D01*
X164690795Y-68308256D01*
X164804063Y-68477774D01*
X164873001Y-68546712D01*
X164873000Y-69375289D01*
X164804063Y-69444226D01*
X164690795Y-69613744D01*
X164612774Y-69802102D01*
X164573000Y-70002061D01*
X164573000Y-70205939D01*
X164612774Y-70405898D01*
X164690795Y-70594256D01*
X164804063Y-70763774D01*
X164948226Y-70907937D01*
X165117744Y-71021205D01*
X165306102Y-71099226D01*
X165506061Y-71139000D01*
X165709939Y-71139000D01*
X165909898Y-71099226D01*
X166098256Y-71021205D01*
X166267774Y-70907937D01*
X166411937Y-70763774D01*
X166525205Y-70594256D01*
X166603226Y-70405898D01*
X166643000Y-70205939D01*
X166643000Y-70002061D01*
X166603226Y-69802102D01*
X166525205Y-69613744D01*
X166411937Y-69444226D01*
X166343000Y-69375289D01*
X166343000Y-68546711D01*
X166411937Y-68477774D01*
X166525205Y-68308256D01*
X166603226Y-68119898D01*
X166633030Y-67970061D01*
X170415000Y-67970061D01*
X170415000Y-68173939D01*
X170454774Y-68373898D01*
X170532795Y-68562256D01*
X170646063Y-68731774D01*
X170715001Y-68800712D01*
X170715000Y-71407289D01*
X170646063Y-71476226D01*
X170532795Y-71645744D01*
X170454774Y-71834102D01*
X170415000Y-72034061D01*
X170415000Y-72237939D01*
X170454774Y-72437898D01*
X170532795Y-72626256D01*
X170646063Y-72795774D01*
X170790226Y-72939937D01*
X170959744Y-73053205D01*
X171148102Y-73131226D01*
X171348061Y-73171000D01*
X171551939Y-73171000D01*
X171751898Y-73131226D01*
X171940256Y-73053205D01*
X172109774Y-72939937D01*
X172253937Y-72795774D01*
X172367205Y-72626256D01*
X172444354Y-72440001D01*
X232346001Y-72440001D01*
X232346001Y-73215001D01*
X233729001Y-73215001D01*
X233729001Y-71221732D01*
X233983001Y-71221732D01*
X233983001Y-73215001D01*
X235366001Y-73215001D01*
X235366001Y-72440001D01*
X235312210Y-72147855D01*
X235202458Y-71871816D01*
X235040962Y-71622493D01*
X234833929Y-71409467D01*
X234589315Y-71240924D01*
X234316520Y-71123342D01*
X234216817Y-71100743D01*
X233983001Y-71221732D01*
X233729001Y-71221732D01*
X233495185Y-71100743D01*
X233395482Y-71123342D01*
X233122687Y-71240924D01*
X232878073Y-71409467D01*
X232671040Y-71622493D01*
X232509544Y-71871816D01*
X232399792Y-72147855D01*
X232346001Y-72440001D01*
X172444354Y-72440001D01*
X172445226Y-72437898D01*
X172485000Y-72237939D01*
X172485000Y-72034061D01*
X172445226Y-71834102D01*
X172367205Y-71645744D01*
X172253937Y-71476226D01*
X172185000Y-71407289D01*
X172185000Y-68800711D01*
X172253937Y-68731774D01*
X172367205Y-68562256D01*
X172445226Y-68373898D01*
X172485000Y-68173939D01*
X172485000Y-67970061D01*
X172445226Y-67770102D01*
X172367205Y-67581744D01*
X172253937Y-67412226D01*
X172109774Y-67268063D01*
X171940256Y-67154795D01*
X171751898Y-67076774D01*
X171551939Y-67037000D01*
X171348061Y-67037000D01*
X171148102Y-67076774D01*
X170959744Y-67154795D01*
X170790226Y-67268063D01*
X170646063Y-67412226D01*
X170532795Y-67581744D01*
X170454774Y-67770102D01*
X170415000Y-67970061D01*
X166633030Y-67970061D01*
X166643000Y-67919939D01*
X166643000Y-67716061D01*
X166603226Y-67516102D01*
X166525205Y-67327744D01*
X166411937Y-67158226D01*
X166267774Y-67014063D01*
X166098256Y-66900795D01*
X165909898Y-66822774D01*
X165709939Y-66783000D01*
X165506061Y-66783000D01*
X165306102Y-66822774D01*
X165117744Y-66900795D01*
X164948226Y-67014063D01*
X164804063Y-67158226D01*
X164690795Y-67327744D01*
X164612774Y-67516102D01*
X164573000Y-67716061D01*
X85660000Y-67716061D01*
X85660000Y-55016061D01*
X92437000Y-55016061D01*
X92437000Y-55219939D01*
X92476774Y-55419898D01*
X92554795Y-55608256D01*
X92668063Y-55777774D01*
X92737001Y-55846712D01*
X92737000Y-59977289D01*
X92668063Y-60046226D01*
X92554795Y-60215744D01*
X92476774Y-60404102D01*
X92437000Y-60604061D01*
X92437000Y-60807939D01*
X92476774Y-61007898D01*
X92554795Y-61196256D01*
X92668063Y-61365774D01*
X92812226Y-61509937D01*
X92981744Y-61623205D01*
X93170102Y-61701226D01*
X93370061Y-61741000D01*
X93573939Y-61741000D01*
X93773898Y-61701226D01*
X93962256Y-61623205D01*
X94131774Y-61509937D01*
X94275937Y-61365774D01*
X94389205Y-61196256D01*
X94467226Y-61007898D01*
X94507000Y-60807939D01*
X94507000Y-60604061D01*
X94467226Y-60404102D01*
X94389205Y-60215744D01*
X94275937Y-60046226D01*
X94207000Y-59977289D01*
X94207000Y-57302061D01*
X107169000Y-57302061D01*
X107169000Y-57505939D01*
X107208774Y-57705898D01*
X107286795Y-57894256D01*
X107400063Y-58063774D01*
X107469001Y-58132712D01*
X107469000Y-60739289D01*
X107400063Y-60808226D01*
X107286795Y-60977744D01*
X107208774Y-61166102D01*
X107169000Y-61366061D01*
X107169000Y-61569939D01*
X107208774Y-61769898D01*
X107286795Y-61958256D01*
X107400063Y-62127774D01*
X107544226Y-62271937D01*
X107713744Y-62385205D01*
X107902102Y-62463226D01*
X108102061Y-62503000D01*
X108305939Y-62503000D01*
X108505898Y-62463226D01*
X108694256Y-62385205D01*
X108863774Y-62271937D01*
X109007937Y-62127774D01*
X109121205Y-61958256D01*
X109199226Y-61769898D01*
X109239000Y-61569939D01*
X109239000Y-61366061D01*
X109199226Y-61166102D01*
X109121205Y-60977744D01*
X109007937Y-60808226D01*
X108939000Y-60739289D01*
X108939000Y-59334061D01*
X109963000Y-59334061D01*
X109963000Y-59537939D01*
X110002774Y-59737898D01*
X110080795Y-59926256D01*
X110194063Y-60095774D01*
X110263001Y-60164712D01*
X110263000Y-64041289D01*
X110194063Y-64110226D01*
X110080795Y-64279744D01*
X110002774Y-64468102D01*
X109963000Y-64668061D01*
X109963000Y-64871939D01*
X110002774Y-65071898D01*
X110080795Y-65260256D01*
X110194063Y-65429774D01*
X110338226Y-65573937D01*
X110507744Y-65687205D01*
X110696102Y-65765226D01*
X110896061Y-65805000D01*
X111099939Y-65805000D01*
X111299898Y-65765226D01*
X111488256Y-65687205D01*
X111657774Y-65573937D01*
X111801937Y-65429774D01*
X111915205Y-65260256D01*
X111993226Y-65071898D01*
X112033000Y-64871939D01*
X112033000Y-64668061D01*
X111993226Y-64468102D01*
X111915205Y-64279744D01*
X111801937Y-64110226D01*
X111733000Y-64041289D01*
X111733000Y-60164711D01*
X111801937Y-60095774D01*
X111915205Y-59926256D01*
X111993226Y-59737898D01*
X112033000Y-59537939D01*
X112033000Y-59334061D01*
X111993226Y-59134102D01*
X111915205Y-58945744D01*
X111801937Y-58776226D01*
X111657774Y-58632063D01*
X111488256Y-58518795D01*
X111299898Y-58440774D01*
X111099939Y-58401000D01*
X110896061Y-58401000D01*
X110696102Y-58440774D01*
X110507744Y-58518795D01*
X110338226Y-58632063D01*
X110194063Y-58776226D01*
X110080795Y-58945744D01*
X110002774Y-59134102D01*
X109963000Y-59334061D01*
X108939000Y-59334061D01*
X108939000Y-58132711D01*
X109007937Y-58063774D01*
X109121205Y-57894256D01*
X109199226Y-57705898D01*
X109239000Y-57505939D01*
X109239000Y-57302061D01*
X109199226Y-57102102D01*
X109121205Y-56913744D01*
X109007937Y-56744226D01*
X108863774Y-56600063D01*
X108694256Y-56486795D01*
X108505898Y-56408774D01*
X108305939Y-56369000D01*
X108102061Y-56369000D01*
X107902102Y-56408774D01*
X107713744Y-56486795D01*
X107544226Y-56600063D01*
X107400063Y-56744226D01*
X107286795Y-56913744D01*
X107208774Y-57102102D01*
X107169000Y-57302061D01*
X94207000Y-57302061D01*
X94207000Y-55846711D01*
X94275937Y-55777774D01*
X94389205Y-55608256D01*
X94467226Y-55419898D01*
X94507000Y-55219939D01*
X94507000Y-55016061D01*
X94467226Y-54816102D01*
X94456439Y-54790060D01*
X129239001Y-54790060D01*
X129239001Y-54993938D01*
X129278775Y-55193897D01*
X129356796Y-55382255D01*
X129470064Y-55551773D01*
X129614227Y-55695936D01*
X129783745Y-55809204D01*
X129972103Y-55887225D01*
X130172062Y-55926999D01*
X130375940Y-55926999D01*
X130575899Y-55887225D01*
X130764257Y-55809204D01*
X130933775Y-55695936D01*
X131002712Y-55626999D01*
X132951984Y-55626999D01*
X132940795Y-55643744D01*
X132862774Y-55832102D01*
X132823000Y-56032061D01*
X132823000Y-56235939D01*
X132862774Y-56435898D01*
X132940795Y-56624256D01*
X133054063Y-56793774D01*
X133123001Y-56862712D01*
X133123001Y-57278692D01*
X133078256Y-57248795D01*
X132889898Y-57170774D01*
X132689939Y-57131000D01*
X132486061Y-57131000D01*
X132286102Y-57170774D01*
X132097744Y-57248795D01*
X131928226Y-57362063D01*
X131784063Y-57506226D01*
X131670795Y-57675744D01*
X131592774Y-57864102D01*
X131553000Y-58064061D01*
X131553000Y-58267939D01*
X131592774Y-58467898D01*
X131670795Y-58656256D01*
X131784063Y-58825774D01*
X131928226Y-58969937D01*
X132097744Y-59083205D01*
X132286102Y-59161226D01*
X132486061Y-59201000D01*
X132689939Y-59201000D01*
X132889898Y-59161226D01*
X133078256Y-59083205D01*
X133123001Y-59053308D01*
X133123000Y-59818692D01*
X133078256Y-59788795D01*
X132889898Y-59710774D01*
X132689939Y-59671000D01*
X132486061Y-59671000D01*
X132286102Y-59710774D01*
X132097744Y-59788795D01*
X131928226Y-59902063D01*
X131784063Y-60046226D01*
X131670795Y-60215744D01*
X131592774Y-60404102D01*
X131553000Y-60604061D01*
X131553000Y-60807939D01*
X131592774Y-61007898D01*
X131670795Y-61196256D01*
X131784063Y-61365774D01*
X131853001Y-61434712D01*
X131853000Y-62009289D01*
X131784063Y-62078226D01*
X131670795Y-62247744D01*
X131592774Y-62436102D01*
X131553000Y-62636061D01*
X131553000Y-62839939D01*
X131592774Y-63039898D01*
X131670795Y-63228256D01*
X131784063Y-63397774D01*
X131928226Y-63541937D01*
X132097744Y-63655205D01*
X132286102Y-63733226D01*
X132486061Y-63773000D01*
X132689939Y-63773000D01*
X132889898Y-63733226D01*
X133078256Y-63655205D01*
X133223000Y-63558490D01*
X133367744Y-63655205D01*
X133556102Y-63733226D01*
X133756061Y-63773000D01*
X133959939Y-63773000D01*
X134159898Y-63733226D01*
X134348256Y-63655205D01*
X134517774Y-63541937D01*
X134661937Y-63397774D01*
X134775205Y-63228256D01*
X134853226Y-63039898D01*
X134893000Y-62839939D01*
X134893000Y-62636061D01*
X134853226Y-62436102D01*
X134775205Y-62247744D01*
X134661937Y-62078226D01*
X134593000Y-62009289D01*
X134593000Y-59542824D01*
X232346001Y-59542824D01*
X232346001Y-61241179D01*
X232367850Y-61463013D01*
X232454194Y-61747649D01*
X232594408Y-62009971D01*
X232783105Y-62239898D01*
X233013032Y-62428595D01*
X233275354Y-62568809D01*
X233559990Y-62655152D01*
X233856001Y-62684307D01*
X234152013Y-62655152D01*
X234436649Y-62568809D01*
X234698971Y-62428595D01*
X234928898Y-62239898D01*
X235117595Y-62009971D01*
X235257809Y-61747649D01*
X235344152Y-61463013D01*
X235366001Y-61241179D01*
X235366001Y-59542823D01*
X235344152Y-59320989D01*
X235257809Y-59036353D01*
X235117595Y-58774031D01*
X234928898Y-58544104D01*
X234698970Y-58355407D01*
X234436648Y-58215193D01*
X234152012Y-58128850D01*
X233856001Y-58099695D01*
X233559989Y-58128850D01*
X233275353Y-58215193D01*
X233013031Y-58355407D01*
X232783104Y-58544104D01*
X232594407Y-58774032D01*
X232454193Y-59036354D01*
X232367850Y-59320990D01*
X232346001Y-59542824D01*
X134593000Y-59542824D01*
X134593000Y-56862711D01*
X134661937Y-56793774D01*
X134775205Y-56624256D01*
X134853226Y-56435898D01*
X134893000Y-56235939D01*
X134893000Y-56032061D01*
X134853226Y-55832102D01*
X134775205Y-55643744D01*
X134764016Y-55626999D01*
X138111896Y-55626999D01*
X138148001Y-55630555D01*
X138184106Y-55626999D01*
X138292086Y-55616364D01*
X138430634Y-55574336D01*
X138558321Y-55506086D01*
X138670239Y-55414237D01*
X138693260Y-55386186D01*
X138764286Y-55315160D01*
X190946001Y-55315160D01*
X190946001Y-55988842D01*
X191077430Y-56649578D01*
X191335236Y-57271979D01*
X191709513Y-57832124D01*
X192185878Y-58308489D01*
X192746023Y-58682766D01*
X193368424Y-58940572D01*
X194029160Y-59072001D01*
X194702842Y-59072001D01*
X195363578Y-58940572D01*
X195985979Y-58682766D01*
X196546124Y-58308489D01*
X197022489Y-57832124D01*
X197396766Y-57271979D01*
X197654572Y-56649578D01*
X197786001Y-55988842D01*
X197786001Y-55315160D01*
X217816001Y-55315160D01*
X217816001Y-55988842D01*
X217947430Y-56649578D01*
X218205236Y-57271979D01*
X218579513Y-57832124D01*
X219055878Y-58308489D01*
X219616023Y-58682766D01*
X220238424Y-58940572D01*
X220899160Y-59072001D01*
X221572842Y-59072001D01*
X222233578Y-58940572D01*
X222855979Y-58682766D01*
X223416124Y-58308489D01*
X223892489Y-57832124D01*
X224266766Y-57271979D01*
X224524572Y-56649578D01*
X224656001Y-55988842D01*
X224656001Y-55315160D01*
X224524572Y-54654424D01*
X224266766Y-54032023D01*
X223892489Y-53471878D01*
X223416124Y-52995513D01*
X222855979Y-52621236D01*
X222233578Y-52363430D01*
X221572842Y-52232001D01*
X220899160Y-52232001D01*
X220238424Y-52363430D01*
X219616023Y-52621236D01*
X219055878Y-52995513D01*
X218579513Y-53471878D01*
X218205236Y-54032023D01*
X217947430Y-54654424D01*
X217816001Y-55315160D01*
X197786001Y-55315160D01*
X197654572Y-54654424D01*
X197396766Y-54032023D01*
X197022489Y-53471878D01*
X196546124Y-52995513D01*
X195985979Y-52621236D01*
X195363578Y-52363430D01*
X194702842Y-52232001D01*
X194029160Y-52232001D01*
X193368424Y-52363430D01*
X192746023Y-52621236D01*
X192185878Y-52995513D01*
X191709513Y-53471878D01*
X191335236Y-54032023D01*
X191077430Y-54654424D01*
X190946001Y-55315160D01*
X138764286Y-55315160D01*
X142498447Y-51581000D01*
X142595939Y-51581000D01*
X142795898Y-51541226D01*
X142984256Y-51463205D01*
X143153774Y-51349937D01*
X143297937Y-51205774D01*
X143411205Y-51036256D01*
X143489226Y-50847898D01*
X143529000Y-50647939D01*
X143529000Y-50444061D01*
X143489226Y-50244102D01*
X143411205Y-50055744D01*
X143297937Y-49886226D01*
X143153774Y-49742063D01*
X142984256Y-49628795D01*
X142795898Y-49550774D01*
X142595939Y-49511000D01*
X142392061Y-49511000D01*
X142192102Y-49550774D01*
X142003744Y-49628795D01*
X141834226Y-49742063D01*
X141690063Y-49886226D01*
X141576795Y-50055744D01*
X141498774Y-50244102D01*
X141459000Y-50444061D01*
X141459000Y-50541553D01*
X137843555Y-54156999D01*
X131002712Y-54156999D01*
X130933775Y-54088062D01*
X130764257Y-53974794D01*
X130575899Y-53896773D01*
X130375940Y-53856999D01*
X130172062Y-53856999D01*
X129972103Y-53896773D01*
X129783745Y-53974794D01*
X129614227Y-54088062D01*
X129470064Y-54232225D01*
X129356796Y-54401743D01*
X129278775Y-54590101D01*
X129239001Y-54790060D01*
X94456439Y-54790060D01*
X94389205Y-54627744D01*
X94275937Y-54458226D01*
X94131774Y-54314063D01*
X93962256Y-54200795D01*
X93773898Y-54122774D01*
X93573939Y-54083000D01*
X93370061Y-54083000D01*
X93170102Y-54122774D01*
X92981744Y-54200795D01*
X92812226Y-54314063D01*
X92668063Y-54458226D01*
X92554795Y-54627744D01*
X92476774Y-54816102D01*
X92437000Y-55016061D01*
X85660000Y-55016061D01*
X85660000Y-45660000D01*
X239340001Y-45660000D01*
X239340000Y-139340000D01*
M02*
