M48
; DRILL file {KiCad (5.1.5)-3} date 20/08/2020 20:46:54
; FORMAT={2:4/ absolute / inch / suppress leading zeros}
; #@! TF.CreationDate,2020-08-20T20:46:54-04:00
; #@! TF.GenerationSoftware,Kicad,Pcbnew,(5.1.5)-3
; #@! TF.FileFunction,Plated,1,2,PTH
FMAT,2
INCH,TZ
T1C0.0157
T2C0.0295
T3C0.0394
%
G90
G05
T1
X36800Y-21700
X36800Y-23900
X36800Y-28000
X36800Y-31400
X36800Y-35900
X36800Y-37700
X36800Y-44000
X36800Y-45700
X37700Y-23000
X37700Y-31000
X37700Y-38200
X37700Y-39000
X37700Y-46200
X37700Y-47000
X37700Y-52800
X37700Y-53600
X38300Y-23600
X38300Y-31600
X38300Y-39600
X38300Y-47600
X38300Y-54200
X39100Y-48700
X39700Y-49400
X40200Y-28600
X40200Y-30700
X40200Y-36600
X40200Y-38700
X40200Y-44600
X40200Y-46700
X40200Y-47800
X40200Y-48600
X40200Y-51100
X40200Y-53200
X42600Y-22600
X42600Y-24200
X42600Y-28800
X42600Y-30600
X42600Y-32200
X42600Y-36800
X42600Y-38600
X42600Y-40200
X42600Y-44900
X42600Y-46600
X42600Y-48200
X43700Y-23400
X43700Y-25500
X43700Y-31400
X43700Y-33500
X43700Y-39400
X43700Y-41400
X43800Y-46200
X43800Y-50200
X44500Y-20000
X44500Y-22000
X44500Y-28000
X44500Y-30000
X44500Y-36000
X44500Y-38000
X44500Y-43900
X44500Y-45900
X44600Y-52500
X45100Y-20600
X45100Y-21400
X45100Y-28600
X45100Y-29400
X45100Y-36600
X45100Y-37400
X45100Y-47900
X45100Y-49000
X45200Y-51100
X45200Y-51900
X45500Y-40200
X45500Y-41400
X45500Y-48300
X45500Y-49300
X45900Y-32500
X45900Y-33800
X45900Y-40600
X45900Y-41800
X45900Y-48700
X45900Y-49700
X48700Y-23000
X48700Y-23800
X48700Y-31000
X48700Y-31800
X48700Y-39000
X48700Y-39800
X48700Y-47000
X48700Y-47800
X50700Y-43500
X50900Y-27700
X51000Y-35500
X51258Y-29742
X51258Y-45642
X51289Y-21611
X51291Y-37709
X52171Y-38971
X52183Y-30983
X52188Y-46912
X52200Y-22900
X52200Y-23900
X52200Y-24700
X52200Y-31900
X52200Y-32700
X52200Y-39900
X52200Y-40700
X52200Y-47900
X52200Y-48700
X52400Y-53600
X52400Y-54300
X52700Y-22100
X52700Y-24700
X52700Y-30200
X52700Y-40700
X52700Y-46100
X52700Y-48700
X52703Y-32703
X52703Y-38203
X53500Y-41300
X53600Y-33300
X53600Y-49300
X53700Y-25300
X56100Y-19900
X56100Y-28000
X56100Y-36100
X56100Y-44000
X56200Y-21200
X56200Y-22000
X56200Y-29300
X56200Y-30100
X56200Y-37400
X56200Y-38200
X56200Y-45300
X56200Y-46100
X58100Y-43500
X58100Y-44500
X59100Y-35600
X59100Y-36600
X59100Y-43500
X59100Y-44500
X59500Y-27500
X59500Y-28500
X59500Y-35600
X59500Y-36600
X59500Y-43500
X59500Y-44500
X61200Y-35700
X61200Y-43600
X61300Y-27700
X61400Y-19800
X61400Y-23000
X61400Y-23800
X61400Y-24600
X61400Y-31000
X61400Y-31800
X61400Y-32600
X61400Y-39000
X61400Y-39800
X61400Y-40600
X61400Y-47000
X61400Y-47800
X61400Y-48600
X62000Y-25200
X62000Y-33200
X62000Y-41200
X62000Y-49300
X63400Y-19800
X63400Y-27800
X63400Y-35800
X63400Y-43800
X65200Y-26700
X65200Y-27600
X65200Y-34700
X65200Y-35600
X65200Y-42700
X65200Y-43600
X65200Y-49400
X65200Y-50400
X67200Y-51800
X67500Y-26800
X67500Y-28400
X67500Y-35500
X67500Y-36900
X67500Y-43600
X67500Y-44800
X67800Y-52400
X68300Y-21500
X68300Y-23600
X68300Y-29400
X68300Y-31500
X68300Y-37500
X68300Y-39600
X68300Y-45600
X68300Y-47700
X68900Y-22200
X68900Y-23000
X69000Y-46400
X69000Y-47000
X69200Y-50300
X70500Y-52400
X70700Y-50400
X71300Y-53200
X71700Y-49000
X72400Y-49800
X72800Y-47900
X73700Y-52200
X77700Y-50100
X79400Y-48400
T3
X56100Y-53400
X57100Y-53400
X58100Y-53400
X59100Y-53400
X60100Y-53400
X35100Y-31400
X35100Y-32400
X35100Y-33400
X35100Y-34400
X35100Y-35400
X80000Y-51800
X81000Y-51800
X82000Y-51800
X83000Y-51800
X84000Y-51800
X47100Y-53400
X48100Y-53400
X49100Y-53400
X50100Y-53400
X51100Y-53400
T2
G00X92069Y-23471
M15
G01X92069Y-24081
M16
G05
G00X92069Y-28570
M15
G01X92069Y-29180
M16
G05
G00X92069Y-35861
M15
G01X92069Y-36471
M16
G05
G00X92069Y-40959
M15
G01X92069Y-41570
M16
G05
T0
M30
